<mxfile host="app.diagrams.net" modified="2022-04-22T13:29:12.247Z" agent="5.0 (Windows NT 10.0; Win64; x64) AppleWebKit/537.36 (KHTML, like Gecko) Chrome/100.0.4896.127 Safari/537.36" etag="LWaiJFvPTJLv6uxDK5pB" version="17.4.6" type="github">
  <diagram id="GrVoucavgPSvoL_SmzSa" name="Page-1">
    <mxGraphModel dx="1504" dy="336" grid="1" gridSize="10" guides="1" tooltips="1" connect="1" arrows="1" fold="1" page="1" pageScale="1" pageWidth="827" pageHeight="1169" math="0" shadow="0">
      <root>
        <mxCell id="0" />
        <mxCell id="1" parent="0" />
        <mxCell id="xpjgmQdCxlFDzocmX1uN-47" style="edgeStyle=orthogonalEdgeStyle;rounded=0;orthogonalLoop=1;jettySize=auto;html=1;entryX=0;entryY=0.5;entryDx=0;entryDy=0;fontSize=9;labelBackgroundColor=none;" edge="1" parent="1" target="xpjgmQdCxlFDzocmX1uN-12">
          <mxGeometry relative="1" as="geometry">
            <mxPoint x="-530" y="200" as="sourcePoint" />
          </mxGeometry>
        </mxCell>
        <mxCell id="xpjgmQdCxlFDzocmX1uN-79" value="AOP Worker Usage&lt;br&gt;(Optional)" style="edgeLabel;html=1;align=center;verticalAlign=middle;resizable=0;points=[];fontSize=9;labelBackgroundColor=none;" vertex="1" connectable="0" parent="xpjgmQdCxlFDzocmX1uN-47">
          <mxGeometry x="-0.1681" y="-1" relative="1" as="geometry">
            <mxPoint x="-7" y="17" as="offset" />
          </mxGeometry>
        </mxCell>
        <mxCell id="xpjgmQdCxlFDzocmX1uN-11" value="Subscriber SFDC Organization" style="swimlane;fillColor=#dae8fc;gradientColor=#7ea6e0;strokeColor=#6c8ebf;" vertex="1" parent="1">
          <mxGeometry x="-760" y="60" width="360" height="509.7" as="geometry" />
        </mxCell>
        <mxCell id="xpjgmQdCxlFDzocmX1uN-53" value="Platform Events Queues" style="shape=image;verticalLabelPosition=bottom;labelBackgroundColor=none;verticalAlign=top;aspect=fixed;imageAspect=0;image=data:image/png,iVBORw0KGgoAAAANSUhEUgAAAIQAAADNCAYAAAB5E9gDAAAAAXNSR0IArs4c6QAAAARnQU1BAACxjwv8YQUAAAAJcEhZcwAAFxEAABcRAcom8z8AACNvSURBVHhe7V0HeBTV2o4VSGY3gnJpyc5uEkSQHrIzmwSCIlKkCAqKgooioliwAxZ67yDFgr33gg2vehULFkAR6SiK7aKiWJF2/u89c/LrhSHZc2Z2M0vmfZ73Icbs7Mz3nTnna+c7aRWBSKDg2HDQHKFr5ifEneGAyXw6YYyFNeOPSMB8LaSZF+RUz88UovY+dM0YGtbMX3KCxSyCB7F9QJ8qjAQKmZDrqkjQaC9E7l3ogejonGARv3G7B/LpDjEoaNb4LZQZaydE7z3oAaMzZgR/VkgO8eLRMrIxTyuuKVTgHZSklRweDhivWSPX/gF8uk8ub828TqjBO9C1Ng3pBnf6s0NyiVlCD5hL8EIKVXgD5EkM8u2G5BMyJyN+c3a1wrpCFd4A3dT9/nKRfFovofF1KDMaEaqoeITSiqvTgFgXCZCRY3PTPhPHCJYMzVyXFTRrCHVUPPRAQYwHTnz7IemEDREKGE8KVXgDNEKHcRfI5oZ9JpZYMiJa4WlCFd6AHjBe8gdE8ik8jI9r1WqaIVRR8cirEc0io+Yb38NIPq2X0LhcqMIbiARiXSJB+cEQCcZYVtWWrPZhjQWbVCJazxxKLyBZqNldlsyNrz0XpaTlYpLKcpGd3oq1zO3JOra+kp1cdEWlY8c2V7Em2aewUAYGhb2MyiJcfFouJgo1eAaHkLv5Hlwfu5sui3WPbMYuPH8hu/Xub9jsBRvZ7PmVh3Nv/4JNnv4xa5HTg8+SdvIpi4gGkyG/PRwobCD04A2EA60a0IDYLhuuzq7WijWoeQIbOuwlNuOWtVw4lYmzaFD0O2MmfylohrWVUVnE7BAJGvcINXgHdHPnqs0OzZnRsA+bMmMlmzLzE1uhHaycOmsVmzBlGWtV/3RWr0oLW/mURevli/0V0swioQbvgNaw21TC1RgQp3a4iWaHdbZCO5g5a94GdtEFd7KsavnIQdjKpyxyV1MzFwsVeAdZaWY1eqC10u4mCQHr5uBB97OZc9fbCu1gJWZDzBBtWlzA6hzR1F4+5RDeRUgzvBWIAshtLKD1b5e8/ZDPGtXtwG4e8TqbPnuNreAOVs6Yu45dOeRJkoPB9IzofrIpj2J2+MhTgahSRALG1SruZl16M9q0HMCmzfqU2xB2gjsYiWeFAd2B3Ow6h6vNDlzeQfMyoQJP4RC6wcdV7AcYUmd0n8DXUjvBHazEYBg+/GVW/+gSHoOxk01Z5IEozdziyXK5PK15TVouvpK1H3Qtyolps7K5m7CXenQaoWw7iJdvglCBt4BKX5V0d1bVfNZM78rGjH+XTZv9qa3g4uGEKR+xcZNWsLETl3PiZ/zO7m+9wGmzV7NRY95ix9fr5CAQFdseCRQfK1TgLZBRNE7Ffqh9eBPWoWgImz5njZL9AKWPnbiCzZn/KXvk8U1s8atfceJn/A7/z4sDY9a8jaxf75lkPzWDUWgrm7JoGZPG3UL8XkOvw+gmFaqrDVavagt2bp/ZbNaCjbaCK4tjaRaYMecT9va737Gft//F9gV+h/8385ZP+MCwu0ZFcOpMdwJROZpRLBTgLYQyi3PIuPlB1n5AZi+vRms2dOiLfIawE96BOG7Scjb/9tXsq69/F+o/ML7+5ne24PY1/DN210o2/w5EteT2k51syiJmh4hmvizE7z0gKKKyXGDtbFW/F5s4dTl/a+yEZ0csAZgZvvm2/MFQCvwtPlPRywcPRBFbNz+fLxd2cimP8C5omekhxO890E3OU7UfurUfzr0LGfsB0/+St78Vqo4fb73zbYUvHQhEDbnicbiLyoEo+uxyRIWF+L2FvLy8KijZkk1oIWaPGWLg+QvZ7Pnxxx/whs+8ZZWtzVAettNnZs3F+l0xs0RpIAq1D+quJi0XwdhgIX7vIZRutqQb/V0lXH1crZPYjTe/KmU/4A1/+LFNQsXyeOjRjdwYtbt2oskDUcNeYvWPbqMeiAqYX3oyEFUKWssGqUYnCxv344mdKTPiT3ePHr+cvbP0O6FeeSx68QsaVBVjXM6ct571dByIMsYL0XsTdKMPqtgPdcig6tV1LF9TJ8dpP0ycak31m7/4VahXHs+9gAGR/Bli2pzVbOToJaxxvY7KgSiyHbbnBIz6QvTeQ82aJRrZApvlw9UGTZkF7LJLH+ZvjZ0A7Yjo420L17A/d+wW6pXDXuJ9D27g17G7fsJIAx6u5tm9pvOKKDuZlEc+O2jmQiF6b0LPMNrSze6WD1e3ZE1DXdjIMW/xEK6tEG2IN/uZRZst7Srgp5/JqCSDdIKYaZJFXhE1+UPWMvc0pUCUSAn8pQcKY0L03kQoaNyoulycEB0k7W6OmbCCfbzyB6FeeXzy6TY2fvIKNmlacgcEZgd4U3gRMDvayaQsYnagz70kxO5ZHBLSzOdlBwQEgrekb+/pUtVRsB+mz1rJtn7/p1CvPF5+ZQs3Su2unygiCIVgVHGz89SXi0DhXk8HogA9vaA2KfdHWXeTB2OCMXbttc9JpbuxXNz7wHq2a9ceoV457Nq5h915zzo+Q9hdP1GciUDU5Y/9/ez7yKM8WoEoY7meVlJViN6bCGvR7iLJst9DlMUsmh3y805n4ya+zyuk7IRoRywXr7z6lVCvPL777g9anmimSeJygeVwOgJRxc4CUboWu0SI3bvQg+YslfhDncObsE4l11jeBSnITpD7ctK0j+nN/oit2/CzUK883v9gK/cuJtlcP1HEDIh9Jnk12rCQYiCKZuHNxwUKjhZi9yby0jpWoWnsXRX7ARHK8/stIEMrfvsBXgFCzr/8slOoVx5PPvN50u0H2EindrzZUSAqlGGOFWL3LkixaCb2m6z9wNPdR7dhN9z4bzZdwt0cPXE5e/SJz9heBBIU8Ntvu9j821bzWcbu+okgnm/U6CXs+Lod+H4LO3mURR7b0czt2cGWuULs3gXdsNLuLHgX5vFn0xKwIu50N5aLMROWs7feVQ9Xf775FzZhCtxN++9IBDEDnt1rmsNAlOHtQFQpyKC8TyX+gHQ3ikplopOIGcAY/HKLerj6jSXfJDVc7U4gyvwLbZmEyL2LRjVLtHDAWCNtP5DLFSJePPAeHqixE6QdMc0vuGM1++svNXdzL60zDzy8IakJrVnznQaiuKv5ohC5t4HwKcKoKunuRnU68ASPTHU1lotFL3wp1CuPH3/ckdQaCB6IInezuKl6ICoSjO2FWy9E7m3oAXOIynJRr0pz6d1ZpfbDRw7C1Z+u2ZbU5QLL4RWXP8pnBgeBqGV5aXlVhMi9DXrQZ1UMyjpHNGFnnTZVKlxdWju5dat6uPqlxVv4oLK7vtvkFVFz1rD2hZc7DESZg4S4vY06WskxNHqlm4nBdggHTXblkMel4g8IJN1933q2R9Hd3L17L7vj7rVJS3djMKCCPK96G6W2QGJr3ud1vR6IKgXZDV2Ie2TtB1jazSPd2bgJ79GSEX91Nd7sV1//WqhXHii/nzZr5f8X1iSaWC7Q48LJ7JASgahSWLuz5MPVaAbSvvAyxpuBSISr8WavdxKu/nBr0pYL1IWOHP2mFYhSrIiipeLnlAhEWeh1mB4w3lALSDVn/fvO5Zk/O2HaccLkFeyWBavZ9u3q4eqnntmctAHBK6JOdxiIChh3CGF7H3qmEaYB8avscgH7IfeoIlpbX5BKd4+ZuJzvz1TFH3/sYnMXfMojlHbXd5MIRI2f9AFvqYitiXZyKJs0OwRiO2lAGELc3kcoYPS1jEm5AYHlInrcmaSYD6V2Z6FU3kl19abPtvMoZzLS3ZgdBvS/g2VVUQ9E0XKxSIg6NUAjeIFSupsMrC7thvLonZ0w7Qj7AYrc8vVvQr3y+M8b37DRSVguUA0Fd7Ooybl88NvJoGziPLLCvTQ7dBOi9j7Qv4hueIXYKBI3sZEVdQAXDbjLKre3EagdYUzeftda5epquJsPPrKR7IfELxc8EHUZAlFWaN5ODmWR22Sa8WGjtEZHCnF7H+Gjos3o5mmNkwxX02BoUPNEdvPI/0hVV6NuAfsnVLFt2w5rY2+C3U1sMIJ3AQ+qtpMeUZp5kRB1aiAUjA1W8S5gcbdu3p8LTybdjbrHFR+rh6tXrd5mVUclON09fc5aKxBVo7VaIMqqefjM8xVR+4K8i8f4SLZ5qLKIcrle3cbxvtV2ArUjgkgIJv3www6hXnm88NKXSXE3EYbvdvINZCfB1VQ0JgPGKCHm1ADCqLTGbZQPV1tvzOXYnSVpP6C6GnaACpAmR3V1osPVWCpGjHqDNapzMkOfrH2fvzxy910ztnnqoLR4kJMRO5EGwx67hyqLKBtrXK8TGzN+qVR19ahxyxyHq3GdiVPtr+8W4Wr2OW2K00DU7ULMqYOwFrtRNVzdzryETZVMdyPDuXaderj6gySEq5GPQSAKRxmoVERZwb3Yzki1WIEQc+qAHuA1JfvhiKa83b9M/AGDAZ3jfv1NPVz9+FOfJbz+gQeizrud7zFRC0TRC5ZqgSggt3qrbD1gbpW2H9ILWG71YnbN1U9Lxx8edRCu/u33nWwer65O3IAoDUQVNjlHORCF2SGUYZ4kxJw6QDOxSBBRNLsHOzARz2+R25Pe+GVS4WpEFpe+v1WoVx4bN23nXkoi3U0Eoi6/9BGmZ6AiSrHmIWCuppmlYVbQzEsmYcA2OLowINQrD5rWpqnYD/WqNGOd2l5jJbPitB9Kcw5fblEPV7+55Fs2KoGbcaxA1Gp2UuxS5ZoHi8Yumnl30s8w1pNHzfiD/l1Bru6kXBogQs3xotdhdIFlqunugf3vkCq35+HqO9eyHX+phavRDeT+hxLbDIRvzbv+BVoOW/Nl0e7Z4ydfOpJKGLM5NENZL3lsSyQz1ksou3xgSsOIkk53k6COrXkCGz58sVS6G4bgs887CFf/JMLVCauutrrAdGuPQJST2cEbFC/67rjbDIQzjYGyySwQzThjjfvxyigYYPbC3Z8YECtX/SjUK4+Vq7axcbwZiP31nRIHu4wY+QZriECUwtY8L1LkUbbEFTqnP7xL2n7QrPwFNrjibbITrB15M5DZK9n3P6hXV7/48paE2g9/b82DZyHvanqV0HFEM8puN5CTlp9JU8k6+XQ3mom1Ypde8qCUu4ldVfc+uIHt2qUerl5499qEuZtwM1EVhS4wVt7C/vlTkSLB9rZQvT30alHT+oCc/WCdnXUyGznqTamzs5DufupZ9WZi6GON6ySquhqh91Fj32bNw92VIpNeJ738O4Tq7aFr0WEq3gXOjWpbcBF/m2TsBwyIZ59XHxBL3/8v9y4SZT+glgOJLHTOU6moTgUK1duDvItFsuFqLBdYX/v0mCSV7gaRe3j0CfUI5eNPf5bQ/AWCa/x8i2N7K0YnvUt4kTRDfCFUvz+yqpn1yGj6StbdRNQuklnIrr7yKSl3E4SrOPfWT9mvv8rnMPCZW3h1dWKroxBT6XzCtcqn53mVwnGYK9S/P/SA0Uk2dwFiKm2md+NZQJl0dynhdn64/Huh5viBzyRjMy8GOQY7nlWlX5QXKbKue3LTi/OF+veHHjAnqlVHNWUd21zF11uZZualhIcwd8Fq9tNP8R97sI3+Fpt5ktFqkG/kpUGBrXq1DmustLPba8TsQPq+VajeFoeQC/KOqv1wXt+5bPZ8+bOzSonNOfc+sCGuszDQpvie+5PbCAQzH/Z68INXj2jKPQ5rYKReXMJaKoy30ABG6H5/RAIFx6KsS9Z+QOwBh5FeP/RFvgPaTpjxEqXzty5cw/s67Ny5f9cY/A5FtLfesYb/rd01Ekk0O8EMeM6Zs7nXgVJBDI5ahzYmHp8wWuFydwaeiFBuClUpp3wvEjTPUlku8KYUkAU+md6eqQrLxb5ECBqthFAb+cprX7H33t/KXcvF//6KLbwb3Wg/4n9j99lkEF4HCmzHTljKWySd0WMi69lpJOvRcQTvoeU2cYwENjvlHsV7XtvqIF4K+/CXsBZrI9R+YGA9URkQyF90P/lGvsaiQZidEGWJmAJsA8QoRo5bxomf8btE1jvIEOWBKCCevWATm3PrZ+6Trjv39s1s3sItrGfnkdYpPA4GBGZ+GhB7yXHoL1R+YGDnEE1Ja6QTWnSDKCWTbSbms3zCkIW726fnZF5SoHKk499E6hsvuzFOqLxsRIKxApohdkjbDwhX1z6Z3SR5dpbP8jmLDPRBF97NB0J2NWeuLvcoMozH8tPyjxAqLxs0gq5QWi6ObMaTPjLNxHyWT2RXr7tuEWtQ8wTH4XLLiDSW1dHyjxHqLh+0rjwiolZSxFTWq9t4bmTZPZhPecIWQzKtRW4P5cNeSylyUt+g4EmounyEMour04D4SjZCCYsXbteVVzxODxF/utvngYnAHmIdbVpewDv/2sk9Xgp97ginF3QQqo4PoYxYO+sicvYDprKmoa5sNI1mmWakPu0JdxazQ9eThvPIrzMXkzwKchCwUVuoOX7oGeYYFfsBvSdRgWy5m7794ISQHzY19TtzFn/RVHpN/JPciNSiM4WKZdDrMF0zF8vaDxi9WVVxdtZM3910gRgMl17yEL3VMe652ck8XlpGpLlI6VimcNWYThboj7L2A2yHyFGF7Prrn/fdTYdErGH4DYtZQ3LfrYosuaX7nxQz/arsowvrChXLIUczesoOBhDTWn7eafwYAFRI2T2oz/KJlwkNXQsanOHYo8jheox9j/PYhXrlQReap2I/wALucuJQNmNu/LuzfP4veexm5id8lzyaq9jJOV5aAcXCndh+KVQrD352VsBYLjsgrMhZPruw/+08jg+DKFm0E2wqEhlT5EGQo6h7hHOPQtgN1wnVqkFPL2hOF5E+OwtJluNqncQ3riAghZGeDGJ6hRDxs52QU4fYBbaRnd9vPn+xVPpT/ZOitsF5F9yIZg5QWS4wmvOqt2ax4/ty4hythLLR2SzWuC/rUDyEDTj3Nn7mJ29TlKIzBryyK694guVULyZbzKlHwb3DV+vUyU8XalUHjaoHVQYEiEEBi7jekc2TRuRNUJnVkozZywajd9X6lFtGMJBvuvk11jirs+MK7kgAy0RsA9pOC5WqQ9dLqpK7uUnFw6hIYiDCGoe/jnOtUimHglYC48krM2lWhd1g93zxEnrTA7GfQ5pZJFTqDHp6rAUZIztl7QevELMTyvbQJxKRUjsFeIkIS8P24fWYDkv5rUKX2O5wINpPqNM5aKoZqJLd9BJrH9aEnVx0hajj9O7SgWVtJtkNvU+dwJc9pxXbWOZ1t/tb0tT7bKotF/syu1pL1rB2e74mYzq2U0bFcyWvRB94wZ3cm3C6pyMXL7FmPJiWNuJQoUp3QBfdZveFqUTEQyDgSy9+0LP5FBS6XHPNs7S8teXRXbvniJdWwspcmlcjGhRqdA+pajv8D8nAxPb8iwbczcvN7BRSkUSNCM4pxa5xlwpdtuQEjPpChe6CRtrP+35pqtGaIQp4ltBrMwQOg8cZ58XN+zs3IoOFMCJ/R92KUJ/7IBviOSsZYn8TqUBE+WBD3HDDK57KuMKjwP10aXe9tcHGYViaV8JnGgOF6hKDsFbYXTUo5RUisGM0PMvKc0j0o0gkcS+Yrfr2ns5dY1c8Cs2cItSWOGAfBrkub3Gr1eZGUoEYEF1OvN4KY9sopyIIj+KSi+7j9+dG6Xw4YDyVtGOfadloSF+8yfriFDMyeei8ORtw3m2eGRCImuL0weNqtROFLjb3HSfF7L0iT2teU6grObA2+JrPIyaBm0g2VWMh8Olzjipi11+P4x8rfkDMmLOWjRn/Li8aclzoYu2e+28kw2gq1JRs4JDWws5kyc6nN++dsBZbRv8mhbQ+rt9XIPEQbyCEP5YfH12x6XB8P2wH9NdyHpbmg2FXJGB2FcqpXCA75jzp/aRECL597DLR/rDiwtYwZpFL6dHxZh4TQfLN7n7jo1XoQoboECGeygcaEPLngZLQEfXD0coVGX/gHgUZkf3PvoXfj9P+10IO84RoKh+y0sxqCMXirdhXOGWx1JW7SqHBmZtE6TzO7MzJLOIxkX3vU4Z8ZgiYL7tS6JKqwBkONMVKnycO4eM8r9Hj3qmwHWPwbG646d/s+Lodubdjd5/xkr8QQXN1vWrRLCGaygmaHXqoeBmw4tu2Gkjrd8UEpHjp/KQPmNGwjyuFLmQ7/BgJmlEhlsoLmh0myy4X4YDBtwCc3nWMdINUN4iuMfAqUIdhlc476+hCg2G3Hoz2ESKp1DiEBsSrsgYlElqg1bEmueVzVun8etar6zir0IXuw+4e46PlUYQ040Yhj8oNrJe0ZGyRXTL4eeL/OpHdPELuPHE3CI8Ce1HgTbjhUdALca8Qh4+cjIJ2NGXKH/BWpQVPaEFBU5NoP8CjuPqqp1lejRJXCl1oqXnL0YFoBxtIMNfK2w/WeaA45mj6LWt4HMBOeW4THgU2JaEXhuPSeXrmiGZ+Vj+zOEeIwgeALJ7KgIBCBpx7q6OOuTJEreaEKctZUdNzXSl0CQcKt4e1gvJ7RFYmNKrZSAvjgHnJkHU2rdv1j2nLm3ElIyDFC11mr2Gd26ILPnkUDsLS8CjIXtqrB6LnCzH4KAXNDgYJ90/ZgBTsh5a5PdlEfkBsYu2H0kKXs06bygNPzju6YDaMThAi8PFPhLTCC1WWC2zna190Oc0OibcfYEQOItcWswLvIGtzP/GSexQB47GStJLDhQh8/BNWC2XJhBYRvv85Z85KeEEMOrqgzgLurUuFLh/WjecoxMqJksPprVshaz8goYXU8lVXPpnQAQHbZPTYd1iLHOc9IsVg+JbuO/4ekZUN2cHCXBKQdEILvn8zvSsbOeathAWkrOt+xEryL3Sl0IWe8c9wMHqyeHQfdggHjTOswSA3IBB/gKKQWEqE/QAjFbNDdxzlTIMBs5HdfcRHlM4XsVAwKt8jsrKBjKtJ8vkLy8M4vcsYvr7bKdQReaHLBnZun9lWoYvjji6oFTVmi0f2cWCUHE7KXSzrYeBthaUve2JwvER7n8sGo0dkoQuFLnz/5SI9TZfvEVnZEEpvWYdmiO9lE1pIJDWoiYTW667v0IKBOnz4YtaoDnpEulDoEjA/wXOKR/ZRFkIZsRMt20HOfkC4urBJPzZxynIePbRTrAp5oQvvEdmbF8jafXe85NsitdgPoXTjwEce+vhfkLt5o+xyAaIgputJw/g6b6dYFfLSeTIk25mDRaGL/XfHQyssbe7WtVY9xaP6iAdWQkvWoLTshwvOWeBahTUGApaKnp1H8ViDU49CDPJrxWP6iAeI1JGxtU72kHlY/Hk1WrNhw17imUc7BcsSmdILzrmVG5CulM5rxkLxmD7iRSTYqoAEuFvWfoAbiISWWz21MctcNeRJllu9NV3blR6Rr9eq1T5DPKaPeBHSjAtlZwcQAam/j5B2FpDCMnETeSpNsk/hiTK774uXfJnQYuvDR8V08Yg+ZBDWzLukDUrN2rLX78yZjius4VFMmLyMFTbu61ZY+qcczSgWj+dDBtaZoOYK2QHBd3hnFllnejkISPEekTTDYKaBR+HEiLQ8CtSCutgjsrIhO6PoeDIof5YNSMF+aJJ1Chs7fqmy/YBlBqXzOI4Zy4Tzji7FdA2Xe0RWNoQzCnqrxB+Qv0BCyzqAXc1+QOn8RQPu4rONG4UutIw9RI90iPVkPpSgktACYVCe0X2C8pZ/eBTXXvscO/aYtiyrihs9Io339cySo8Rj+VCFHjDfkO4BgYBUtXzlpqRIZY8avYS1iJzKK61svyNOitnty4T1iKxM0NNLaqsktDAYcKb4jTfJnykOA5IfhtrifOdh6SA3In/LyUxgj8jKBBoMnUmwe2Gd7yvssoiEFg5nwX5K0E7xdoRHgdmha7uhlnvpMCzNZ7Zg9CLxOD6cIhREQkvefkAqGgktmfMwYHjOmr+e9T1jBjdI3fAoyIicKh7FhxsgwT4hOyAQJ4DLiQNSZOIPyIYOvvh+eqvd6hFpPoUYingUH06Bru2k3M2yBiUSTnnVi3lCK94dWphJhg17mR1Xqz2fHeyuGy9hRJIh/LGeXlBbPIoPNxCpFisgwe6RtR/qHdmCFRzbm42b+EFcLQdxgMqY8UtZq/q9HBe6iMH7fTg92kw8hg+3EMowL5X1LkAUxOAoonjsh9IekSdGL3buUfB7je3Mrqw9IhMNK6GlYj+04IZheRVSpYUuPTqN4EEsJzkKy6NAj0jzSnH7PtxEnbT8dBoQH8ontKLc90dzDuzhtBsInDQroNClf9+5LLuqS4ehZhjzxe37cBu6FjuOBsTvsvYDAlJNsjrzvtFltRxE9HLI5Y+x3KOK+WfsrhUvMRjI1nkJR1eK2/fhNiJarJeK/YAw84nRQXw5OFDLQV7octOr7Ph6ndwpdAmYa3KrtsoWt+4jEdA1c6ZKhhMGZe/u4w/YIQZh7PGTPmBmo7NcK3TRA1FT3LaPBOFQEvgSFfsBoebBg+6z3bKHmgjeI7L4Cm5E2l0jXvKlLBjbHc4oPEPcs49EQa9ihGmG+E42IIV6heNqncRGjHpjP/uhtNCld7fxonRePSyNwYDB6veITBL0dLOjZUxKBqSqtOAJLdQ+7NsyyOoReYfoEelCRxe/R2TyENHM4Sr2Q12yCU7tcBM/neafFVLwKOCG4qxv5DjsPhsvhUexxC+dTyLo7XtOdkAgqASPAQmtfwakcHzSiFFv8mYhTj0Kvg1Ai30W8ntEJg810tQSWrAfjj3mBH6IWWlCa9qc1Wzi1BWsqNl5rngUYc38Vc8w2opb9ZEMYK8CGZR/yQakYD/gDC0MANgPpYehnnLCdY4LXXAvGKB+j8gKALmOg2XzFyCWgw7FQ/jswLvOk91w9unoEem00KV0M67fI7JCQNPynSoDAiVz5/aZw6OQs+dvYpcMvJfbFa6UzgeMx/LT8o8Qt+gjWchL61hFDxifyIas+RkY9O81Vz/N5i38UvSIdOcwVD0QW+b3iKwg0BvdkNZ66ZbFcCWb6d14SHr8pPdZy9zTXCh04V6O3yOyIhFON89RCUghDH2SOZjHH6zDUF0pdNmhpxd0FLfmoyKAVnyy9gPsBMwQZ5EBiaSWO4UuhQzVWuK2fFQEYLSR/fAf2R4QUH5u9WKe8saZ1zzBZfN38ZJHIjW/R2SFA/UE5GFsU6mBCAdjfGC4MRjoHhbhgFhxWz4qCqTUDmFr7d5PUfHQ2TJheRT076rsowvrilvyUZFAzwSVlkFukPeIDMa+z800W4rb8VHR0GmqVslwOqXwanaHNOM0cSs+Khp5acU1w5qxib+pNkpLHK2wNC03Q8Wt+PACQoFYISlot2xAyim5RxEw7hC34cMr0LXYJcleLkS843Wc8Cduw4dXENZiDyRzQOQE6Lu02IZQlWhE3IIPrwCbW0hJnybLwxBh6Z9DmlkkbsGHl6CnFzSndVz6DC0V4jtoQOwJ+T0ivQs08EzW7MA9igxzjPhqH14EuZszZBNaKszlHkX04bS0EYeKr/bhQRwSDprvyBbUylIkrN5DRxrxvT68iLxq0SyaIX5KpP0glqMtfo/IFEBYi3Yni1+65WC8tGae2O8hv0dkakDPiI1KnP0gekRqpt8jMlWga+YziQpI8YGmRaeJr/LhdWQFzRo6re2JWC4sI9J8Ji8tr4r4Oh9eR26gMGYp0N0BwQdDwPw4JyP2L/FVPlIBkYBxtVK5XBlETSX9+1+/R2QKghT3kJsGpRhcu7KrtfJ7RKYaaqBlccBY6d4MIQpdAuYQ8RU+Ugn1MoympMgd+ytWjXym8XtEpi7IfujrVrhaeBSLa9Vq6nd0SVWQIue5EX/g1wiaa+pW93tEpjIOpTd6qdMBAfsjosV+9HtEpjhyg2YeGX9bnRiUvNAlGNujB6N9xGV9pCr0dKOTM+/C7xF5UEHPiJ3pJP5gGZF+j8iDBqTMnqr2Ax9ImvG2X+hyEAFhZVLqH7LLhlXoEvs8O1iYKy7l4+BAyeHoAyGzbCBmQYbkL2HNLBEX8XEwgZTbhbyEuCqlLI+ikIzI6AXi4z4ORoQC5ljYEmUtHfh/+Bu/dL6SQNeiw2gZ+BXLxz9nC/xsGZCx7fTf14o/91EZEA60aqAHzNGk+NXEvfQzuCocNEf4ldKpgrS0/wNizkwJlzoCAAAAAABJRU5ErkJggg==;" vertex="1" parent="xpjgmQdCxlFDzocmX1uN-11">
          <mxGeometry x="100" y="260" width="32" height="49.7" as="geometry" />
        </mxCell>
        <mxCell id="xpjgmQdCxlFDzocmX1uN-68" style="edgeStyle=orthogonalEdgeStyle;rounded=0;orthogonalLoop=1;jettySize=auto;html=1;exitX=1;exitY=0.75;exitDx=0;exitDy=0;entryX=1;entryY=0.435;entryDx=0;entryDy=0;entryPerimeter=0;fontSize=9;labelBackgroundColor=default;" edge="1" parent="xpjgmQdCxlFDzocmX1uN-11" source="xpjgmQdCxlFDzocmX1uN-55" target="xpjgmQdCxlFDzocmX1uN-53">
          <mxGeometry relative="1" as="geometry" />
        </mxCell>
        <mxCell id="xpjgmQdCxlFDzocmX1uN-78" value="Platform event queue usage&lt;br&gt;(Optional)" style="edgeLabel;html=1;align=left;verticalAlign=middle;resizable=0;points=[];fontSize=9;labelBackgroundColor=none;" vertex="1" connectable="0" parent="xpjgmQdCxlFDzocmX1uN-68">
          <mxGeometry x="0.2917" relative="1" as="geometry">
            <mxPoint x="-72" y="8" as="offset" />
          </mxGeometry>
        </mxCell>
        <mxCell id="xpjgmQdCxlFDzocmX1uN-55" value="AOP Managed Package Components" style="swimlane;horizontal=0;labelBackgroundColor=none;fontSize=9;strokeColor=#d6b656;strokeWidth=1;gradientColor=#ffd966;fillColor=#fff2cc;" vertex="1" parent="xpjgmQdCxlFDzocmX1uN-11">
          <mxGeometry x="30" y="44.5" width="200" height="200" as="geometry" />
        </mxCell>
        <mxCell id="xpjgmQdCxlFDzocmX1uN-56" value="Apex Classes" style="rounded=0;whiteSpace=wrap;html=1;labelBackgroundColor=none;fontSize=9;strokeColor=#D6B656;strokeWidth=1;gradientColor=#FFD966;fontStyle=1" vertex="1" parent="xpjgmQdCxlFDzocmX1uN-55">
          <mxGeometry x="46" y="15.5" width="70" height="45.5" as="geometry" />
        </mxCell>
        <mxCell id="xpjgmQdCxlFDzocmX1uN-58" value="Exposed REST APIs" style="rounded=0;whiteSpace=wrap;html=1;labelBackgroundColor=none;fontSize=9;strokeColor=#D6B656;strokeWidth=1;gradientColor=#FFD966;fontStyle=1" vertex="1" parent="xpjgmQdCxlFDzocmX1uN-55">
          <mxGeometry x="46" y="77.25" width="70" height="45.5" as="geometry" />
        </mxCell>
        <mxCell id="xpjgmQdCxlFDzocmX1uN-59" value="Autolaunched Package Flows" style="rounded=0;whiteSpace=wrap;html=1;labelBackgroundColor=none;fontSize=9;strokeColor=#D6B656;strokeWidth=1;gradientColor=#FFD966;fontStyle=1" vertex="1" parent="xpjgmQdCxlFDzocmX1uN-55">
          <mxGeometry x="46" y="145.5" width="70" height="45.5" as="geometry" />
        </mxCell>
        <mxCell id="xpjgmQdCxlFDzocmX1uN-76" value="" style="edgeStyle=orthogonalEdgeStyle;rounded=0;orthogonalLoop=1;jettySize=auto;html=1;fontSize=9;" edge="1" parent="xpjgmQdCxlFDzocmX1uN-11" source="xpjgmQdCxlFDzocmX1uN-71" target="xpjgmQdCxlFDzocmX1uN-75">
          <mxGeometry relative="1" as="geometry" />
        </mxCell>
        <mxCell id="xpjgmQdCxlFDzocmX1uN-71" value="Order/Order Item record" style="rounded=0;whiteSpace=wrap;html=1;labelBackgroundColor=none;fontSize=9;strokeColor=#6c8ebf;strokeWidth=1;gradientColor=#7ea6e0;fillColor=#dae8fc;fontStyle=1" vertex="1" parent="xpjgmQdCxlFDzocmX1uN-11">
          <mxGeometry x="80" y="380" width="60" height="40" as="geometry" />
        </mxCell>
        <mxCell id="xpjgmQdCxlFDzocmX1uN-77" style="edgeStyle=orthogonalEdgeStyle;rounded=0;orthogonalLoop=1;jettySize=auto;html=1;entryX=1;entryY=1;entryDx=0;entryDy=0;fontSize=9;" edge="1" parent="xpjgmQdCxlFDzocmX1uN-11" source="xpjgmQdCxlFDzocmX1uN-75" target="xpjgmQdCxlFDzocmX1uN-55">
          <mxGeometry relative="1" as="geometry" />
        </mxCell>
        <mxCell id="xpjgmQdCxlFDzocmX1uN-75" value="AOP Managed Package Objects" style="rounded=1;whiteSpace=wrap;html=1;labelBackgroundColor=none;fontSize=9;strokeColor=#D6B656;strokeWidth=1;gradientColor=#FFD966;fontStyle=1" vertex="1" parent="xpjgmQdCxlFDzocmX1uN-11">
          <mxGeometry x="220" y="370" width="120" height="60" as="geometry" />
        </mxCell>
        <mxCell id="xpjgmQdCxlFDzocmX1uN-12" value="AOP Worker Instance" style="swimlane;fillColor=#e6d0de;gradientColor=#d5739d;strokeColor=#996185;fontSize=11;" vertex="1" parent="1">
          <mxGeometry x="-370" y="60" width="470" height="330" as="geometry" />
        </mxCell>
        <mxCell id="xpjgmQdCxlFDzocmX1uN-13" value="AOP Worker Web Dyno - &#xa;API Layer" style="shape=image;verticalLabelPosition=bottom;labelBackgroundColor=none;verticalAlign=top;aspect=fixed;imageAspect=0;image=data:image/png,iVBORw0KGgoAAAANSUhEUgAAAPgAAAD4CAYAAADB0SsLAAAAAXNSR0IArs4c6QAAAARnQU1BAACxjwv8YQUAAAAJcEhZcwAAFxEAABcRAcom8z8AABK3SURBVHhe7Z17cFfVncDZ2Zn+0Z3Zui0khN2SEOh0+pjdme20zLTbdVwIAR9tp7vu/udsp/JKIDxEEAqCiKAFlIevWm1rLYq1oEUQDSE8AyGBgGB5BAKCEML7FQiQwNn7PTkpZ/GqB34/yT3n9/nMfAZF+N3fvd5P7vvcDgAAAAAAAAAAAAAAAAAAAAAAAAAAAAAAAAAAAAAAAAAAAAAAAAAAAAAAAAAAAACZQo8v9/37bp37fjcvu6AnYlje2bNH576dzKqeOeTk3N4xinp2fnbfVXnZhQ35nfsqxPDsp7pl9znZLbuwOlrXX+6eXfgtk0C45Gb1+Uk08/t65Nyjune+Uy+IaAHIgkAMTlm/u0eh98i5W0UbtcZo/R9uUgiP3OzeP5MZlRmOWxiIISuxf63Lj1ReVsEEk0Q45Of07hrtppw2uy2IGWnrrnvfq9E/f8+kEQR/k5fV50W9mxIz04iZZPecu6JfC9aZNvznOzl3fzEK/Fjr8Xb8TCNmjoWqW1afpq9/tXcXk4jfyNnDbtl9m+NnFjHTLIy24neqvJzehSYRv8nr1Ou+1t2SuJlFzDzlcDU3q2CkScRv8rN6P8zxN+I1pYe8rN7DTCJ+0y27YCyBI16TwBEDlsARA5bAEQOWwBEDlsD/aqH66lfuUF1u+6H6R8QE+U9fvj1mfXWTwI25nXqpf/3Gfer2niPUD79bgpgI/73ncNXzXwZEkRbErrefJYEbu9z2A/U/P31aPfrINjV+bCViInzk4Ro1qP8Cldux101FTuDGLrf9m/qvHz2lJoyrUqMfWImYCH/x0Dp1//++RuACgWNoErgFgWNoErgFgWNoErgFgWNoErgFgWNoErgFgWNoErgFgWNoErgFgWNoErgFgWNoErgFgWNoErgFgWNoErgFgWNoErhFyIGPGbVSPTCsXJUUl6XFEUPL9WfGTcsHHxy5Mna+btYHR66InU57S+AWIQcuK+FvX9qmtv/leFpcuqRODR+6PHZaSXfUiBXRir9a1WxqiJ23G3XH9hNq2pRKNTL6ARo3vfaUwC1CDrxo4DK1+O06lS527jihhgwui51W0pUfdk/P2WTmJHVaWq6oiePXEnjSCTnw4kHL1Ftv7jarZOpsff+oGlrkZ+D6h92iPWZOUmfPnlN6b0Z2++Om154SuAWBu+Nz4MOHLFe7a0+ZOUmd1as+0ss3blrtLYFbELg7vgY+ctgK9cjDFaqpqdnMSerMf3UHgfsAgbvja+BDB5epF19438xFepg1s1oNi/YK4qbX3hK4BYG742vgxdHxd3nZfjMXqXPmzCU1fuxq9cDw5J1gEwncgsDd8TVw2dLurTtt5iJ15DJZkpcDgVsQuDs+Bi4350x9tFJdvnzFzEXqLI/2BooGlsZOLwkSuAWBu+Nj4LJ7/uaCWjMH6eH5Z7bo6+px00uCBG5B4O74Frhco5ZbdT/66KyZg9Q5XN+oz8on9TZVkcAtCNwd3wKXY++nZlSbb58eypZ9mOjdc5HALQjcHd8Cl7vX1qz+yHz71Glpuapm/LJK3zQTN72kSOAWBO6OT4E/MFweLlmjzp69ZL596tTtOR0deyf/YRsCtyBwd3wKXOZd7jZLJ7IsZa8gbnpJksAtCNwdnwJP97XvC03N6pGJFYl8eux6CdyCwN3xJXCJe+b0anX1qvniaWDb1mNqyODkb71FArcgcHd8CXzwgFK1ft0h863TwwvPb/Fm74XALQjcHR8Cl5NgT82sVs3N6btz7YNtx/SNLUl89jtOArcgcHd8CFy+365dJ8w3Tp0rV66qJ6ZuSOyTY3ESuAWBu5P0wGU4qafn1Jhvmx7Wr6vXyzFuekmVwC0I3J0kBy63jsoQSukcteXC+ebo/+0aNaIk+WfObQncgsDdSXLgMq/zXvmL+abp4b1393lx3ft6CdyCwN1JauAyJLJsZeVBkHRx7NgFNVoeVhme3IdKPkkCtyBwd5IYuLyIQS6LLUzzI6HzXtmul1/cNJMugVsQuDtJDFy+z8zpVerSpRbzLVNnY3WD/lxfLotdL4FbELg7SQtcxkSTW0cPpvF5b/ks2S2XZ77jpumDBG5B4O4kLXB5LnvtmoPm26XO+cbLavLECq+uecdJ4BYE7k5SApfj7qLouPuVl9N71vylX2/Vy8znFyyKBG5B4O4kJXAZcGHShAp19uxl881SZ+mSvXr8trjp+SaBWxC4O0kIXC6Jya/19efMt0qdzTVH1LDi5X/9bN8lcAsCdycJgcv17iembVAV0bH3yhUHUlZeiDB+rNyt5vdxty2BWxC4O0kIXI6PZUsr8ya71CkbfY6cNff9uNuWwC0I3J2kHIPjp0vgFgTuDoH7IYFbELg7BO6HBG5B4O4QuB8SuAWBu0PgfkjgFgTuDoH7IYFbELg7BO6HBG5B4O4QuB8SuAWBu0PgfkjgFgTuDoH7IYFbELg7BO6HBG5B4O4QuB8SuAWBu0PgfkjgFgTuDoH7IYFbELg7tzpwGdVU3ljSpjwLbjt0cJl+pa+MoWb/vgzE6OuIqOmQwC0I3J3PI3AJV57HljBLiluDle8tz2rLq4jk2e82H5u8Xj0+tVI9/lhk9OvLv/1AvfqH7Wru7E1q6qPmv0XKcE4SubyrbEj0WW2fEzf9ECVwCwJ3J5XAZYsqkcnWVqKT7yYxy9DH48asVtOmVKrnn92ig5WRVirWHlS7dp7UbysR6yNl7HN522ebNi0t136/sfGyOnjwnKracFjNf22Hmv54lZ6+TFeiDz12ArcgcHduJHCJSO9GR39evoeE/dCDq9TsJzfqiFeUH1DVUYAyDvmJE00fCzadXI0+uqGhUVVV1uuRWGX0FtlDCDV0ArcgcHc+LXDZQsqusExTlF3vqVPW66GIlyyuU9u3H1cnjjeZT2pfZI9g/qs79HeW0GV3Pm6efJXALQjcnesDl2Pnkui4WSKRrfWMX1apNxfWquqqw6r+0DnV3HzF/M1k0ha6DLooJ+xCOTFH4BYE7o4EPqh/aeuxbKSE8ezcGrW8bL/at/e03hX2kbNnLukTdvKDKoQBGAncgsDd2bL5iD4hJu/hlhNYEkZIyMk9OeknY6T7HDmBWxC4O01NzerChWbzb2Gyc8cJNWnCWr3s4papDxK4BYHD9Zw+dVFfsiuKdtnjlmvSJXALAoc45Lr6r3/1vr5WH7dskyyBWxA4fBIXL7boO+RKomPyuOWbVAncgsDh0ziw/6w+sy7GLeMkSuAWBA6fxdo1B/WyjFvGSZTALQgcXPjdb7bp+9jjlnPSJHALAgcX5H55WaY+3L9O4BYEDq688cddXlw6I3ALAgdXjh+7oJdr0rfiBG5B4HAj/CnaistyjVveSZHALQgcboQjDY36kpk8Dhu3zJMggVsQuL/IyC1yx9mtZs6sTXoAi7hlngQJ3ILAk8Wliy3q+PELateuk2pDZb1a+s5eVfruPvW7l7ap557ZrH713BbtrJkb9eOqT0zboP/9uac3693nTRsb9LHy58niRXWqaGBp7DJPggRuQeDth4zwIiO9LCv9UL02b4d6Zm6NmjJ5vR7aqaS4TA/CIGet5TltGWhCfq9Efo2ULajsKo8YWt76ezLwRDS/cq1aHvWU57sPHDhrppRe6upOqxElyxM7QASBWxD4rUHu6/5w3xlVub5ej8n25IxqNXZ0a8itYS7T/zyypDzls9Ty9+Uz5YfAyvID5hukDxk/Tu5Rl8jjpt/eErgFgX9+yJBI69cdUr95cauaPGmdHtZJQhYlvs/7cpNs4WUZyEAO6UaGekrqk2YEbkHg6UO20h9sO6YW/qlWHyO3fQfZvW6vlxFI5LILv3v3KfMt00N1VYOet7hptrcEbkHgqdEWtRxDT55YoWOSY+ZbsYV2dcigsuj4frP5xulhy+b0vwQiXRK4BYHfOHFRyyCMSR1+WH7QyIm3o0fTd3ZdxlmXa+FJ+SFmS+AWBO6GnFjau/e0WvTnPerR6Hhatl5Jjvp6hxYt0+OtpYsTJy7ok4QEnnAI/NORVwa9HUUt15uHDy3Xnykny+Kml2TlhJg8150uZIhoeSWSvOwhbnrtKYFbEPjHka213DAiN5DIFkqOqWVF9vnFADIP8oMqncx4gsATD4Ff4/z5ZlW27EP99k7ZBReTuAt6M0rg7yyuM3OaHgjcAwhcqaNHzqtFb+1Wkyeu03eOJXGlTVUCd5fAjb4HLifN3nh9pxozapUqGlDq5bG1qwTuLoEbfQxcTg7V7jqp3/opK6f8GZ9GDL1ZCdxdAjcmPXDZ3X57UeuJJXmsUk6cPTm9Wt+E0vo2zfDDbpPA3SVwY9IDl5Nkf5y/U1WsPaimTWk9cSYv1gvlNbk3IoG7S+DGpAfeptxplsQV8VZK4O4SuNGHwDNxax0ngbtL4EZftuBI4DcigRsJ3B8J3F0CNxK4PxK4uwRuJHB/JHB3CdxI4P5I4O4SuJHA/ZHA3SVwI4H7I4G7S+BGAvdHAneXwI0E7o8E7i6BG30IXAZs4G42Ar8RCdyY9MDlabGJ49eaMckz58mxOAncXQI3Jj1wGWhwSbRSl5ftV4MHlAYz/NLNSODuErgx6YHLYA5tz4PLgIMSfCYM7hAngbtL4EYfArdHdNlY3aBXSHnBX9yfD1kCd5fAjb4FLmyuORKtlOV6xZS3fcT9vRAlcHcJ3Ohj4MLeutNq4oQKPcJLpkRO4O4SuNHXwIWGw41q0oS1+vVDcX83NAncXQI3+hy4cPrURfXMnBpVNLA09u+HJIG7S+BG3wMXLl1q0a/WHXj/e7GfEYoE7i6BG0MIXJDI57+6Q//5UG+IIXB3CdwYSuBt/Dn6s4P6lwZ5rZzA3SVwY2iBC+8u3adXWl/e++0qgbtL4MYQAxdqNjbot5/IyhvKZTQCd5fAjaEGLry/5Wi0oqxWJcVhRE7g7hK4MeTAhcP1jerhX6zV7zGL+3yfJHB3CdwYeuDC4cON6rHJ69UQzyMncHcJ3JgJgQtNF5pbb4gZ4O9dbwTuLoEbMyVwQa6VPzt3cxR5qZcjxBC4uwRuzKTAhStXrqqFC2q9jJzA3SVwY6YF3sY7i/eaYaDip5tECdxdAjdmauDyJNqYUau8GgKKwN0lcGMmBl5Tc0SNe2i1GuHZqDAE7i6BGzMt8KoNh1VJcZleqX27+YXA3SVwYyYF/s6Svfr2VV/vUSdwdwncmCmBL3hjl37KzOdhlwncXQI3hh54U1OLmvfKdv05vr8dhcDdJXBjyIFL3HOe2qQG3R/GcE4E7i6BG0MN/OTJJjU7irsoimI0j4t+IgTuAQT+/zl08Fw0P2v0wyUhDalM4O4SuDG0wPfsPqXjLikOb7x0AneXwI0hBb6x6nBwo7jYEri7BG4MJfANlVHcxeGNw2ZL4O4SuDGEwN9aWJsRbx0lcHcJ3Oh74G8uqM2Y94YTuLsEbvQ18IsXW9SLL2zVW27fb2BxlcDdJXCjj4E3NTWrubM2qcH9w38fmS2Bu0vgRt8Crz90Tk2bUun9AIo3I4G7S+BGnwKXuMcHeAOLqwTuLoEbfQj8vaX7VO2uk2r8WLmBJcxr3C7KiLDL3ttn0kwPT06vJvCkE3Lgculr+uNVauzoVXpFzNS4RRmBZu7sTWrJ23Vpc9KEikReXiRwi5ADl6Dl5pVMuAz2WcqykMhlVz1dJnW5ErhFyIFjZkrgFgSOoUngFgSOoUngFgSOoUngFgSOoUngFgSOoUngFgSOoUngFgSOoUngFgSOoUngFgSOoUngFgSOoUngFgSOoUngFqkGfu+PZ6mJ4zeqMQ+uRkyEE8ZVqv4/e53AhVQD/897ZkY/MderUSOWIybCsaPXqJ/fN4/AhVQCl4X39a4/Vt/u/t/qW/n3IiZCWR+/kffT2HXWRQK3zO3US3X9yh2qa0fEhBitj7kd/yN2fXWRwBEDlsARA5bAEQOWwBEDlsARAzaowPOyCsYTOOI1pYfcrN7DTSJ+0z2rz0+659wVO6OImWjrBq/3EJOI33wtq1d+t+zCpsiPzShi5lmo8jv3U/k5BT8wifjNNzvc+4W8rD77ZabiZxgxc8zv3FflZfc507XrXf9gEvGfblmF43rk3BM7w4iZpN49zyp43aQRBv+cXfB30czt5FgcM9n8zndGv/Y93rVjYY5JIxy6drrj+/nZ/Y4TOWai3aO4I1vyOvW6zyQRHrnZhXndsgvLZHe9RxR6dznZEB2TIIZpPyUbtB5d5PC0sLZrpz7fNymETbSb8vP87MI/RD/ZNkUzfij6FTEw9Xq9M/L3+Vn9huV+6fbbzOqfWXwn5+4v5iAGaIcO9/6tWc0BAAAAAAAAAAAAAAAAAAAAAAAAAAAAAAAAAAAAAAAAAAAAAAAAAAAAAAAAAAAAAqJDh/8Dvn0ZNpADabsAAAAASUVORK5CYII=;fontSize=7;strokeWidth=0;fontStyle=1" vertex="1" parent="xpjgmQdCxlFDzocmX1uN-12">
          <mxGeometry x="10" y="125.5" width="64.5" height="64.5" as="geometry" />
        </mxCell>
        <mxCell id="xpjgmQdCxlFDzocmX1uN-14" value="Heroku Postgres DB" style="shape=image;verticalLabelPosition=bottom;labelBackgroundColor=default;verticalAlign=top;aspect=fixed;imageAspect=0;image=data:image/png,iVBORw0KGgoAAAANSUhEUgAAAXAAAAIICAYAAAB3gLUOAAAAAXNSR0IArs4c6QAAIABJREFUeF7sXQd4HNXVPbOruqveLcm99w4YU0wJzbSATe89EEgoAdOCfwIhgQRCCBCI6SaATS+udEOwARv3Kku2ZVm997I7/3ff7OzONm3RVvneL8SSdvbNm/PenLlzqwQWRoARYAQYgahEQIrKWfOkGQFGgBFgBMAEzpuAEWAEGIEoRYAJPEoXjqfNCDACjAATOO8BRoARYASiFAEm8ChdOJ42I8AIMAJM4LwHGAFGgBGIUgSYwKN04XjajAAjwAgwgfMeYAQYAUYgShFgAo/SheNpMwKMACPABM57gBFgBBiBKEWACTxKF46nzQgwAowAEzjvAUaAEWAEohQBJvAoXTieNiPACDACTOC8BxgBRoARiFIEmMCjdOF42owAI8AIMIHzHmAEGAFGIEoRYAKP0oXjaTMCjAAjwATOe4ARYAQYgShFgAk8SheOp80IMAKMABM47wFGgBFgBKIUASbwKF04njYjwAgwAkzgvAcYAUaAEYhSBJjAo3TheNqMACPACDCB8x5gBBgBRiBKEWACj9KF42kzAowAI8AEznuAEWAEGIEoRYAJPEoXjqfNCDACjAATOO8BRoARYASiFAEm8ChdOJ42I8AIMAJM4LwHGAFGgBGIUgSYwKN04XjajAAjwAgwgfMeYAQYAUYgShFgAo/SheNpMwKMACPABM57gBFgBBiBKEWACTxKF46nzQgwAowAEzjvAUaAEWAEohQBJvAoXTieNiPACDACTOC8BxgBRoARiFIEmMCjdOF42owAI8AIMIHzHmAEGAFGIEoRYAKP0oXjaTMCjAAjwATOe4ARYAQYgShFgAk8SheOp80IMAKMABM47wFGgBFgBKIUASbwKF04njYjwAgwAkzgvAcYAUaAEYhSBJjAo3TheNqMACPACDCB8x5gBBgBRiBKEWACj9KF42kzAowAI8AEznuAEWAEGIEoRYAJPEoXjqfNCDACjAATOO8BRoARYASiFAEm8ChdOJ42I8AIMAJM4LwHGAFGgBGIUgSYwKN04XjajAAjwAgwgfMeYAQYAUYgShFgAo/SheNpMwKMACPABM57gBFgBBiBKEWACTxKF46nzQgwAowAEzjvAUaAEWAEohQBJvAoXTieNiPACDACTOC8BxgBRoARiFIEmMCjdOF42owAI8AIMIHzHggLAtNveCG2o74nHoiPAzrjJD1iIZviJJ0U22OOidGZzTFmnawLxOSkHrNs1kk9Jp2uJ86MbrNJ7oYhtstkQrdZ19mFOnQWLb+1C5DkQJyPx2AEQoUAE3iokD4MzjPi0n+mJCJ+sNncM0SSdIUypHzIMDhduiRLMMtG6HSpkOU0yEiChCTxL5Aky7IBEhIAxPYKm+yebx0+MQHogCy3A1ILZLkVktwM6Fogm5sgSQ2Q5WZJJ5nM2hPSL5JkhiyXy2YcNMnmA/F6/b5t46ursHCh3aGHwfLyJUYgAkzgEbgoETul+Uv042Prj5OAkyFLcyCZRzjMlTRmIt1YGVIMIMdAhg7wUrEVhynHevUN7wlcmWYvx2uvwzoD2yR6AHQDsuVfXY92hhLkZlmWv5Vl+UuTrPu66P3bDkbsGvLE+hUCTOD9ajl9v5jx859NikmMze/pkQskSdV4zUZZ0h0ryTgewFTSQ60jOzGrM9Xa/UVDyh5nF7kE7mHqst0TR3v9MnBIAv4ny/LXkg57JVkymySzrDPr63VyT1luXWP1118vpAcDCyPgMwJM4D5DFr1fECYOKf5EyDhZlqRkuhJJRhqAEZAwHDLiiYl61X6ZwF1sAPcEbn+wFTwZkCoBuUgy4yB0Updslk3QybtMsm5V0Xu3/RK9u4xnHkoEmMBDiXaIzzX20v8cpQf+AEk+QwLiLKenNe9Vo2YCtxhxvLLjOB/rlWXe5UHkRBUPUPXfFkmWnozVm57ZtvSOuhBvHz5dFCDABB4Fi+RuihTJ0dOhnwqzeYhZpyOb83DJjPkyMNGN5uc8lAuNmgk8XASuLI9LL4DC6m2SjG/MOvkTSdY16iRTj9ksbUnJNhStf/HG7ijeyjx1PxFgAvcTuHB9bfyli2brdbgSkAtkIFYCxgDIB6BX734PVmkP3M4mFBdOTA/L7bMJpVcvrTsCd5yEDJgkYA8glwJStyTJ22Xg+d3v3V4crv3J5w0tAkzgocXby7PJ0vQbXkzsMOkT9B2ywazDTTrgHojIDlXc6Mn2XGI5uBedOpI0cKF++hCF0guaLknY/yiUiCRwd3vB4gsukyXpz/F689vNbZ2yLjuvfd+rV3d4uQH5sChBgAk8QhaKzCHd7ZgG6I6UAIMsSScDOEnzTu0w08glcMHDkiQM7eL/Pewy2zH0E70B2L7jzfd7W0JZQ9qy2RK6rT4k6F8HUldRVUjQ8hiwHKcdy+k1RrMc/tvAlVG91cA9ELh2iu0ysFqC+QtA6pJN8rqij+9kR2mE3Pt9mQYTeF/Q6+t3Fy7UTSgZeLJOlv9PkqU4SMgl04jtJu5NgQ4vgUuSDpKO8lyIbF1vI+Wv3m0xGkKv1yMuTo+YmBjExOihj9EjRq9DjF4PnU4HnV6CXqeHpFMeDmJ0naS4/DRkazKZYZbNMJtl0M89JhNMPWb09PSgu9uE7m76twdmldB7ezTKqknJ+dWGVoAeCrLZpIxl9vT24BXLB4PANVco01OsDJAqALneDNNf937why/7upX5++FBwLu7Kzxz629nlcZc8VpGnLknC5I8CpLuKQnycCdNzhVnu+TqIBG4446QdII8BVFrRK+nv0sQ/woSt7+S+NhYGI2JMBgSYDTEw2CIR1xcrNM4kbrIRMitbR1oa+9EW2sHWlvb0dxKyZz2uNPvZrNJPCjMPfTgsGntNIbZpBC89VmmPhAsZO/q+oOggWsJ3DXkZmyWJPkOnYTSno7Y+qLlt1VH6trwvGwIMIEHeTdMueqVNNlkvkjWyYUSdLMBeY77QGsbOdjRRDAInEwcwsyh2QKWvwnNluIO44iEE2BMTEBsLPlILTq1TkJCfCwSEuLEf/FxvWe8BxnisA5PxN3R2YWO9k60d3QKDV8VegPo6OhUHgRtHeghMicCN5mE5k6iWGdkQfLWtwjlE3fPdhfX6/BQcfF125fcP/gtx9CjZZ0M6XNJlis64vD2QQ5hDOse6+3kTOBBWhqKFomJkZ4BkAUgB6AkGYu4NZIGj8AlMkHoNLWhVI1aBhLi45CVlYKcrDTEJyjh4sJ+TRq2Tie0bEcNPEiw9bthTRYtnIheNcaQVt7Q2Iqqqjo01LeAjrGz1ctmmHp6YDJpEjR78UM7kr3FiekGS48Ernl0yF2AXAVIDSbgryVTmv/LNWAia4sygQdgPebPX6LfY2wdBknOhhmXAbiOQvyUoV3cMMEicNKgLaZaImz6jzTn+PhYQcQkpDFnZiYjMy0FsbGaoJYA4MBD+I8AETiZaapqGlBf1wxZJsIHurq6hRbf3dkNs8kkXo2Exm7ngA2oBq4lcOcLkvGVLMlPAKiSOuO2Fi2/rdP/q+Zv9hUBJvA+IDhr/pOJbcbU6yDrJkuyfAwkaRTFX9jTdvAIXHEg6qxGEHICpqQYkJ6ebCXnxIQ4JCclMln3YZ3D+dWW1na0NLcJRywxa3NLO2pqGtDW1i7sL7S7zKYehdy1L3heKAl21+XSv9qrtt4EyJ/IMkoSOnVPbVvJmaLh2CdM4P6gvnChbsq+QW9Dlk+HTkqAGU6qrBtjiFul3PEDdzZw4VDUmEIyM1IwZHAujAaqvqpEhZBzkaV/IqA4TUX8i7jAQ4dqse9ABTo7OsVfTD3d6O4iy4e76/fJhOJ6EPsh6FWhXZbkYrNsml/y8T27+ifykXlVfKd7sy7zl+gnJbVM1skSRY38HpCPdqe92GlB4hf/NXDV7hwXG4ukJIMSWqeXMCAvA2mpSWyX9mbtDqNjurq7UVFRi/p6KnNOJpk2NDY2iz1IpK84TgNO4BqExRtBoyTLfzUDm3Xd8WuKlt/WdBgtQcgvlQncA+STr3j5TJ1OuloGpgMY7FKF7pWjfSNwoV1LElKTjcgfkCFioeNiYmAkM0iMki3Pwgh4QoA09fb2TpAJhn6ur29CWVk1uru7Yerudo6B992E4mIKdmUYemRIX0LC+uKG5j+CS+Z6WjK/PmcCd4JNlsbPXxobG996PPR4BxLSnZH1HOLliwlFRHnodcjKSMHokQOFps3CCAQLgaqqeuzecwDt7R3obFcIXquY97p33bxUqoqNS/1eCYv53NQjX76vra2GyTxwK8sErsFy0tUvH6mnTjPAgzJgdA9z3wicnI2pKUYkJsaL//IHZB5W2jW9zqvZkRRCRyF2IhGGQu7MssiiDJZQ3Dv5CMiXQA9Ois7R0b8i4/PwC5msq2tCZWUduro6QT+3tbbDZHWIeja32K+Tm0Jo2mFkeZksSf/Vdcet4mShvu9yJnAAU659dTZM8r2ShEkABloKMveCru8ETvZscjgOLMwRZGFIjO9XkSGkxHV2dqG1jRJXKKmlA52drhvNCJJWydpC2IqNlsjbEiLX973tdgQicNXZqxOZpjZSV7JOnb9KRE8hmAZDnHAYU3YpPYj7i5AWTslGtIYNDS0oLj6I9jbSzl08THtxkLrXwDVISXI3ZGwG5N0mXdvN+z5c2NBfcAz1dRy2BD5r/pLEjuTmdED/MWSyb9sbAd3uUbFCngmcWIBisGNiYzBqeIEg72gSJQHFXhsm0qUElMbGNjQ0taKrizuBqWtKD4QkYwLSUo1ITTUKgrd+pmr9atmBKNkIVC+mqKgUZWWV6O7qFvZzV9vfdjleaOAuB5AfNPVgUWZlau369VzX3JftcVgS+NRrXr0WsnwiIM2DtVNNYAjcYExAZnqyyGgckJsR8Vp2d48JrVTro63DEp4GoR2TFt3S2oGOji5f9hMf6wIB0vCpJAERPGW9qkIlCIzGePE2FtGZrhRa0tSC8vJqYTevKK8RhO4s/hK4GKlBAl41SfL7JR/dvYY3kncIHFYEPunq14/Uwfw3CfJMQLKpSI5agcua2lpA7TVwsqsOGJCBwvxsxFDmY4QWberpMaGmrglV1Y3Wmh1kb6a/9/TYp3N7t334qL4gQOYaiiyKiaEsWaUgWGqyATnZaUhOSohIUidfBZE4EfjGjbvQ3NSigaBPBK7ehVWQsa7HHPP7A59xYwpP+6vfE/j4+UviYhLbh+h18pOyhLnuAfFNA6dCT3GxMcKmTXHZkSBkxySzBhEySXtnFyqrGlDf0GLVriNhnjwH7xGgMgi52WnIykyx1qehfRcpkUpkZtm4YQeaW1oVB6irEr1O9kj3BkolYMWCj4yFOpO8uKi9bT9HrrjeM/2awCde8/KwWOgXyJDPhky1tnsT7wicbJxkz6ZEGrJ1hlsam1qFXVqpe21Gc3O7MIew9E8EqDZ6cnKixewCUKmEjIzksFeEJCI/dKhKpPgf2H/I3vTmL4ErOvkBWZY+1pvi7+ekIOc93S8JnIpLFSW3PwTINwPIdJ9W7MYs4sKEQq+1o0YUikzIcEYfkIa970AV6hqahaaihuH1T7riq/KEANnOKfyR/qXiZIX5mcjNSfP0taB9Tm+BROZNjS34Ye1GUQ/d+f7zUgNXjSrKbCshyU8Xf3zPX9ynkwbtsiJ24H5F4KOveSnZaNZNkfW61yBjqHXn9B5SYn1fs66SrJRSTTImIj4hFmNHDQr5Kytp1NRMQLE5dqKsvE78zsIIeIMA2dezMpORl50ubOtq/XZvvhvIYyora1BcVIrmlja0W98M/SJwdVqbZTN+azC0/bJt6UKtAT6Q046asfoNgU+9+uVsSdK9CEingHpKap/ePhI41cXOzk5DWlqSsHOHSii5pbKyAS1U/L/HhKbmNrsGAaGaB5+nfyFA2jl1REoyJIgchOysVKSmGEJ6kZTKX1/XiO3bijSJQs5TsLOB22vg2oPbIWFFd7v829LV9xwK6YVE2Mn6BYFPveqVOySd7nEA1swKfwicNvnkicPtQr2CvV70yllaVoP9pUoHK/eNc4M9Ex7/cEFASVSi0MZ4jBs9MOT7/eDBCmz6ZadLIveSwNWlMkmy+bG9ny548HBZO8frjGoCn3LVKzMlSXeLJOFKxwvzlsDJnp2ZkWxXkjWYm6GNMhXbO0XGW9mhWnRyMkww4eaxvUCACD09LRm52amieBqFMpKmHmzZuaMY1dV1QjO3aydn98bs+fVZApaaZdOikk/vXRXsOUfa+NFK4NLUa165R5J1v4GEQa5A9YbAhwzKRXqaEk0SzEQKShMvLatGc4uSGMO27Ei7DXg+KgJE3NQAhMIU83PThRkxmELdhsjhuWXzLrS0tCn+Th8J3HJ8vQw8qzclPHI4dQmKOgIff/OSpPiOtj8B0u9721juCJyy4shbP2PaqKDZt0mbIOcjZTPu3HMQnZ2ustaCeVvw2IxA4BDIy0nHkEFKDZ9gauZ7iw5g164SdNndL541cBvhizo66yQDTi1euqAxcAhE7khRReDTr3ntBFmSFgHyME+hga4InLTtwoJskRQRDCGirq1vFsRdXlEXjFPwmIxA2BAwGBIwIDdNiT1PTw7KPKiMw9Yte0S6vmgb5+lGt9PYLZmgMrplWZ4fIxtW9HdtPGoIfNp1r58HM56HJFOHd4/rqiVw0rgnjhsStAqAVDOkZH+l0LTZPBKU+5oHjSAEyLxiSFR6rQ4emBPwEFvR4LmlHSUlB7G3aL/nK7cq6dpUfqmBenaWfHrPFZ4HiN4jIp7AJ17yZnpcgukJWcK1CsyW1fLwZkUfU40JKiw1ZtRAUf85kNLR2Y3m5jbs2XtIZECyMAKHKwIZaUkYNjRPmCQDneJfW1OPTZt2Cju5W3FJ4NajD+lNpilFy++r8az2Rd8KRjSBT716STZ0HW9KwEkALAzsHYFTevHAgizhXQ+UkGZQV98ikhIOVdRba44EanwehxGIZgSIyCkggEyUZGYJlJA/adfOYlD4IdVbcZLeCZwiJn+WId2175O7vwnUnCJlnIglcCpCFZ/SsQdwjDLxTOCjRxaKZIVAagPVNY0oOVAl0oRpQ7EwAoyAMwIUkkgmS0NCPCaMGyyaZQRKKJNz7Q8bLY2aNaN6InBF9a6VYP5ryaf3PhGo+UTCOIFDN2BXI0vTrntjDGR8CmCY28etgwlFzTYjWzd1TgmEkJmEPOIUSUI/szACjIBvCOTnZSAnO1XUQg+UGXPH9r3Yv68MFIIoxAsCtxzXLUv4mzGxfeG2pQv7RaH7iCPwKVe9MkWv170iQ5riequ41sBHDMsXWjeV3+yrUNz2vtIq1Ne3cGW/voLJ32cEAORkpSI7O1X4pAIhdbUN2LB+m4gd95rAKf9UBlW+f33fZwssPrVAzCZ8Y0QUgU+77vWxkoyfABg9lLuxLhq9opHWnR6gjXGgtBoHy2vZvh2+Pcln7qcI0L1KZs3JE4YgMcGhn4of10z1grZt3Y2SvQct33bTUEI7tkossvnTkmX3nuXHaSPqKxFD4DOvemWKWa9/B8Aou7ciJ7hsGjjFdQ8elCv6EPZFOru6RVuxXUVlXDyqL0DydxkBLxEoyM8U2nhqCmVBe/klF4dRYEHx3lJs27IHZrPJc9S4xtwCyP8qMQz/PZZeoHRAiULpA3SBu9rZ17yU3KGL+xaybDWbeNLACwdkifolfXVUUnuxQxW1Is2dC0kFbk15JEbAEwKiMmJmCoYOzu1z79jyQ9X4Zf02dHZ5MG3bETjZz6V3Spbdc5GnuUbq52En8DlzvoppHlHa7U2jdwVEWfQMHDfaZQkUr3Gm0q2bt+4TjXtZGAFGILwIkA9rQG56n7TxpsZmrFu7SbGLuxNHAheUIr9RsmzBlcJCHmUSVgKffNNrBTE9uncB+ShvCJxsaHm56Rg1vMBvmCkMsKa2SYQEqr0j/R6Mv8gIMAIBQ4BaFeblpInqoP5KU1MLNm/aieoqN6UsXBE40C5JeKD40wVP+nvecH0vrAQ+7brX35Zk6QJIsuSJwIm8KW13UGGO309papBQvK8CTc0ukgHCtQJ8XkaAEbAiQO3hcjXFs/yBhko1b9m0E6WlFc5fd03gdFy9LJtP37fsvnX+nDNc3wkbgc+4bvE8GfJS5cKdm1Bq32XIyUHxpCP91Lwp8aa2rgk795SFC2c+LyPACPiAALWAmzJxGOLi/OuI1dnRhR/XbUJNTb39Wd0TOJlSOhBjHlLy8f2VPkw1rIeGhcCnXrv4JJ0kU6JOgjcETinxw4cO8Auo9o4uUa+EOrezMAKMQHQhMHJ4vnB0+hOs0Nrahp/WbUF9vaaybG8ErkDznbnHdMH+lfeXRwNSISfwqde8lS/pepZKwNE2gNxr4NRlm8jbn4YLdXXNKCop5yzKaNiJPEdGwAUCZDqlLE7Sxv2RluZW/PC/X2yOTQ8ELgNmWZYW7F92T1Sk3IeBwF+/Vqejmt5acU3gFCc6cfwQn9eNMikPlFah9FAthwb6jB5/gRGIPATINj59ygi/Mq3LDlZiw/qtStCCZw1cHKKTzaOLl923O/KQsJ9RSAl85vWLZ5plmZwEDud1JvCkpERMmTgU1LPSV9ldVIbK6gbIURcU5OuV8vGMwOGDgNEQjxFDB4iKh77Kvn1lIk7cWwIHcACy7sh9y+524Qn19ezBOz6kBD79usW/ALZkHXcmFDKXTJ44DKkpBp+unBJxNm/bj8Ymtnf7BBwfzAhECQKkiVPMOBXI8lW2byvCrh3Flq95ShWEWYK0sOSze/7k63lCeXzICHz69a/dCln3NwAuSgXaNHAi76FDcjGwINsnHCjSpKi4XGjeLIwAI9B/EaAMzmGDc0VOiC++sfb2Dny/Zj2ahYLnkcDpkCp9jDx778f3FkUqmiEh8KlXv5yt18d9JEOe5RoIG4FTNcEZU0f65HUmzXvH7oMiQYeFEWAE+j8CVHN86KAcQeK+CKXc//zjZvT09Lj9mpbaZRmL9y9bcLkv5wjlsSEi8MXjdHp5m/sLsxH4sUeP97lu8OZt+zhMMJS7hs/FCEQAApQfMmn8EFEQyxdZveI7tLS4N7Pa6eayJLf36JIrV/0hIu2yISHw6de9UQqg0BOB5w/IBMV9eivkpCzeV46ycu4A7y1mfBwj0J8QoOYt48cMAjk4vRXqfP/Zx1+6LaVhT+A0qvzNvmX3zvF2/FAeF3QCn3bjf8+STKaPe78oGQlxsZgwbgiMRktujxcoVFU3YFfRIQ4V9AIrPoQR6K8IKHHiQ316cy/as1+k27sSFwReLpvl8/evuO+HSMMw2ARO7dHWScBMTwSel5MO6mXprXR192DtT7u8PZyPYwQYgX6MAPUGmDhusNdX2NDQhP+tWQ+qm+IoLgic4p7vLlkWef00g0rgU695Y7JOh48A9IqsJMmYNH6Y140ZurtN2L7rABqbeikb6fVS8oGMACPQHxAYO0ppZu6tbPxlO0r2knXXXlwROIC1MbLx1KLlt0VUpERQCXz6tYtvhiQ/Q4lNvYGq1wHHzJrgLe6oq2/G9l2loIxLFkaAEWAECAEypYwbMxAJ8d41Na+ra8Sar38E2cS14obAAegHRFpiT9AIfP78JfrilM5HIeEeT9uLeuSlpSZ5Osz6+Q8/7QLV9WZhBBgBRkCLAAVBUGMIb2Xl8jVoa7V/k3dL4LL88L7l9z3k7dihOC5oBD79hhdSZbNhmwR47L5w/Gzvte/yynpRXZCFEWAEGAFHBEj7PmL6SK+BKSk5hI3rt3ipgaN937J7fUsP93om/h0YNAKfde2ijC4pvtbTtDLTk4QH2Vv59ocd3EnHW7D4OEbgMERgwphByMlO8erKKYP700+/RVeHrbWiexMKsK+tMxZfL4yY1/+gEfi0q944VorBt55QnDh2IPK9fOWpqm3Cpm0HOGzQE6j8OSNwGCNA6fW/Os77t/pVX/yE2qoaK2K9ETggX7Nv2X2vRAq8QSPw6dctXgHIp3q60KkTBntN4Ft3HsSBQx6Vek+n5M8ZAUagHyNABH78UaNhSPQuuWftjztQtKfEqhj2TuDSh/uWLfh1pMAXNAKfcf3iHlmWe60FS0VpZk4agjwvKouZzDI2bjuAgxUOLZIiBUmeByPACEQMAqOG5mLsCO+6eBXvr8T3/9uE7i4lJrw3ApeBz/cvu/dXkXKhwSRwmYpM9SaU/jpr6jCkeVE2trm1A/9bvxctbZ2Rgh3PgxFgBCIUgcEFmZgx0bvEnvKqBqz+8id0tCnNzpnAAcy4frFHAs9MM+KYGSOQmOA5brOmvgVf/bCL+h1F6JbhaTECjECkIDC0MBNHTPYuOIIIfMXqH9HepoQT9m5Cwbc99fGnHfzhDoXtwyxh1cDzslJwwpHelY6trG3G6u9d1y4IM4Z8ekaAEYgwBIYNzMLRU70j8LLKBny2ah3aLfHgHgh8U1eP6axDqx5wTuEMAwZBIXBK4ilJ6yIbeK+XVJCbipOOGg293vM0KmqasWLNjjBAxKdkBBiBaENg+KAsHDttmFPzRlfXcbCiAR+vIAJXKsZ6IPCdkll3bsmKeyKiEJNn5vRj5UbcujglrQONngg8PycFp8weg9gYz30vK6qb8Ok32/2YDX+FEWAEDjcERg3JxnEzhnt12aXl9fh45Y9oaWr2SOCyjKIYnfnXez+7f6tXgwf5oKAQ+JSrXkmLiY2t90Tg2RlJOO2YMUgyeLaBl1c34eOvtnMMeJA3BA/PCPQHBEYPzcYJR4zw6lIOHKrHRyt/RlOD0o6xVyemhCK9LJ1XvGyBffqmV2cK/EFhJfAUYzzOOG4McjI810FpbO7AZ2t2oraBKxAGfhvwiIxA/0Jg7LAcnHyUdwS+r6weH6xaj8ZapTEME7iXGrheJ2HucWMwYlCWx91DlQdX/7AH24urPB7LBzACjMDhjcBx04di+jiPZZgESBt3luGL77aSonR3AAAgAElEQVSjvlZJEmQC95LACayzjx+LMcO860D/xdq92LCTC1kd3rcmXz0j0DsCOknCby+ahfh4z741Gum91VtQVFKO+homcIGstzZwOvaMY0Zj6hjv+mAeqGjAW8s3gbIyWRgBRoARcIVAalICbrnwKK/B+cfiNWhpaUF9NRO4zwQ+blgOLviVd4VnyCn62Ctr0N1j8npx+EBGgBE4vBC49aKjkJGS6NVF9/SY8NR/v0dLMxO4FTBfNHCKRLntwiOp55xXsmNfNf67IiIcwF7Nlw9iBBiB0CFAxH37JbO8PuGH3+zAjpIqtDS1sAlFRc1XAj/z2FEYPSjTa9AXfbgeew9yUSuvAeMDGYHDAAFJAs47YSxmeOm8hCzjL6+tQXe3Ga3NLairUUrKshPTBycmaeApyQm4+dfTvN5im/dU4vVlm70+ng9kBBiB/o/AqEGZuPqsyV4lBhIaG3dX4MNvdsJskpnAtdvDVw08KSke5x4zEkMGeNdR2mSS8daqrfh5R3n/35V8hYwAI+AVApefPhHTx3pXQrbHZMZ7X+7Apj2VQuVmDVwDsa8EbjTGY/yQLJx+5FBQMXZvpLKuBX96+TtvDuVjGAFGoJ8jMP+ksTh+qnflYwmKsuomLPp4I1rbu5jAHfeGPwROBa0uOmEMBuV618uOztnR2YM7//k5hxX285uTL48R6A2BCcOzcdOvpyFGr/MaqK827Mcna3Yrx5MG3tKCumq2gQs8/CFw+t70UbmYO2uY14tAxQ6/Xr8fS7/cgc5uDi30Gjg+kBHoJwikpyTg5vOmY1hBmtdXVF3fhodfXmN3vDChMIErmPhL4BJkXDd3Egb6qIW/8ukmrN3GGZpe72A+kBHoJwg8cuPxPvEFXfaTb61FUakSxaZGnDCBazZEXwjcmBCLOy+YiYQ479Jg1dM+9NIaFB1s4GqF/eTG5MtgBHpDwJAQi8duOh7ZaQafgFqxrhgffLtLRJ4wgbuBri8ETj7MWePzceas4YjReefQpGm0d/Xg+Q9+wY/by0GFr1gYAUagfyKQlBiH2y+agYle1lBSUWho6cQ/lvyI/RVNVtWbNXAXe6QvBE7Dxcfq8bt50zAgw+jTDmxt78a/P9yI7zYf9Ol7fDAjwAhEDwLP33UKcjONXmdvq1f2x0VrUHxIqfktbCcSGW3pZ0scONvAFWz6SuBUTYzkj1cchcyUBJ931uKV2/HZD3vR0t7t83f5C4wAIxCZCOSkG7DwmtkYmJPs0wSpEfpHa/ZgyZc7NVmWCseoBK6k0nMUSp8JnGDNSkuEyWRGqiEe1585ERk+kjgF6a/bXoG/vfUj2jt7fFpsPpgRYAQiD4Ejxw3AZaeMw8iB6T5P7pfdlXh66Xqh0GmNq1QcTyFwJZGHCdwCbZ81cJ2EOZMK0dHVA0NiDOYdO9KnGE/LWxFa2rtwyf99JuzjLIwAIxCdCNx87hTMPXqYMK36Ko0tnbjx76vQ2WUSZK30WZct/6oaOBO4Ha59JXAaLD5Gh1NmDEZLRzemj8zBuCGZ0Png1FQnVNPQjleWbcWytcXWRfN1E/DxjAAjEHoECrOTcO6xIzHvhFF+nZwK3t3xzJcwW6zlCoFbok8sqjhr4C6gDQSBkyllYHYyjhibK+AfNTAdYwdlQPLZdQGQSeWrXw7gmfd/QW1jh1+bgb/ECDACoUPgrNnDMX/OKAzP9z5BRzu7Hftr8NjiH1BV3w6ZfGqyfZVBC4+zCcXVkgaEwC2OzIlDMzFmYDpiY3SYPioHBZmeGyC722ZtHT246/lvsH5XZeh2Ip+JEWAEfELgrotmCPL2V6hj13n3vYvWjh5A0nkkcFIQ2YmpQbuvBK4taBWrlzB7fD7ys4xIS07AiPxUEV5IDZH9lddXbsfqn/Zj5wGlCzULI8AIhBeBxPgYzBidh4eunoVUY5zfk9laXI27n/tSlNYQWnavBK5yiMwErkXcVwJPMlKooM0/TMq3pBqnJCApIRanHjEEFEZEMiDDgKF5KYiL8d2poc7zUE0Llq0twQsfc11xv+8W/iIjEAAEBmQasfDqWRgzKAOUYemvbCupwcOvfIeaxjYxhGsCt4QPOnRtaG3ihg5W3H0h8JzMZBgN8ZbvKqgSxNYoTSJzIu3MJJw1exgoRpx+T06MxaRhWT5HpzhujrqmDtz57DdCGydbOQsjwAiEBoFkQxwuOXkMrpk7QdzX/grdt5Sgc8vfVwrStgQH2hM41KQd5Sx0nO2MigbOHXksK+Afgct27klHAjcmxmHmuDyMLkiHsJ5IsiDvcYMykJ7ke7KPdrPQY+Pdr3Zj/e5KfPVLKafi+3sn8fcYAS8QyM0w4OgJ+bj+zEnITvOu+bC7YSlM8K3Pt+HD7/bA1GN2SeDCjGJN2lGIW3ViCjKHbGlqzIk8AmffCDzJqoFrn8F2BC4BROCDB6QgP9OIkQPSVBsL4vQ6DMlLwYAM/52b6uYgJ+fu0jrc9fy3oI3BwggwAoFF4Nq5E3D6UUNRmJUEvQ/1u13NgpyVNz2xHAermtBD9Y/ofy40cCJwhahtllprFIqFzZWu9EzgASdwC/agAjaDBijNHkYVpCEv3UClDKxae6ohDuMGZ4lolUDI/7YewtNLN2B/ZRM3jAgEoDzGYYsAadlUeIqiS/qqcROIZDLZVFSJvy7+AVSgSkvOrghcctDA7bIxLfYUJnDN9uyTBq4hZXpmqqYxLYEnxOoxqjAN6UnxdmaXlMQ4FGQnIzu1b69l6qVQOv/Sr3djx/46fL7+ALq4acRhS0J84b4jkJtuwBlHDcVpRw7FsHzv+t16OktbRzdeXb4ZK9ftRQdlVzok5HgicK3pxEb8bEKxw91vArfYULTOBVcETp/HxkiYOSoHsXpbJAr9nVqzpRrjMW5Qptf9NT1tGkrDrW/pwHMfbMLydSWeDufPGYHDGgFyTv79luNF0SmqY9QXB6UWyJ93luPFjzbgQFWTjbi9IHDVBm5Rtu3WxlbMqhn1NbU2bV49Smt3IQuMhCK9LJ1XvGzBlkhYZP9dv73M3mcCNypRKOpkvCFwSZLFxpg6PBvUBML6fYsGb4iPwdABaYLMA7WB6By1TR14asl6YVrZW9aA7h6OXImEjcxzCC8C6ckJoNR3SsAhG3cg5VBNM9bvKsfzH6y32LhtTkhvNHDodE6Eb+VnywAtTUzg1jULFIGr2jcRujEx1moDF0EoSqA4iKjHDcyEISFGeQBYTTDK57npRuHgJBNMIIUqm63ZdBAb9lThwzVFgRyax2IEogaBwbkpuPhkakaejKkjc/oc1ut44SvW7sX73+4UjkpVg7YVpdIQufjQjRPTicBtefWqPZwzMTXIB4LAlWxMW1y4OwIXZhOdhKPG5EGv0zkROH1OGnhuRhKGUfRKgIU84Z1dPfjk+714aukGdngGGF8eLjIRID/Ts3echPysJL+qBHq6qtrGNtz0xDKRUanNz1Bs3H5q4Gr5WAvZK/8o7/uKBs5RKAKMvhC4SNNx0KJ708AVbRziyT9hcCbI/mYNQdSYZYS2nhCLgqxkZKUY/Kps6GnT0ecbdlfivW+KUFnXiq0lNUzo3oDGx0Q8ApkpiRg/NFOYSa48bbzPNfq9vcAd+2qwYXc5lnyx3XrvUEMGVfwicE0xK+tI4gdLcg+A1qZmTuRRQfaVwJVUek1mlCsCN8RiUJ4SRqg1oagETn9PjNNjZEE60oRN3aa9q/NSTTKU+EMbMie977Hj7jZmfXMHNu+tEf33Fn22hRtLeHsH83ERhQAl3JxzzHBkpSZiwrCsgPqTtBfa2NKBd77YjjWb9oscDJWo6Zi+ETiRic5ajdCaLqg6Py1x4JxKr1kNnwg8KxlJllR6q/NSQ+BqYStjYoxHAqfnKZH06MIMseEEuWvmpbWp05+plMrUkQXCBKMtoBWMO6imsR0Pv7YWG3ZVCs2C0/aDgTKP2RcE6P6gqC6yRC649EjMnRVYZ6SruVEQwNIvtuGdL7fZZ0dqyr8GhsAVbdtOA1eqzCo9MTmV3rY8gSNwxTxC4guBEyFTxcJBOSnQa2osOBI4pePT8OnJichINiAz1RA0DUNFx2yWhePzi/UH0NTaiZ92VoK0dRZGIFwIjB+SieEFachKTcC8OaMDkmzj6VqKD9VjW3EVPv1+tzA3au3aFk61km3fCJz8YjYNXJ2XSuRM4C5Wqk8EbpfI4x+BK45LIIkKXg3Nsc7QHYELs4xEBbLikZVqRHZ6kh9tIzxtWefPKTGopLxR1C3+cUc5lny1G81tXb4PxN9gBHxEgBqkkC2b3lQLsoyi0mew30JpiuSUfPbdH7G7tEYQt5as7eqTBEwDtxC4Yyq9BS8m8EASuFMij/8ErronyKk5ujBTeMp7I3BB4pZroeOG5Wcg1ZiI2D6UrPXxnhKHk3nl9ZXb8Mn3xWKzE6F3dPbYNWP1Z1z+zuGJAEVgpRjjxP7PTk/EXRfOFM7IUEpndw/qGtvx8qe/YMOucste1vSldIgsCYoGzgTu/ZL7poGnIMmayOPe8eiLCUWxfVvGokJYCbHISzMiz9LNx2Zrd1UBUX1oyKLeeE56MhLjY5GWlBgSDUWLMtkHv9tSJkrdEolvLKrGzv11dk4d71eFjzxcEKDciNkTC0SIX2K8HidOG4QhealWBSZUODS2dmDt1oPYXlKF7zeXWotJKXdmZBC4+grA5WQ1uyJQBK7VmKk7vacoFNWJ6UjgaqRKXoYRQ3LTbHZuiw1cnbpWA9dGsVB8eWysHrlpScjJUCJhQi1kO6d0/qbWLqGZf7PxIF5bsY0zQUO9EBF6PqqNf+kp40RlTionkZ1mEElu4ZCahjb86911qGtqQ3VDm3DYW6NKrKaRMBI4OS/tKlpxPXC7fdJnAne0g1MMdx8JXC2MlWqIx9C8dJG5aYs3V6bvjsCtBK82l8hKRXqyAbExMQHPPPPnhjtY3Yz3vy3CTzsqRNftts4e1Da2i39Z+gcCZJ9OT44X8dfkmM9MTRRRIifPGBx0x7snBGnPVdW3oqWtEy98+BP2VzRav0JVXoW+rRJ3uAncMjNB4BoSp0QebuhgAccfAldKw9oQtQv/CyCBq5mZFKGSnW5ErKYmsTcEru5McpImGxKEeSU92QhjotpVyNN2D/7n5BzaXFyD6vo20A1UUdeKn3dVitotLNGBAPluJg3PxoShmaB+kRRZNWZwBsYNyexTK8FAXn1bZzfWbNyHitoWbNhVhioX0SSRQOCO5WTVB4oWi5bmZtRxPXAFEl8IPDfb2Qau1YbVnymVfmBeslVTVmuhaBN5ejOhqBq4GhuuZG9KmDJigFWL9oXArTZ2kcqvg6STkJ+Viqy08JhYersx6RWWbOhdlsJbnT0mfPr9Xnz6v2IcqlUiAVjCi8Dsifk4++jhmDwiW/hadDpJOB7j4/Rh17AdkSHTyFNvfS/MI0TiPWJfKSYRx3DAiCBwF8WslH6ZtisTGjgTeOAJXMU40AQuHgyioiEVvEoSWZmGeEtVQ3FS9w5V5aHi8LnG7JNipCxPskXqkBAfF3E3oCuqomgX0tLXbS9HWXWLLcGhoxt1zZ0iVr2dTTJeszwpCGlJCYrZIznB2n2GNOlpo3Jw1PgBGD0ww+vxwnkgETZp2VX1LVjy+RY0tXVaMxtt2mwEE7iloYNW89aawOnvTOCaHdZXDVxpW6yQaLAJXB2fvPXpSYnITU9GgnD++E/gKrkTgScbEoWGn56SBGNi33p3huMmprRmMsFU1LWhpd0Wo95tMqPkUJOIY6f/qoS5xvG2CMeMQ3fOhLgYDM5NxtD8VAwdkCoch6Jfq1AOJOSkGZCXYUBepjEifCW+IEOhf1+vL8aBygaU1zSj5FCdCHF1tmWrDsHIJHAyn9jVA1eZhZ2Y7reD3wRuAdWWPKmkxtM9YSATSm7gTCiqBm4zmygPi8G56cjLpPP0ncCVc9hwoh+JxAfmZSEuVtH2o1kUvrb0AHfB3UWHGrBrfx2KyhrEf8WHGkElBSJdyC8yKC9ZZCeOzE/DiMJ0jB3ipnm22J9UiiHSr8rz/MgZuX5nGd5YtgEt7Z2iubda7d5ad9vJGRklBG5ZH0fnpZrIw2GEfdHAHWqh2HpdytZIkf5C4ILULQ+HtJQkoaGTlmBIjBdRLYe7UIhkS1uXyE4l+yrZ7ju6etDZYxYt7ei/HhNpe/TgkGEyKU8OestR/42N1SFOr0dMjA4JcXrhBEyMixHVKCknINkQG/KY/khbV/KLlFY2oLq+BVRI6quf96KyvkVMU21Lpi0oFdUETjZwRdewDx+0JvdwGKHd/vRZA7cQuPr6qZCcBfF+poFrCVwNY6RrTYiPR0yMHjF6PTLTUsTvLIxAIBGgh9/PO0qxcXeZeBCSaYTs21Zys5ysPxK4IG9NHXEVV6sG3tzCTkwVFH8IXNth/nAjcBU3qzmHtpqIktEjLzsLxkQlC1T9L5A3NY/V/xCgtxMiaJPZLJK+ln2/HT9s2SeiRaxFnDTaaL8mcNHkRVNO1sHUp/7KTkw/TSh5dmGEtkHsNXBJVCMs7Ac2cFcauDsC15pVqaaF0WCAQZA5NXWOET/raIOyHNYIEGFX1jVjf7lScqG1owvrdx5ERa3S/NfaqV1TIEr9u+U91ymqRBioHI63mVcs5giNxh6pYYRSrwSuGjPJhMJhhNabyBcN3C2BW1qq2aJQDm8Ct5K5JeGJYs9jYmJFiCLFDCcnJSEpKVlpK8fS7xEor27E95v24kBFg/AFkN+goaXdWlpBay5gAteUkxXx35KtybHFVMsEHkAN3FbWUhtGyAQuIHaTsaqNgqBU65SUFCQnJUOn04uvEcnTz6EoGdrv2TPIF0gaNYXxtXd0Wxt/HKpuwPebirH3YI2IDlFtt3ZEre0V6dA3UnzjsNbAtXneDs2Q6QHIGrhtV/uugdu3VLMLI7QMe7ibUBw1cCezi124on1JAiLt2Ng4xAtHqRLpQpEv9Ht8XDz0eoXkWUKPAJFxbWMLDlbWo7axVcTSk626sq4JB8rr0dzWYedktEaDWOwZTODKmmmjTCyPN6FlS6TAuGroYLlFlH+YwO12fqAJnAidik+FwgY+KDcdA4IYB64o0WrAu0PLNwuK4nMXBb281cBd1ZRxDNOmzU32c2FDtzR9JaI3JBpgNBottvZ+ENwcek52e8b65jbs3leBnfsqUFPfLAiG4qx7uk1o7+pGd49JSYZy7LxuYShHsqYBmMD7QOCSjcWbWQMPkgauhhGGiMALs1NRkJ0atESeSCJwdcVU7cWqyagl962JVZLQ1hMTEpCYkGjV4tXvqw8CnUQPBDLV9F87PBFsd3cPurp70Enx6d3domCY+kymyI+KmkaUVtSK/8guba8124ezaT9TYtttDsJev8cauKI7azVprcPW8plrDVzV0S07WAaYwDV6R580cKrR7aqcbIgIPD8rBYU5ac61TpyyKh0yNTVzttOAHTIxo5HA7YjeRSwtEbZeHyOInUIf6XetrV34jajoFyXXiAQbOlb5Wf1buBTlHpMJHZ1dwt7c1tGJtvZOtLZ3oLWjUxC0+n6uvsHQ8W3tXWhp70Bzawea2zpFuJ7LdmAuNGQn7VpDQEzgtl0QqK70NgK3J227N1ImcPvbz18C16mvNGEkcDKfDMxJF4WuFLK1iX1aPBO4ltgdCUy7I6w3i8rkFlxVFzVhrD1G/ZmIta2jA+3tnWjv6ER7Vxd6ekz2ZgOXoW72mqyjpmafVaiEy5FmTf/JZtLqLD9r08bFzxaLqR3pOieI2OqFOJs4mMDVtQ5NQwcKI3RZTlazQWm9mhubUV9Toz6vNU8S23up+ElCkV6WzitetmBLuJQO7XmDYuT0icBzUpBsVJ2Y7m3DlEpfmJNkJdW+lpMV5KzpyKP+TJUJB+cRgSswMYE77GU32WzuCNxsNsNEhEhdWcwyTLJJqbFhNtsVv9IWSaIzUqo3mSm6u7sVc4X4Vy1dSoRrUY41BK6QozMx2BG4YySGhpS15gv1O+6cY+ptrc6bNfAILWYlSj3r7IpwaSlZrY1CJhQmcMu97guBD8iheuDuCVx9FTcmxKAgBASenZaEoQMOTwI3y2YNuZpgMpmV/4hszZbfzWZBrmaToglbbwat4039mciUSJtInL4jflYyBAWJk8brSMQO2q02QURLxEzgypOUnZgOe9DhTUlo4A4ETm9+2gcu/cIdeTR6fWAIXNF9VU04VASemWrA8PzMqNfA6+rrUN9QZ60p06t26eQM6uXV3yG+WCFwByJ2dCypRO+oITvFKttsKTZicp0RyATOBO5oGlOLVdmHEWoIXOw/S4637WVfPAiFE5NNKMqd2icCp5ofmodBqAk8IzkRwwuzbHWdXcxFMa1Etg2cCVzTh9HVg0JTdc/JXGL3wLFVsWMbuKvelhFeTlbEgZPGbS3OoVHZbQvdzC3VbEznM4EnJdo1b3BN4HoU5AS/HnhaUiJGDmQCd3w1tzrfWAO3C11jG3g0ELhiA9eK1XQnPOiKBl7PLdX80cBTkZRkbwO3I3DLSw8l8hSEoJhVijEeowfmQA1ljlYnJmvgwdTAZXRT4k13l3CyquF/RArVFQdRVXYA1RWlaG6oQ2tTAzra29HT023lj5jYWCQak2EwJCMlIxuZeYXIKRyGlLRMZbeLDEId9LFxiImNFz+7Tu5hG7gvceBOzksFaiZw+2ebryYU9wSuNVOEisCTEuMxdjATOGvgtgdAZ3s79hXtRMXBfWKrm3p6UFF2QPxeW10uHLqBlgRDEnIKhiJ34HBB9hQKlzVgMPKHjoU+JpZroWic33aOdAcnpqgFRD0xtc5xzWIxgbvYub6ZUDQELltcDNY4cJudOVQETl1bxg3Jg6XBS9SGEfZHDbyzswMVhw6hsb4WTY1NaG9rFURGN2l8QiISDUYkpaQgNT0TKanpIrnIGinjIuzQWqXPag+3ZUHu2bEJ3638BA31NTCZTGhpakB7q9KxJiwiSSBSNyanQaePwaBRk3HUr+YLLd0+m9Nm4nWMdz8ci1lZCdziH3cypbAG7ryd/SJwWYY1ATuMBE7tt8YPJQK3RMGE0YnZ3tqK+vp6tLa2WsMzWltasGP7dpQUF+PQoTLU1tahra0NXZ2dYqbi9TwhAcYkA1JSkjEgfwAGDixE4cBC0btRfSTGJ8SLmidGY5I1zMqmyYQ+CoXS0+tqa9DZ3oHOrk7s2LoZ6777FmWl+wPGl7n5hRg1bhJGjZ+K9Kxs5f1ZJwmNtrurCweK9+Dzj99BQ52S0BENEhufgMmzT8fIybMRl2CAMSVTWU+uRmhfzMoDgXM1Qs1u95XAk41K+zD7intWOhFp2YZ4soEHP5EnPjYGE4eHh8C7urrw7VdfYsumjeIGLC8rw9atW3CorEwkvgRSsrKyUDioEIMGDRKkTyfML8jH1GnTkJWd5Vwz2Rrbrak/YX0t9S+MkK73l59/QknRHvGQ2rpxA2prqgN5mR7H0sfEINGYhJbGBo/HRvoBadn5QjPPyh+K0dOOV6rwaaNtDstyspZqhE4EbsmqtdAME7jfBK7NxLQMoq0rYmH1UBF4bIwOk4fnQ68PjQZOasJbi1/HSy+8IJJlWlpa0dERns7tsaS9JyZCH6NHXGwcZh0zGxdfdiniqD9nAAm8srwc//7nU6iurEB7Wzu6upS3B5bAIEBvFPGJRkw+9kxMOe6cw7wjjzOBU9a1o/OTCTyABG7X0EEl8BBlYlJ38ykjgkfgZE8t2VuE2toavPCvf2L9zz8F5q4N8igjRo7EufPOF11/UlJTUThokHCsKQpM7xo4ZVxWlJejqqICb7z8oniziGah/ZmTk4OCggKkpqZaqy9Ska6xY8di5MiRGDJkiPg8PT0dSUlJwlzV09Mj3qQ6OjpAcceVlZU4cOAA9uzZg23btqG6Wnn7oKiWhoYGlJaWoqamRvzur8TExmHycWdj0KipyBk40s4n4KraoVZj1xaUcpUxa+9fiNRUei2B23BUU+gVrxvXA7fbX76ZUCwauCaBRw25F0k8Fm2cbNOhSKWnFmVTRxUgJgga+Bcrl+PLz1dj44b1KDtY6u89GfbvZefkYOz48YiLi8cRRx2FKTOm26fEazz+5YcO4aOlS7C3aDfKSqPzmhMSEnDsscfi/PPPR1xcnKigSKan0aNHIzc3N+Dlc0WPy8pKQepE4vQ7/fzOO+/g4MGDfq1/XIIRwyfNwujpJyhEftg0NVYSeSyWEgU72UVLNUrkqeJiVgIf3wg8FcnWOHAFX3K1WSv/hZjAaakVAtcpNnlrUSvb09vyXHFoumBr/2ZXtVACGurrcfkF5wnSDrQt26+7OYBfUkvHjh4zFnfedx+MSclWMv/o3aVY8tabAQuzy8vLw8yZM4V2SwRKWi2ZfTo7O4X2eujQIezYsQPbt29HXV1dn66SiPm5557D3LlzrY0vwtm5iEic3t7o359//hnXXHMNdu7c6fM1koNzyLiZOPniO13WKe9/GriOwpQsJkA18FvjxxH3t0UDZwJX9pM/BC5IUS0n68KhGSoN3InALbeI2iVHw+lWp6tC2DYCtzzmhTNy8asvYfWKZT7faPSFoUOHYty4ceIVnIRe26dMmYIJEyaIz7Kzs3sdl4iNSK24uBi7d+8WWhy9kpPQg6S2thZFRUUoKysT5BAIMRiNOPFXp2DFp58Ik4G3QuRIpofJkycLpzVd49lnn42JEyd6O4Tb44jM16xZgy+++AJVVVXiuF27dgmyJ4zIoXv00UcjLS0N1157LY455piAa9V9vgg3A7z66qtYsWKFuJbNmzd7fRpjaiYmzj4LY4/4FXQxihNbaxLpP13pqQ+sJSpHuU2FWK/V8ltLYxPqqmvtPrP9ojG9cDlZ+z2Wn5OK5GSHaoSuCJxs4NnBj0IRBD6yQDgxlYeKbb7e1gPv6uzAPREieKYAACAASURBVLffih3btqK6qtLrm4pI7PLLL8e5554rCIS0zBEjRghNM9BCmhwR2/79+1FRUSEInEIW6TV99erVIsMwFDJ8+HA89NBDyMzMFA8lsiGHQuihRg8vIvCMjAxMnz4dZCqJVqFr2bp1KxYtWoTPPvvM68soGDEJo6adiGETj+7/BK4pPG9zKyi2+5YmJnDrpvFFA8/P1ZpQ7M0UNKDq0EwUBK4QmVZb15KsanpRTByWiGdNTLna6UflZFf1wOmzKSMVG7i9CUVD5JZHsz2hK59v2vAzHrznDhwq82yrJMI2GAzCJPDRRx8JAosUIUJftWoV/vCHPwi7K2nT7e3tfTYBiZBQg0G8WdD4pPX2Z7H1uNTubUnpOqXdQAEEgZykF198sXgQKzkEnmXWmddi5LQTQE5PNcGpvzgxhQZuTZu3VXG0oiI68jCBB5bALZtbJdvQEni+sIGrDwvlwjR2ec0bgjq/1tYmrPzsE/zl4T96jBqgUL358+cLJ9hNN90kNMBIF9Lw3nzzTWGCoJ/JHOGr2eXII4/Ecccdh+uvv16YS6JdiOBqm1pxsLoRZTWNaOvs1rQWgqh73tzehY7ObtG0mISc5PFxsUhOjIMxIc4OgrjYGNFQe+iADGSlGPpM8OQLePrpp/Hll1+KNfMkOQNHYeaplyFn0BhrZJHbTFanTkiRG4ViS2yyTdourocJ3H5r+K+BK+O40mxDSeCTRxCBW+LArU5M2zXaRckAqCg/hCceXYjvv/nKo4ZK5pH7778fkyZNEhEN0ShkR9+7d68wwfztb38TBNGbUEPkZ599FqeeeioKCwuj8ZLFnMlv8NnanVi9YY/ohUnS1tGNxtYO8R91le+L6PU6JCfGIyPFAGN8rCDwwpxUXHzCFFGfxx+hOdNavfbaa3j00Uc9DpGYnI5Zc6/FoHEzbV1s3NRtj5YwQkmniTpxsIFbdDNuaqzdGb4ReBqSkygTU5PorbU7WwYOG4FrLszJBi4BVRXluOqCc0VctzshUwkR9rvvvothw4Z5vIm8OcBklgVhUHccpamukv5OKFIZAL1Oh5gYHWIpmiZIr+rqPIkk3nvvPSxcuBCNjY0iBI5MLuR8pQfWG2+84c0luTyms7sHre1dQoP1JRyarjk+Vo/E+FgkxsVCZymN4PdEBFl34cYn30dpdQNa2rv6MpRf3x2Yk4bb5x2L4fkZSEqIR4oxwU7Z8TQo2f2vuOIKrF271uPb09CJs3HUmdchNsGgcJxjLZko0cDJl0RRKNr5i+txAIt6YtZxOVkFFd8J3KGcrAsCp2JW+SGygU/SauCWhXaMQqEpbvh5He6/8zZRw8OdjBkzRoR83XbbbSBN1Ffp6jGhqKwGW0sq0dhqydCUIV7Xaxpb0dTWiZb2TnRTz0lZRoxOJ0iLqiqmJSWA6ptTdqkqRGYDc9MwujAbOelJ4pU+kEL2cnKEUvQLRXacd955Pj9AvtuyD7tKq8WDqby2CTsOVKGkol60ZfNWyASWl5GM4QMyRY9TimKih9qwARk4atxgJMTFeDuU03E0vw17yrDk683osJhG/B7Mjy/Smk0Ymocjxg4U1zNn8nDExeq9GonMXn//+9+xePFibNnSS19eSUL+8Ek4bv7vQDHk/ZHAbSqjLJoaM4FbtlAgCNxKK5o48JAR+PABNhu4dSL2YYLlB0txzcW/RkNDvdsb55xzzsEzzzyDgQMHenVzqQcRMb+8/Cf8sP2AIOXWji60tCkk3Vch7TwhLhbGxDhQ3ReS7FQjzj56HE47YrT1uvt6HtLAKTPRW9mxvxJPvfsdqhtbUd/cJq7ZF43bm/MoNXVixUONNPIpwwfg9nnHgWrA+yrU05M08ftfWoGdB0Jbv0U7V3pYZ6YYcOqMUfjNObO8vgx6wN5www0eI1aS0rJxzm+fUkINXVRtVP+m7V2qXTen1ndWzT00XeldauCktNiZUpjA7TZOfyBwske6S+Qp3VeMy847w22oHYXEnX766V6bDuh1fH9lPdbtOIDnPvrB65swWAcOyUvHhXMmC7srabIFWalINvhOcr3Nj6IzdpdWY+32A3jh03V9th/3BYu4GD1+fewEnH7kaEHu+ZkpPr2ZrNt5AH/979c4WNMomjWHS8gJess5szBjdCFGFWZ59eZDUUZvvfWWyAVwJ2nZhZhz8d1Izsi16+4eDTZwewJXY9Mc48GZwPtM4EqIn3MYoTaVPlQa+ETSwNVysnbmHFnUMbn/zt9iX7Frrz7FNT/++OPCdOBJGlra8eF327C1pALfbC7xGL3iabxgfE5a+pFjB2JAZgqy04yYe+RY8a+/Qiu8dvt+fLOpBJ/8bzvIxh1JQg+v6aMKMXFYHs44YozXtnOKRPnftv144p2vA/7m4Cs+9JZxzuzxuOSkKWLdPMm6detw9dVXi2Qgd5JVMALHnH8rktLzLM0k7BN/IlcD12syMTW2bwcNnBJ5ajmRR1l+XzTwgtw07xJ54kNnA6eb15UGTskt//jLw/jo3bfdki15/Cme25Pj8O2vNuLfH68Vtuxwam2ebm7t52R2IBs6mWGuPn0GLjt5msfrdBz/ir+8g71ltRFH3I7zjI3RCzv5vZecgFNmjPIaJvJXPPjyKuwpC29NcdI7DAlxOP3IMVhw8RyP829pacH48eNFcS13EhuXiLk3PwFjqlJLPTo08F4IXNNSjQlcs+qBJHDVx0ZOqFBp4BOG5bmMA//sw6V47KF7Xe7vUaNGidhoT2Fy32wqxn+/+AXrd0d3RT4VhAvmTMLdF/VOEBQp8/6arVj02Y+oa27zSCaRdkBOWhKuOX0mjho3CIXZqR6nR9FBD76yCt9v3Yd2ig0Ps0wePgCX/WoaTpgyvNeZUGOQm2++GUuWLBFJW64kPW8Ijp1/O5JVTdwaoRKZceCiI4+2p6jDRYmHkCyDCTxQBE4NXa2REZbkGQlIjAshgVNHHk0mJmkzKz75AI888AeXm5pIm7z6lKTiTvOub27HS8t+xLvfbhGhf/1BZo0bhP+7+hRkJCuhZq6EElyefu87fLWxOCJNRL6sA9mV50wZjotPmiLitT3Jih93YdGyH7Gvwr2j29MYgfqcfBnzjpuIK0+djuw0pSSFK6FyCi+++CIWLFjg9hgyp5xyzSO2Kn8KC1rt45HlxLQQuKeOPGxCsa233xq45Z3MFtkmq01FRBhYflZoUukpRMva0EECWpub8YffXoctG9c7bWoibKpaRxmVbm+K5nZc//f3sK+ibxXyAnUzB2KcrFQjXl9woQhFdCcUanffouWoaYw+rdsTRsseuxpZaZ7DMLtNJhxz6/MiJDIShJzRHzx8hXDW9iaUdUt1edzVItfpY3Hhfa8rhaIincApq1ptSOLgY2YN3MUu8JnAHcvJWuu12tLXQ0ng44fm2mzgABb960m8vug5l/udiPv55593ey9QlMXdL3ympFn3E8lITsSTN58lYpHdCWUsPvbfL9HRFVlOykAtAT24T5gyDNedcQRGDey9KiRF3Pzh35/hh237QXH9kSBP3DgXs8a7j4endncUAvvAAw+IBhSupGDUdMw652bEJtBDPEI1cL2DCcWRwC0FX6iYFTsxLavsN4GraesOsdf0K2ViDgiRBj6OCFynFLMym0w464SZaGludtrDl1xyCf7zn/+I4kyuhKISHnx5pUiz7i9CyTAPXH4Szprlvmrg66s24JkPvo96k4k3a1aQlYJZ44ZgwSW9+wGaWjuw5JvNwnEdCUJ1WM49ZrzI7HQnZBP/61//iocfftjlIaSFTznpEow+8oyoInCKdnNuqcYEbl1knwncWk5WGUKtGqj6uUNO4ENIAycXtYyz5swQlcochWK9ly5dihNOOMHl5q6qb8GZ970CUY2unwitwyUnT+31pv98/R4s+M/yfnLF3l/GiVOH484LjkNuenKvXyLHJuETCc5Nmujogdl48c7znQpraS/iyiuvFD4ed81Izr7tWVB9cbV6YUTZwLUauGZiTOC9bFOvCVwCRBihxoSiJs+oBaMEoYdYAx89KBuU3LHmy1V48K5bXF7pgw8+6FYzodTvG//+Xr8ym6g3+6K75olUfVfywZqtePTN3gtbeU+J0XckFaG6Y96xOHXmaLc1SuiBvmZzCf70xhegPIBIkOmjCvB/V50iSg+4EsrapPK03377rcvP4w0pOPX6x2BIzhShhRFH4JbMS60q5aqpcS3XQlHW11cCT3GwgavJO+HSwEcWZoHKhzxy3x34+nNnbZLKv1ITBGrn5SiUAr7wtdX46pe9kXBvBnQOn/75arc3+Wdrd+DPb34V8fHdAQXExWBUpoCyIS88cbLbbE4i8V0HqnH5Y28HezpejU/8NmxAJt7546Vuj6dMTSp/7Kq+ODkyJxw/D+OPOS/yCFyngygnq4lbp4u0PWRIPZRFNcJabqnmG4ETdAV59hq4GEHThEH8KklIjNeHzAY+LD8D235Zh/t+d4NTWzAibarmNm3aNJebfek3m/HXt7726saJloPI7v3w1afg1JmuE1qo4NQfXliGnQeUdmUswLmzx4vaJFSnxJ0QXrc8/WHE+EiohMBrCy5EerLrCBWKDS8oKBCdmxwlOSMPcy69H4bU7MjSwHslcNXZxgRut57eauCeCdxWGzyUBE7V6xb941F8/O5bThv1jDPOEPbA9PR0p8+IyM5fuBhdEZYe3ldCHT8kFxS14C5k8N5Fy7H65z19PU2/+z4l0Nx/2UmiYqArIU386417sfDV1RFhbiNF6fjJw/Dg5Sch1ei6vRzVf6f6Ka7kiDNvwtApcyKcwC3GWTWVXijgROBNqKvinphiXftE4FbtW9kiwqEpUxSKHnkhikKhIvrzTpgGk8k+BI6q65FX/o477nC5gc9+4FUcqnF2eEY7M/3z1rNx9PghLi/jj6+swrJ1vndHj3ZMvJk/cQPZxVc+fp3bw6mMwqqfd+OBl1d6M2TQj6G3Lco6vfGsI12eixphz5s3D19/7fyWGROXgPPvfjUyCdzSgtyuLrgmlZ4JXLPcfhG4hrjVFxvtv6Ek8M/fexUfvfWS0wbOzc1FeXm5y2zLj77fhsf++1W/ybJUL55i4l+750KXN/O2fZW447lPUNvU/xJ1AsmUFNH0zoOXgQpluROqQvnG6g1hrcqonds/bjkLx0x03aP1zjvvxJNPPunyUs689RkYUmxx8eEvJ6tXbOCW2TrZwunvlEpPceCsgSso+UzgFpubaEqstJWxPC9tWjiZUEKlgd9z1Vy0tThr0qR933333U4bl6IJ7n9ppSgH25+E0q+X/+ValzZRctZSgtK6HaX96ZKDdi2DctLw99+cKfpduhLKFXj49c9BtXIiQShj89FrTsPREwY7TYf6opIy40oKxxyBo8+3vaFGEoE7Rsgo7kubCYUJ3LKivhF4ulKNUAasz0mVwDX9KENF4Dt+WYdFT9yP7i6l56FWqJuJqC/sIJv2luO6v73b7xJXfn/+MbhUVBx0vlV3H6zGpY+85dSaKhLIJ1LnQBUOf/iX67BUmjPVyJlz+78jJnv1ohMm4/fzjnXZ5IMisVw5M9NyBuGU6x+3LkG4CVzSKxq4NpVeu50VUud64Hb3jK8EbgsjtLzo6Bw0cIoDj49BXpbi0ReZ9kJVV39WTi80eAv5q7XFtUlBts8sx0u2Ljs0Ho373stP45tl7zpxAGVdUn0IV3Lvf5Zj9fr+5cSjSIQ/X3saZo5x7ibU3N6JE+94sd89sEJB/NTm7sU757l1bFLbuEsefQt7DykOtXAKtW776JErXdYU/+abbzBnjnP2qSElC8ddfC9SsgrE1CONwLUah9ac0tzYxC3V1M3mN4FbSNlmQlHS2UkUDTy4BN7Z1orF/3oUm39c43TffPrpp5g7d67T36lI0ZE3/yuc91lQzk3JHc/ffp7LWObH3/5a9INk8Q8Bqjf/+A1z3TbGoESfh15bDUq/D7f88YqTRbs9R+ns7ERCgnOkik4fg6mnXo3hU0+KCALXudDALbW3xPxU2zgTuGaFfSLwAelw0sCFFq1QdygJ/GDxLjx5300w9dhHn+Tl5eGTTz7BjBkznDbynxZ/gY++2xbu+yzg53/v/67A4Nw0p3Gp88ztz32CkvL+U1kx4OB5MSDVknnwipPdJvs89OoqUEGwcIsxPg7fPO1caZOKXWVnZ6PJRZmJSSdeijGzzoo4Aqd6kNYEHruOPAATuD8ETqn0eY4ELtnZXENJ4Pt3bxME7ijnn3++MJ84dpWnON5zHngV5bXOha7CfeP15fwjCjLx9oPOWXm0+Rd/vkHU92bpOwK3zz8Wl5w4xWVUE/HLb556Hz/vOtj3E/VxhJ//fZvTCOQPovR6qgfkKJNOvARjZp0dMQSu1qS2c2I6ELjS0EHpomRXvUirrtNnEor0snRe8bIFW/oIa0C+7sI91fdxfdLAicA1UShC69bMSq2JEgob+PJ3XsaKpa84AUB1kV9//XWnv/9SdAh3PvcJmtqcHZ59RzF8I7xyzwWY6KJULCUo/fqPr6OyviV8k+tHZ1Zatp2IuUeNcXlVlfXNmL9wcdiTfL78+w1IcUjsIcff008/jdtvv91p7iNnnobJJ18O6oYTdhu4zuLEdGzo4JDIwx15/NHAISkauLUaocUxqSVwi3MxIS74YYT3XHEaOtpanTYkaRmUvOAoz3/8A15a9lM/ohSI1O//PnCJyxTwXaXVuPRR5+zUfgVAiC8mzZiAVxdc6LZVGyVJ/en1z9Edxi5Of7n+dJw8faQTMi+99BKuu845SSlv+BQcfd7vQYk9kUbg2l6eVm2bW6rZr633GnjvBC4iSSxRJaEg8N+5qI1M6cXU8NWx5rfJLOOf73+HNz//JcS3fHBPd/VpM/Cbs2e57MZ+8l0voqEl/I614CIQ+tFnTxgCSpxx1Y6vpb0Tv3/2E2wsOhT6iVnOeMlJU3HHfOe64e4IPDW7ECdcvhBxiUkRSeBaMwl35HGxrfwlcJ0ahWJ1XoaOwNtbG3HvVc5RJnRTuaqDTD0uKQtxS0lF2G6sQJ84PjYG91w8x2XUAdlib3rq/UCfksezIEBmFCrp6kqotvwZ974cNqxmjx+Mp289x2sNPC4xGafd+DckGFOjh8A5E9O2vr4TeLzQtLUpMtZ64KoGTmGEmcHrifn1J2/hw9efddqkkyZNwqZNm5z+To1q5y18I2w3VTBOPDg3HW/efzHINuso1BLsq439r0RuMHD0Z0zqUfmna04FNYp2JdQcOVzdfKaMyAfVgXcUdxo4HXfW755HYlJ6+AlcrxfJd9aYbwfnpVUDZwL3h8CBAgojtNjAw0ngT913A/bv2e60Sany4KWXOkdk9EcCnzmmEM///jwnDMrrmnH3vz8DNapgCR4C00YW4NnfnQvK2HQUMqXc+fynWL+7LHgTcDNyfyZwccmWaoScSm/ZAF5r4GoYoSsCFyq4LVMyIcga+J9/dzGqDjnX9eju7gZVIXQU6nd52zMfhfxmCuYJ33rgElAzC0f5elOxIPD+1B4umDj2ZWyqBHjzObNcDrF49Qb88/3vQ74O/Y7AlW6JNmECt99vfSVwWxihlsBjkJcZvExMdwRO4VKuhGo4f7p2R1/u1Yj6Ltn6f3r+VrfE8Q+O/Q7ZelEU0CgXD1IqPXv140tAVSBDKf2FwBWVUBFnAueOPNY95Q+Bi/omlhEUAldqhal/UzTw4BB4Z0c7Hr/rStRWOnv63RH4iXe80K/iv48ePxj/dOGoopU47Z6XUNPoHF4ZShI5nM51zMQheOz605EY59yyj6JRqHBaKCWaCVxNpbfrgekiI5MyMTmRx7KrfCHwQrtUemUAWziVQuBE6ETguRnBIfDy0mI8/6fb0VRvX0CIaj1QGylXMuOmf4byHgr6ud649yKMHZxzWFxr0MEMwAkev3EuqNO9KyECD2VYIdnmqXO9o7h1YkoSzrrtuYhwYur01BNTb9W47TRwzcs1E7hmdf0ncEv9E2sij626YDAJfPuGH/DGP/8P7a32GYZU++Snn1wn6vQnAqcuLG/cd5HL1/Y3Vm3A0+9z6nwAONmnIaaOyMd/XER+0CBUqfCqvy5Be2e3T2P6e/ApM0bhz9ed5jWBx8YbcPpvnoqIMEKXBE4Njh0so0zgfhG4hMIBaUhJUpqoqqGDthKwtuYOwSTwtV98gvdeegrd3V12m5SiTygKpb9r4KMHZuOpm89y2fPylD8sQl0zd9zxl/z68r37LzsRvz5mgtMQHV09ePTNL7E8RK3srp97pMsWa+408OSMATjpqj9FRCKPE4GrYYRM4O63pvcaOBG4rZiVcyJPaAh89fuvY9nb/3Gqb33//ffjkUcecbpQciYdcfMzfbk3I+q7l5w0BbfPO9YpE5BK5R7/+8hpMBBRoIVgMhSP/+WTNyLORVjh0q8348ml34Ykxf7Ra07FqUeM9loDzxk8HrPn34XY+MSwx4F7T+CNqK3mpsZikb0ncKBwQIYmDtz2WLRaUTSJPMGyga9c+gqWL3Hugfncc8/hN7/5jdPGpe7zZ93/aghu4dCc4rKTp4rOK46yZksJKIGHOsWwhB4Baqhwy7lH48pTp7tUIig7MxTO5aUPXeayFdwzzzyD225zrlQ4eMIxmDH3Buhj4qKEwKkjDzkxmcD9IHBbNUJb61FNRIolu4dqoYSawN0l8WzeW45rnnAuoxn6W7zvZ6S+l6R9X3jCZKfBnnjnG7zzlXMWat/PyiN4i8DUkQV47LrTkJWqZCFrheqFU93wYMu6534L8pNohcpL3HrrrSAlx1HGHn0uJsy5AJKki1gCV+ds7YnJBG5bRt80cDcErvbDtPwbDgKnGuDUSs1Rvttagt//65Ng3zchGT/FQNXwLgA13XWURxd/iQ++2xqSefBJ3CPwzG3nYNY45+bC9I3Ztz6Hzm77BiSBxtJVPfCenh6ceOKJWLPGuXtVZDV0cB2FogaEK9USZXA5Wc2u8ZvANX0u1eHUpJ5IIvBVP+/GfYtWBPo+Cct4VD525ePOJUGp6/wfX1kVMV3SwwJOhJz0yLGDRIq9K3n2w//hlRU/B3WmrgicOvJQZ/qGhganc0cigVubGltmK1usgorRlgncbhF9JfDUFDUKxdaoOJIJ/LO1O/DQq6uDetOEanB3BF5UVovf/etjUFMBlvAj8ONzvxVFmRxl3Y4DuOXpD4M2wcKsVHz4yJVO47vriUkHRhaB27rSC852iEIRv0oyWhrYBm5dZF8IfCBFofRG4JbwwoT4GORk2MINA9mV3p0T050JZcWPu/DAyyuDdtOEcuAJQ3JFQwFH2bCnDDf8/b1QToXP1QsCc6YMx99uci53XFbTiD+8sAy7S6uDgt+Vp0zHrefN9prARVPjU67C8Gkni++Eu6GDyMSUFO+aXTNj+oVqoqgaOBO4bY0DQ+DU1timkUcSgX++YQ8WvLg8KDdMqAe964LjcNGJU5jAQww8OQVnjC4AZTmmJxusJSPcTSM+LgZnHOnceo1KPSx8bXXQGiC7y9AtLS3FoEHOpW+pBvjR8+5AVqESdhhuAqcsTFFO1qHXpV1qvQy0iHKy3BNTLJrfBC5QVZoaW+uBW1LrKSY2JyNBjK+k19vIXbWTE+Gr37WSv2Ys22fKbUJj0Fi+auD9qRLh6r9dj3RLIpWWPH7Yvh+3/tO/aov02n3UuEGYOGwAslONiIvVg2zqe8pq8fXGvdjaj5pg+ML7FPFz5wXH4axZ48TX6He9jvZ731rTBjNa6ONHr0J+ZorTZT766KN44IEHnP6eklWAk69+BDFxyttyxBC4qm27MqEwgduvo18ErjTfsRCrY2EriCYDoSbwN954A5dddpnTJt2xvxKXP/aOL/duxB7rykFFk6Ukkf9+sdHtvClGmRpADMpNQ1JiPM48agymjSoUhOSNUGlaSkZZt6MUP+0qDVlauDdzC+QxOWlJmDA0DxeeMAnTRxUGcmjrWNQt6eZ/fBDwMrNUl/yDh69AXkay07wHDx6MAwcOOP09LWcQTrn+cevfw07gakMHVQO3c17azCqsgWuW0jcCp0QemxOTtBEbBSgaNUk4CPzZZ5/FzTff7LRJqxtacPqC8LW4CiQLuCPwi/70JsiR6SiGhFhcfOJUUfhqcG4aBueku+yf6e0cKdvzp50HsXb7fizuZ/1FyTzyu/OOwfihud7C4ddxzW2dOPmu/4CwDKRMHJqHf/z2bKQ6dKSnc7h7a4hYAneleWvs4kzgASBwVXmLFAK/99578ec//9nlPdFfilm5I3Dt9ZFWTdrYg5efhFNnOqdUB4o0PvxuKx5/5xt0dZsCNWRYxiHTyC3nzsLlv3LOoAzGhKoaWnDWfa+AGm0HUqi5xE1nHwV629IKJfHo9c5dg+iYYVNOwIy5N0aMBu5UTpZbqnneIr5q4LYwQmVsVwSeGB+D7PTg2MC//uRtfLz4eZjN9sQxb948LF3qOuOyPxB4RooBq1zEgNMa0PVRk2OqRDdxWJ5odEzEFGyhqIoHXloZtc2iSVtdcPEcnDx9ZJ9t295ivX1/pahOSDV6Aim/OXsWrj1jptOQK1euxGmnOVcnpAN/de2jSM+zlcENtwnFE4GLi+OOPPZr7D2BS6AwQncELhyVai2UuOAR+C//+xJvP/8YqLGDVkaMGIE9e/b0Ww38qLGD8C83CSJUc/rWX88W9ltv7dqBIg8ql7rgP8tRUl4XqCFDNs59l57o08OOKgtSh51t+ypQWtWImsYW4fgjk2F6UgIKs9MwJC8dYwfngmL2Xcnug9W47M9vB5TA6WF9x/xjccEc5xIL119/PRYtWuRyLhfc/5adChaRBM4t1Xq/H/pM4NoolBAQ+MGSXXjh0bvQ3FjvdGHuOvIcdcu/or7IE4UPUhhhoISKXpE9VpvaTTWrm1o7kJFqRCwV1/9/vDoZfgAAIABJREFU9q4DPIqqi570hIRUCJ3Qe5UmKL1J713pvXdQEAVFEX9BilSl2RVFuliQJh3pTZDeQgjpJKT+332zszs782Z3drNJdsPe7/Mz7LQ3M2/O3Dn33nNdwIKeebw9TabOUa792+v26Ftg2WqMWbmfOuWLYeWkLiYPQeJT9JXxyQ8HcOm2ZU2iB75WG2M7N1Dsn7J6SJvHlh44ZQ99NqELShUOVhyvZ8+e3C9TF1dX9HzrGyOtbbsDcN3ZOHtimpimjgbgzxOfYeG0gRa1VBuzZAvLoHBkm9arMVfEypJzohfcoQu3WMAzOi6R/X3ncZRCMF/cJ+U/161QFNXLFGaeKmVpqNnH3+3D9/vOWTKcHFuXsnHWTO7GFZ2iQYVHxeOvM/9h/a8nEBljnb66GoBTWuvE5dtsmoVCXv+P77yhTyIQL2xcXBx69OgBolHkVrB0dTTu86Z9ArgMuJ09MW0F4IWDEKDPQhF2apQHTh44+6R0Q/4sqsSkY86f0AcRnK70ah74TwfO48Nv/soxwLDFgf83sj2a1Chl1a4or3vBN3/hyt0IPIlOQFzic4v3Uyw0AGM7v4LmL5XhbhsTn4Re877Ck1jrAM/iAWViAwJX6iYvD/jRLim42HPuV7j3JAZpEmneovkD0KlBZVQvU4jRVP9ce4C1O44hOZUfxFUD8K2HL+L9L/cq9OwzcTpMPpZkZOV29OhRdO3aFQ8fPlQsa9L3LRQoVc2xAJzAhjhwUiN0FvII91S7Bw4UKxxsEsD1TY2zGMDVutIfO3YMdevWVUzWW4+i0P3dLzPzjOT4tismdkHdCsU0j+NpXCL+u/8Ei348iGv3hao1U0bedoCfN/J4Cc15iU6Jjk8ySnej52ftlO6gxrk8+3bvGZaTLm+BZe7Y2bmcgsFLx3ZCheL5FYeNjH2GdjPXIVWX4keqjx0aVMIbLV9SDQoTfUTVlXIddjUAX/7LYWywsaDVnDeao+MrlRXns3XrVnTuzBfWem34QgSEFncIABdOTFfu5wRw4/uceQA3dKPPLgD/dNYI3Pr3omLCDho0COvWKXO+XyQAj0lIwvbDl0ANHk79e18TNrZ4qSxqly+K0oVDUCDIj33eE5hdu/eEAfnvp/7Vc8CU7fL1rD4sWCe3czceYvrqXdnSuEDTiXFWIvrk57n9FUvonBd+tw+b959ny6h13Sej2nMLY6Qbkw7N9NU72ctOapTWR16+3OZu+oPdH1vakeVjWOqo3NavX4/BgwcrfvfyyYsWA+fBL6SQHQO4i8IRMNIDd3rgwn21FsDFhg7StFMG4NSVnjzwoKwRs6JD/PHLl9jx9WrFxPT09AQpr8ntdngUes372qEDmVo8cALckYt/RnxisuZCkTrli2LxmI4sk0LNiIK5eDMc45dvZdewWc0yWDiirWJ1orCo6vXKHcsCfrYEM3P7GtauLkZ0eFmx2unrDzBl5Q4WxCV7d0BLtK9f0dzumNzAtNU7jcCGXnJv9m3K3X7uxt+x/chls/vVugI9cydWKTvt0PZNmjTB/v37FbsqWrEe6nUYyUropV9L9hLEFL1t+ZecHsCZmJVTC8VqAGf6JqJ4lb6m3pATntUAHhXxAHNH91RMTKo4o8IFuUXFJWLqqh04+5+SC9T6oOT0eqYA/M7jaCz7+RD+OnPD4mES0HRrVFXTdt/tPYPFPx1CaIAvPhrRFpXClFWLH3y9Fz8ftN/GEvsXj4Svj6fifH8/dQ1vrjWIntGXyKaZvRDC6a4jbnz1bgRGLf4Zsc+MnYZAP2+sntyNfdHIjeiWHTYE8EGv1Wat3HimVoFZsUEHVG/WTxCNkqSj2wWAU9ERdaKXjY3Ojw01Pd3ZUk16sy3xwIsbceC6vG9J4ZcA7C7wYh541hTy0Ngp53wCpy8kTdiEhAT4+Ajev2hUtvzp5kMgjtZRTQ3Aid+mYhrKx7bGKpcogPXTe2oqsSdPvP1b61n64ftDWuM1TqVnRHQC2sxU9iy1ZmxZsY1aNevcjX9g+xFjaoNiDuO7voIKxUMVQ/nj1DV8+tMhPHqq1GCnbJ2t8wfAQ1YB+SwpmUkbHzh302antnFmL9A9lNutW7dQsmRJxe+UPlitaW9UrN/RcQBc95ZxtlTjTBurAJzle+sUBgm1GZYLSeD0z5wE8N27d6N169aKM1257Qi+2HXCZg9Odu9IDcBtoQVOgcmaZfmBSel5/rDvLAuKEo3StWEVUCEMz+y58lUNwBuM/YybUULzuW/zmpjUQ2gkTZkpU1btwKHzt1SnAHnvOz9Ucs9E5U1duRM3H9mm6Imomg0zeqJs0XyKsbRr1w67du1S/O7p44cWA+fCP6SI3QO4+HlgLCfrbGpsdFMtAvAi0iwUUSJWImiVjQC+aOZw3L6u5BInT56MTz75RDFxv9h9Aqu3HbVp/m12gvi8Qa24GtO2EutaOq4Ty3JRK8G/8fAp5n/1p56GypvHC38tMuhoSK9F25nrQJof9mam+GJbvnSKhQYyZUC50ct27NJfbKYfQxIAc/q30GcOSY/n7+8PygOXm0/eIHSeuJJho11SKK5EoWQYFYU5AdzEk2Q9gAs7FWgTnWUjgB/aswU/rl2kOLM33ngDmzZtUvxOBRRvfr4bCYnJ9oYrmsYzplMDDGpTW7EuVfTVHb1M0z5MrRTo54NXq5bAO/1bGhWE0ENO+c5//nNdQdOoebMb9pzE8i2HMz0mW+/A3dUVR1eM5e7WlgBOwU8Kgsrt+JW7TErWVkZfBlRCL7fLly+jVq1aSEw0lpug9QqXeQmN+0y3WwBnDR10LxfxvIwAHECcM4hpuOUWAXjhEIkWiqRJgxGAZ+golKzLQiEO/M71y/hk5nDF5O3Xrx9IG1wewCHVvK7vbOJylrZ6oLJyPz0aV8OMPk2yHHzoAKQpXb10ITyIjMX5G49UT2vXgsHc6kx7TtvUouiY2fu4dFxHNKhcQrEbW/bEJPrkvUGt0IxTWDVx4kQsXbqUWyzUYexS+AWFOiCAi6RthhPApTNLO4C7gAUxOT0xhfRBgx64l0fWphGaAvDatWtj8+bNIBF7uXWYtQEPI2Mz+3zmyPaNq5dieck8s6X3aMnJdX6lMma/0VyxiSMCeJ1Ry2xWHfn3stFMHVJulJ1DWTq2MPpi+vWjIQrKKzU1FcOHDwflgCvNBX3e/o4FreyVQuF74NKeX04AN7qvmQZwWRs02nl2AHjEgzv47L0piIow9hC9vLxAgcymTZsq5u+AD7/Hxdvhtnh+sn0flGlAGQf2BODenh44tHSUYkj3ImLwxoffsWwVezM1D7zz2xtB47aFqR1j2qqdTGPFFqbW4Pr69evo2LEjiEaRW7EKdfFqjykOAeDE4+mpEyNdcCeA2wTAxUIeMfOE3upiUU92AHhyUiK++exDnD6i1Dj59ddfuZkou49fwdvrfrPF85Pt+yAtjl/eG2BXAE73+8RKZREJVYPOXLMLJ67ey/brZO6AauBqy/x1tWO0nLoWUfFKXtrcmHnLf57XH1TqL7dDhw6hYUMlL07rNe//NkLDqtg3gLu5KYFbDuBRsYh84izkYfdeuwcOhHE48JwCcPqo+mndEuzftVkxiTdu3Ij+/ZVZACQ8ROlijmj+vt7Y+4mS86dzySkKhQCcMlFIclZqlHe/5KdDJvt05tQ9INohH6c4Z8+JfzHri18zPSyS4T3yWdYGSomeIZqGZx9++CHeeustxSIPrzxo9vosBBcmMTL7pFDc3Nzh4iYEMcmM/29A8VgKYjoBXLhIFgF4kRCJmJXughpRKEJKIXU2z+pCHlMATh1IiEbhWU6BXWaRgYKyJ1aOs7tz+nRMB7xaVVkwYq9595O6N0S/FjUV1/HguZuYtGJ7Zm8T84rJO87KuacmlEXH9PX1xbNnSkVIok/qdx4DNw8qsHMkABfGKhr9HRsTg6cRQuGaUV8jodLHsK4LrrtluHS9sWumIHCTw6athbiFg7QFgAuynIaslOwC8NN/78WXy+cjNUWZGqgmLTto4Y84f8MxS+qzI4PCwumDga1rYWyXVxSb2SuAly2SD9++3VcxXtJCmbpyB4j+yYw1qBwGyqnPKgCnZ23Z+E6oV7G44hAPHjxAkSJFuMcuW7sl6rQdqgNDRwFwAVOM0wgzQB64E8B1t9l6ABcSwI30wHX7FDjwrC2lp1dGYkIc3h3dE4kJyqIR0kThaUHs1nWPycxDmlPb2iOAt61XAVRkJLd1u09glR0WTqmpEZJMAGmhUL1AZqxD/Yp4h5MDTvu0xdcfvYAWjmyHYvkDFMPs1KkTtm3bpvjdxdUNTfrMQKHS1e0fwF0lwUtJJ3qDb+0EcKMbbDGA69MIhd0YnG95EDPrAZxAfMbAdngWr0wNJC1kisbL7cz1B6Aeko5ojgTgv538F/M2/Ymk5BS7utT5A32xalJXhBVQyuG+9fmvoHFnxvo0q4EpKq3vbAHgbeqVx7xBrbkt7kj7hDRQ5Obq5oFebwm1EYI3a68euBtIq0XqcUtZEZ0/7vTApTdYO4C7IIxK6WUAzkBc+NCRZaFkD4B/NHUw7t1SNjOuV68eqCOJ3C7dCseIxT8znWtHM0cC8Ct3IljZeLSNsi5sda+ocQUJVPF48F/+pm45f2bqULRf4tl5ZgsAn/16c3R+Vdm84bvvvsPQoUOZmJvcipavjUa9pglPqZ0DOFxddWgiUUqUZaE4KRTJHXZ0AL90+ghWzp+umLT58+fH48dKXWriOCnb4OilO5l6UHNiY3sE8KY1SjNlQnnhCkms9n7vazyOsj9NFNIEH97hZYUXS13nXx2/IlO3lsCVQDYrAJy+dg8v4zdvmD17NubPn889brcpa+Hl62/3AO7qJnjggjuoBuBAbLQziKm/0bYGcMpD8fRwzRYOnOmwuABjuyk9nuDgYFBRQ1CQ8lOZ+mNSn0xHM3sE8BqlC2PB8Dbc1Dx7rXytWDyUBRqDdP1dpfOA+nr+98B6tcCGVUuwBhlZAeBt65bHvMFKpc3w8HC0b98eJ0+eVBzWK48/uk9dq8/NsGcP3CSAE/2j+4RwAniWeeBCGqGXhyvyZUMQUwTwyX1aIDnZuOqPuvMsWbIEI0eOVExqylH+6o9/7Lp3o3zQ9ppGWKpQMKjhMgUH5WavAE7jpKIoKo6SW2RMAlrPsF7PXC3LhY6TWQrl+IpxXN32CxcuoGpVflOO2m0GoXyd1xwSwIVBixooujy3DApiOj1wm3nghiwUYZf0AUQeeHYC+LpP5uCfw8qKzEmTJmHRIqViIanCTVy+TbWjuD165nm8PXHgU+XLyBbAkJnzDQ3yw6JR7blND+wZwEd1qo8hbeooTp3UHan9nrWa3ZSB9feyMTb3wE2lJ1LRGgm4yc3N3QMNe0xCkbK1HAzARW9bOCMxs9vpgXOmVWYpFBHAJZ3Vsh3AL5w6jFUfzFCc3ZgxY5gX7ibrjEIrNpq4CtQhxVGsUEhebJ8/yObAkNnz98/jhU/HdkS1UoUcygOnwZIMgLSnq3gC2w5fwrxNf1h9adSoLpL9pReEpUZjfH/wa2hdp5xiUxKv8vDw4O6yUKmqaNRrKtw9vB0GwIlG0cvJGgUvJR54VCyeOisxhXtuOYDnYdvRO1KkMOQVRl6ersgXmD1ZKDS5L/7DD2RWqlQJO3fuRIkSSmnPNjO+QESMMmJv6cOVXesTQK6b3sPuAJyClySfWqtcUYcD8OXjO+PlSsqCGGq8MHPtbjyNVVY0arnfagBOQd3r9y1vfUdUz8cj2nE775CDQvKxPKPinbrthup7TDJv1o6zUAi8VQFcbPJAlZhUyOMEcGsAXNADlzc1ZnWY+pJ6HQeejQD+4PZ1rPloFp6EPzCaxyRNeeLECbz00kuK+f3l7/8wvQ5HMeq+smBYG7sDcOrgs2xcJ9SpUMzhAJzGvHJiF6VXm5aOsUt+wcl/rRPjUgPw+V/txZZDljd8JvpkydiO3MK0unXrsjnOs26TV8E7b5CDA7ihlF7MCXcCuORuW+aBhyBQpgdOpLeUPqFdsyBmNgI40lOxYfFcnDy8TzGP//rrLzRpomyEQKX2pAHtKDagdS2M45Ss0/gzGxzLzDUg8SbK6HBEAC+SPwCLR3cABWLltvPoZbyz4XerLs3eRcPhn0f4ApXa9sOXMNcKaobA+5Uqyq/IP/74A3369METnTcqPZaPXwC6TVmjy9yQ8MgO44Eb2vIYt1RzeuBGk8oSAC9BYlYigLvIxawMQJ7dAO7u5oINn87D0X1KqVgqL/7ll1+4D2KDcZ/ZrD+hVU+6BRtR78OODSoptqC89uZT1liwJ9uu6u3pjiVjO6FWOaUGhz0HMcWrMKN3E/RoUo17UZpNXg3KZ7fUPhzaBi1rl1VsZk1LNTUVSnJAFi5ciJkzZ3KH13LA2yhQoopDATjFqlglpryEXsqFZzibGmcOwAPEVmn2A+Buri44sOtHfLt2iWIy06SgQA/P3t34O3YcUQrfW/rAZsf6n03ozBUwos/8kYt+zo4hcI9BzY3JQ3TEICadEOWEr53aHfQikhtV7fZf8L3F17Zj/YqYY6OemBtn9kTlEgUVY4iOjkaNGjVw+7ZSu8Xdwws9pq1hyoMi7aDP5LBjD9zN1U2Qk1UBcOEiCFookU41QuFyWOyBmwRwIbBJaoTZSaEQgKcmJWBcH2WRA50jfWKGhIQoHoL9Z29gysodFj+gObHBioldWNd4uW3ccwrLtvydE0Nix6T+mYtGd0C5ovkUY3AED5wG/d3b/VCmiHJ+xCYkYcCCH3A3Itqi61ssNABb5imbb1jqgecLyIPN7/aHn4+n4vhUtFOnjjINkj3TzXqhSkPi9g3peE4At+gWZsnKOSwn6wJGocgBXN+ZPkNQJ8wRAAe8PD0wuN3L3Auvlg9OynMkIUqNHuzd1ACc8tkPXVAKGGXX+RBwLxzRjlsU4ygATufwzWylxCxxrxv2nMRnvxy26HIWCPLDzg8HK7Y5+99DjFu2VXP66lAq+W9fD4Jcs7FR4Q4V8MiNGje82nUMSP9Emo7naADOfG2ROpGJfjs9cMldz6wHLmSksMvN6toFAM/eIKabKwVOPbB8/gz8c2S/YlJXqFCB2yPwcXQ8pq/ehQs31TuvW/TkZuHKagDe7s31CI+Ky8Ijm951vYrF8MHQNgjwNQ7aEUfbcfZGh2ki/c3sPihXNL/iZCnVdMSin3AnXLsXrgbgt8Oj2BcfNX02Z3Q95w95jZvm+PDhQxQuXJi7i9Di5dF68FzB+xbjgIZ4oF2nEUopFCeAm5shuuW2A3CdPngOALirCwG4O2KePsbkAUox/VKlSjGdCJ4uysw1u/HHP0o1Q42XL1tWI0BYPIZoCiXAtHtzHcJzUDDqtbrl8d6gVooUt/sRMRj88Y+ItDKXOlsurOQglKpHVBClRcrN0n6ZdL+2zR8EovakFhWXiLc+362pV2jNMoUZN88zNd1vWrdao26o3qyn4FI5GoBTEFO1pZruSrCOPMSBO3tisitiPYALF9TYAxf+TVkoIdmYRkjPCfHu9P/B7Rso5ryPjw9WrlyJAQOUvCTlglNOuD1bjTKFWQ44r5djTgO4WkOHQ+dvYtYXe0CNEhzBgvx8mCgXryApPjEZTSat0nwawf558NVbvREa6Ge0DfUKpdTEX49fNbuvtVO6oWZZZWbPuXPn0K1bNybUxrN+s7+Eq7vAmecWAGdFJvrAZoYTwKU33joAJ6rE0EKNXV4XIYBJliMA7u7GhH4+mT0BF88cV8zt9957DyS5KbdHT+PQ/q31Zh+onFyBSqjnDmyl8A5J07zrO5sQEZ1zFaXtX66Idwe2VFye9btPgtqqpUsbGubkRdRwbLV+mbQpNXqghg9ajDJzlo7tiKoceYG5G3/HdjOZTxS03LeYr3uzfv16DB6s5NdpXJVf7YhaLfsZcccOlYWi8MB1iCJLI3R64JJZaDmAG0rpGW5LmxrbAYDv/3UrNi5foHjOBg0ahBUrVsDbW1lgkZOFMFoAQa1N1+U7jzFmyS+gbImcsjf7NkW3RkolPHvtiWnqOlGzhwNLRiq0zWkb0jWnBhU3HpqXmvXx8sC8gS3RtCZ1gDc2LQD++dTuoK8uuVFcgRqV8CovPTy90XHsIvgGhDg2gJMeOKN+DCqEopCLXswqJsaZRihODssBXCyl1+3BDgCcXiKebq7MAz+6fw8+/2Qe5E2N/fz8cOnSJRQrpkzFe+uLX/Hbicy10spKAFUD8ANnb2L2ul/xLIe6C9F1/+N/wxUBTLoWjgjgNG417pnm07Ith7Hpt1Nmb7WHuxtrq9ad82IzB+BE4Swc0ZZ7TU+fPs2VhaABVajbGrVf6w9XN3cHB3A3fem/PvlE4oHTfXB2pbfWAy8qLaU3AeCerggJyD4xKwISKummoFH4g7tYPn8mHty5qXjQrly5gvLlyyt+J5628UTtHKfZJ9jGK6gB+O7jV/D+V3vxPJlfqGTjYSh2p6ZRTpzxOxt+A+XZO5qRE7D5nddRnNMzMzE5Bd3f+dJs0Jjm4ehO9TGgdW2LPHA69pjODTCgVS3FdtSk292dwFmpZkigXee1AShfV2guLU2/czgKxZUP4BnUx1N3VZx64FkF4Po88OwG8Ax4kJKZjjJb/M5kXDx9TPEQkGrb4sWLFb+npKahxdS1dhtwUwPwPSeu4r0vqXFwzgD4S2WLYM2Uborree9JDN744DvEWVGGbg+ATzEH4vVpTsnth33nsPA7peaOdD16sbG2be3rWQTgFPRcP6MnKItFbj/++CN69hSyS+TmH1wQHUYthJunVy4DcB1oO3tiqj8WFlEoHA/cUGMgNDUWslDcEBwgTCZBclYS8NSBLJOj1a2vD4hK6Rj9MmHstA+9aJbub4OcbQYL8JEHQ7Zp2Yc4+LuywtLLywtJSUq+mAJtC7/bj837z9kDfijGoAbglOlB9M+zpJxp0Pzbx0MRnFeIiUiN8py7v6tsMGCXF5czKB9PDywb30mFhwY6zt5gMr/dWgAn0B/RQVmMRt7366+/jm+//ZZ7CV/tMhqlazSWaX47aBaKK+mBZ7DEE/3HBsEH/ZvOnnXkicVTZym9MBesBnA9EOsAlgGy8CNloeQkgIffu43Zo5WVdTQ2KoIoWFCpLbH174vMm7VHa1+/It7laGtcvh2OMUu35kgQkwJ1B5eM4l6uL38/hSU/5Vx5vy3uYffG1TCzj1LFkvZ97sZDjFq8Bc9T+F8+1lAoVLjz5yfDuUMnRU3qefnsmVKf3NvXH71nrDWkDDo8hWKshSIljJwAzpkeFgO4vpReX3wp8YyFN6WXew4BuP5zIAPDOr3KfRiGDBmCzz//XLGMutRTt3pS97M3a1qzNN4b1FohuPTseTK6vfNljqQR9mtRE5R2xzNSR7TH62jpff1iWndUL63MBiFq6O31e3DoPF/CwNPdDdN6N0aXV6soDqkWxJzZtyk36Ek7oDm7bt067vAbkvdds3GuAHChoYOr+Y48Tg/cMBesBXBX8dUoaeTgoitiYx64f/ZSKOT1iBQKUTJfrvwYB37dppj0r776Kg4ePKj4nYosyKuibiz2ZpVLFMBHw9sy4Si55VQhz/uDW4OqMOVGXukr41bY2yW0ajyFQvyxff5A7rYnrt7F+KVbkZKWrliex9uDlcE3rFpSE4CTkNaiUR1QOJ8/91ikqEk0itzyBhVAqwGzkDe4wAsF4HFRsYh8InQ2ksmkGP2S4YLrbhkuXW/smnneqglg441yXsxKx4FTGY8+S5MAXKRTdP/Pbg+cbiMBuFi6TGOLjY7ElAGdFbegZMmS2LJlC6pXr65YZq9l9X4+Xlg2jl8YQg14/3tgeZuuzMxNEn/6ZFR7EMDJ7b1Nf2Dr4UuZ2b3dbEvpgFN7NEK3xvyO79S15+jlO4rxBuX1wbppPVAsNNBoGXG7JGG88+gV/e8kVCWKVvFOvFmzZiAKRW5EV1Zr1AUvNe/N8jP0VZeOTqGY8sB1OrNx0TFOABcnhCUeeEkG4JJCHl0dvbQjjyhmlZ0cuAjgomobBTyfxcdi9qi+iI+NMZr71GZt9erVGDp0qOKhuHonAv0+4AeKchpV1MSsfjpwHh9+o3zAs3K8rWqXwwdDX1N638mpGLjwB1y7J+hU5AarGBbKXlbysng6t7jE52gxZS3o601qoUF+2P7+QLjJdFXiE58zeYG/JeqRebw88NPc/sgf6Ku4XHv27EGXLl2QmJioWObpnQcdRnwI/5BCuR/AZaX0lgC4a1p6t5u/zrKL7IQc98D1AM5oE35DhxwDcBdjCiUjPQ0/bVqF3375TjH5582bh1mzZoHAXG51Ri01RL/tCIGo72T9ymHcEWV3Jelfi4Yjr0rLMHqZOII8ryW3dvXkbtyOQ7SP3ceu4O31xp2g1NQIbz58ytQI7zw2KBu+1a8ZujZUcuXkrY8fPx7Lly/nDrVgiUpoO+RdneedWz1wnQaKvCOPBR64a2pK95t75hCAKxPoLZkENlg3KwDcpXKPRUE+gaGRvAIB6Zjpk61kMZkHriulF9cTha1ITja7PXDyvkU8FlMU9+7YjO8/X6YofqAsFBID8vVVej0LvvkLmw/YBWVmNGVqlyuCVZOVOde0Uo+5X4HAITtMLfebvFDSzd70m30Lg1lzjShFlSpOeY0ViL6avnonbkvkZutXKo5l45X0HXVPItolVcebq+mQ0xhJtKpx48agzjtyc3P3QP85X8LFRQz45SIAZy3VZMBtLYAj4z+XlOTut35/VwrgOQbktgZwhrcVunwQ5Jev+JNcAeCyHPOb/17CygWzEf1U+Umv1qXnXkQMOr+90ZrnPEu3oTjDiZXjuccgOVzi77PDfp7XH8Vl3C4dl/RYSFgrOt7+snhscV2ouIcCkzz73w8H8N3eM/pFP777OkoWVDZKlnfkeW9wa7ThBILyduz1AAAgAElEQVRpR507d8bWrVu5x6vb+nVUebUjWyZw37kJwN24+ezsXHXQTpWYmlqqIeM/JCf2uP3He+SRiZ3a9B3bbDEvLNmHLQFcdJZdynV4N8i/YJkITQBOHHiAUszKyANn0q7Zm4VC94Y8cH0wVVckROP6YMow3P5PKd9J3OLPPyt7SRIADVjwPe4/MebOLblRWbUuZaI0f0kpkESc8/jlW7M8nbBRtZL4cFgbrtjTwfM3Memz7Vl16jm+3xD/PKyDfaUSBRRjYSJTo5cz5UUKpB9bMY473q//+AeLNx9iy16tWoI1wiAOXG6mGjZ458mLlm/MRP6iQtPkFwbAxSbqpAduCYAnxfe8vfcDHoBnuyduKwAXiV/an2vpVlODgsJqhGcWwMWqSJpUOQHg7GR0ZyZSKDSWr1Z8jIO/8ftepqWlKXhwegjX7jiGtTuVkrQ5jSKFQvJi+/xBSgAB8PF3+0Bl3llllJFByoMdG1TiAlj9sZ/pqYGsGkNO75e46mm9GoOuhdw++eEAvt17Bp1eqYS332jBHWrbmetAXaDIyJsnr15uKSkprNfl2bNnufuoUKclXuk4zMhLzd0euEEDRXhjWQbgGYmxve78tUANwLMVxG0B4ARxeu+b/i7ZfEJQSKk6j6wBcLHyUsdY6T3gnAJwuQdO40qIj8PkN9pzHwYqTe7du7di2c8HL+Dj7/chJVWZe5uTIOLr7YlPx3ZAzTJKoX+SO+0yZyOep2RNf8+yRfIx3RPSupbbut0nsGLrkZy8NNlybFMZIySI1nTyanw2oTPqlFcqXqalk5e+jI2T8r6/nd1P/7xIB08ZUhMmTMDz58855+SCPtNXIk/e4FwN4AJZIhHlkl4JCwE8/Vl077v7FlLzUPFhpl3T31JKJVvmT2YBXAHe5LSWaDI6MF/ZBg8tBXBptyh7BXC6KzS2yf07ICEuVnGTOnbsyOUZ6WEkGkVL78JsufOSg/RsUg1TezbWFy1Jj09e+PdZ5IW3rFWW0SdyIyGtCcu34tS/9lcAlRX35vUWNTGRU4FKVMbVuxFMiIrywOUm5sfTS3jvouEg7XG5xcfHs2YNJFzFs7I1G6NRtzF6uVXmkOY2DpxSL3Wt4PSqipKLQb/FRkXj6RMhaG+ykAcZN9LiIvrcO7hY9MBzFMQzA+Bc8CZ8C2s4PDB/hUYPNAF4sXx6DlxQLBDM3gH8+IHf8cXi9xXPBH2qUlFPkSJKj3bC8m1G+bpZAQbW7LNIvgCsmNgZ9H+eUZpaVsi47lk4FMQDy43KyUmCwFFap1lzzeXb/P7xMC5Iq+2b0irbv7keT+OeYXCb2hjVsQHX+/7hhx/Qq1cv7m7yBuVHrymf6QSdDMCVuwDcFS6kACkHcHlHnugY7QAeG9733qElogcuD2RmqyduLYCrgjdhb9H6/YMKVml1L9MATgqBurJ6D9JCycZSeqF/h6QiVBLEpN/D79/GnLH9FQ8GlSiTt0MBTbkRJdH2Tb7+hC1AIDP7GNymDtOb5tnZ/x5gxprdeBJjuzZrVUoWxIYZfClTR+gpmplrzdu2cfVSrLhHq339x2ks2/I3iIYiCizEX5m+Svvy9/dHXFwcd7cNO49A+drNXzgAF/XM9d42UyPUDuCpMQ/73f97GQE4jzrJVjrFGgA3Cd5EoRSp1y+wULU2d60FcJ6crL0BeFJCHL74dD7OnVTytB999BGmT5/OfWhaTfuceU32aN/P6YfShUO4Q7M1J612LAr41h0l8LovktHXz/9GtkPZovnMnjZRTPO/+hO7j19l+uA8jXDayahRo7BqFb+pSHDBMLTsNw15g0JzP4BTQwciqXVeOPtHJjzw1Oj7r98//JkI4DkK4pYCuFnwpmtjDYCzLA/d1HUEAKfxbv3mC+z8UalRHRoaivDwcO6DSJoV1FnGHq1qyYJYOamrQqFQHCsVI1FRUmYtrEAQVk3qyi31/vnAeXxgg2Nkdow5sT1lpMzo01Svv6M2huv3n2DgRz+gfLH8+GJaD+5qhw4dYs0aKH2QZw27jET5Ws0MWCYBt1xHoTA9cEOEkQ/gsXiqRcwKGTd0AE7iPFK6RE6dZIsnbgmAawJvYh0K1eoRVOSlTre1eeAhCNLngQtTjQ/gbgj29xSWZ0NDB3MUCgH4lfOnsPKjd5CYIKRxSe3+/fsoXFgpG0oPX5/3vsn5GlzOU03XfVyXV9Cf035LXP3H/efw0bemu8eYAz8SWhrJaTJA25H37Uhd582dqyXLKQPrwKcjQbropqzDrPV4GBmHXQsGc/VUSGXwnXfewfvvK2M07PlxdcXQed8aqhPpx1wK4ExOlioxVQGc0ERHoWhp6ID0mylR919/cGTFRd09ylEQ1wrg5sBbmkboWqhm18Aitbve0gTgxUMQpBez4gC4zi8X0gjtC8AJ8N4c3htPHj9SPG9ly5bFv/8qmxonJaewnpO/HlcWAlnysGfVupTRsGRsR27nGPGYlNO+8bdTVrVd8/JwZ00NOnByv09fu49hn/yUVafmEPv18XTHtvmDVAOaYmrh6I710b91LVZsJrcjR46gQYMG3POlXpe9pyyFb0A+Q5/LFxbARfUlCwH86d03HhxdRQAuD2BmO52iBcDF3CQpiPMAndW90Au+YI3OgUXrdL9pLYATZpO4rOgF0/wiPfAgOwTw7d9vxLZv1yseFk9PT1y9ehUlSpRQLCPwW/HLEYXinL0gTFiBQKyZ0p2bISKO8cDZG6ww6fKdxxYNm+Riv3+7L/J4Cy9jqc3d9Ae25xLZWIsuimxlSiuc0L2hnlKU74touNrli3L7XNK6ZcqUwX///ccdQuWXW6N+u4Fw0dEKOuxW98AzMhAVfgfx0RGgIjUPTx8EFy4FT28/WXm6ofRe2iOZeGd2DNHD13v6wvrSZdLtpFK20i8yvSct2dboHHQpkOJ+5R64Pr9NyoFb6IEnR97u//DYGjmFIgXzbKNTzAG4kWetYy9MgjetU6Bah8Bi9XrdsA7AhbQTMY1QfHuQB26PAE7jHNalKbez9/Dhw5nMrNySU1JZD8QnMfYZzKTxUpYIyc3yyrLF86EHa9Sin3HhVrhqKzD5uVcpWQAbZijT2qiacMaaXTh/Q/k1kxkwdMRtaU69r1JVaep86HmjnO8NGzZwV8uTNwgt+01GgeLlBUCl/9LTkZaWivS0NAbIz+JjcOXE77h8dDfS00w3tg4qWAINOo+Fb2ABuHl4GGgKSSK13QC4qHXKA35LATzixsCHJ74QPXAeWEs9cXE53RObpxiaAnAeeKv9ZgTqBaq2Cyz2cp//NAF4sXwICvBhfJy+DEHSmFgcoD0D+NL33+Rmo7Rr1w5fffUVAgONRfjpTpLa3N7TfC/JXkCHNLqpb6anh7LMWzrGs/89xA9/ncVfZ/4zK/v63dt9UaaIMtPi8MXboDx5c3PGXq5NVo8j2D8P1k/voZqbzzs+qQ12794d165d4w6P8r6rN+pk8HozMhAf9RiPbl9B5MNbSEu1rpF1cKFSqNasN0LDKht59gyxctgDp7ReygOXfgGI3rnec0e69qbGSL+ZLAA4eeCi160VxHmUS6amkhqAWwreNAg9hRJapU1g8fr9rpt7GAU5WWkhj87zlnjgbMcugJBGaH8cOJ30pbOnsOidKYob4ePjg99//x2vvPKKYllUfCJaTl2bqZuXHRtT67VVk7uCuqqbMkptIxnUGw+fYsXWw6oiWCdX8dUP1+w4BvrPaYYrQCmFG2f0MvsCFbcg8P7pp5yJIXjlyYvSNZujatPeRtr3dgvgOgJIyAkXOXAtlZjpN59HXB/06MR6KYDLuW9zFIrUK8+UdgoPwKXgLf6tmf8mvM1fuXVgWIM3rlkC4CL6s8nIRiWcl3Ehj30C+OOH97H8g7fw4O5tBf588sknmDx5MheXRi/eguNX79o1ZpFu9fiur6Bv85oWj5M6+2w9fBEx8YIGR92KxTCrn5C6Jrf6Y5fbnU6MxSecBRuQONU7/c1/BV2+fBmVKilFwbJgSCZ3WaZOa9Rs0Z954mR2B+AicEs58HRLCnnSbz5/fG3wo5MbRABXo0i0grjNAVwetDTLeYvBSzHDL3/FloFhrw74VyuAS9MIqXWZ1BwBwOll8+XKRdi/Ryl9SsFMvogQcPLqPYz6dIvd0gYE3mM6N8AbLV/KUhyIffYczSavZvnPJNDkNMMVoGsyp39LtHu5guploWB51apVQaqDOW0e3nlQr+MYFC5by84AXJhX4uxiAVPJP2K0VmJmpN96/vjq4EenNllCoWjJTrHq1sk9cLnHLYI37VzNC1cAfL4KzQNLNBx01SIAl7RUkw7KMQAcuHzuJJa89yZSOQ/RggULMGPGDMUNiklIYpofRy8pm9hadTdtuBFd9zGdGmBA61oQFSJtuHujXVE3mQeRsULeke6h2n/uBqik/kW2wiH+IL126iwf4OuteinGjRun2iYts9ePcqipCXK1atVAlOCJEydYQ2RTLwv/fEXRrP+78PTxsxMPXMgDZwAu+7/4oyUAnhR+ZUj4P19aSqHwAptyTtzi22WElSayTCyhUFzzlW8aUKLRkCuaALw4BTFlDR0kpyECOAti5rVPCoWGS18OUwf3QFSkslMPtVu7ceMGewDkRnoWm347ZXc9M7s1qsq0utWM2sd5e3sz0a6sAnjKctn690Vs3HMK1NXoRbEKxUMxvVdjVCtdSPMpf/jhh0xELTIyEvfu3UNycrLZbem+kVZKcHAw+48CfnRPW7ZsybJZeIVo4k63bduGiRMn4ubNm9zjtBzyIYIKlrQPAGct1WwI4I8uDQ0//bXcA6cDqBX1aKVTzN4z+QoigMt5b0sAWx+8FCmUkHJNAks2Hno5swDOwFs3Qk93+wfwM8f/xrL5sxU3gR6KlStXYuDAgYplJBDV4a0NSEnLGs1ti2cEpUW2q4sRKpWStL9jx46hX79+CAoKYgUj9HVh6mG3ZgzSbUiC96eD5/Htn4YWY5ndp71uP6pjfXRpWBnBeZUqjebGTM8b0SmHDx8GyciaMwJsegGXK1eO5Y4T3WeJnT59Gt26deOCOIE3gbhdcOA6mV3m7qp54DGxeKqlEjMj/VaSAOBXzJTSy0Fba8WmJbfAID8ioUisok2kFEtI2UaBJZsMv2Q1gOuzUHQAngEwALfTLBTRA2c54V1bsIIHuY0dOxaLFy+Gu7u70gv/+W9W2WgP1q9FTVZOT/w3z8jjooeWHl7RAgICULlyZVAzi+LFi2fJadALjiiV7/byu8pkyUGzeaejOr6MQW3qcKsrs3komg5Hz3fr1q1ZphXPes76zq4BnL5AxCwURqFoBvCLw8JPf3NZokZIp69GkZhLMZRvp+naiytJOW/6zZTnbaqc3mhZcJmGgaWajrhoKYDrP3SkAK5z6ymN0BEA/K9dW/Hl6k8VN8HLywsnT55ElSpVuDeo5bS1iIpLtOjm2Xpl6k/57sBW8Od0yKFjxcbGYsiQIdi8ebPqoekFRZ3PR4wYgTx5BC+Szj1//vyoUKEC+9taExo9bMOpf+9Zuwu73a5SWAEmYcBr3GC3gwawa9cuUL2DowG4oVRQcMstAfDEhxeGPz7zrQjgWgKUWr1vcV+ab7mU/tCid6IJ4IPLvBJYqumoC9YCuIFT1WlyA/BwAA6cLubt61ex7MM5ePpEWWJO4Pf5559zbw7xvMSH55RVK1UIH41oi/wBfF1pyqTp2rUre2AtNaKQBgwYgE8//ZRxrJmxu4+jWad6adl1ZvZnL9uSOiOVx5syajT9w76z8Pf1BlEtal9J2XlOBw8eRKNGjRwEwF0U88YaDzzxwbkRj89+LwVwU3ngWvlv+T403UYRwLVkmIjf1Gqgr99HUOkGgaWbjT5vOYALY1aTk7X3IKb4ObNi4Vyc+Juv2Mdrekzn/O/dCExfvQv3cqBzfYGgvFg1qQuKhSorRmlspG5H4L1161ZNk0q+ElWikqypGnjTPPnp4AUmVVuqUDBWT+6GwLw+qlogB8/dxKQVuadbfaCfN/7433DutaVrs/PoZby78Q+j5SULBmHt1O4sOyWrgsjCS5KaqqgXbJvKgLEvCkWgS+QvfgOAR+NphIZCnoy02wKA/yClUMRsEl57NXOBTfaIqTSHMPu80Z0hUtbSyktegY/+t6DSDQK0Anip4kIlJolXidpgbL7oinnEPxmFYudZKOJYz/9zDIvmzuRefAJCtWq5RT8exDd/Grhls3fPBiuQ1sl7g1uDOsKoGTXEXbp0qVVHCwkJwZ9//onq1atztw+PimfNnveduaFfToBBuedUQMSzW+FRmLh8W67JTKGS+aqllBknaenpeP/Lvdh+hBIe+FarXBG0e7kiEx4j/RpT6YambuCz5ym4HxGDuxHRoL/T0tIRGfsMBYPzom09fg56dHQ048CPHz9u1x44CVrJRbDEATOhLEs68hgAnIKYPPrEFF2iJbApvgQ0dT+XArgpL5zOV6uX7hJUqn5A6eZjzmnxwEsVz29II9QV8ehf+BkZEBsdUxAz0EEAnFIKpw3rh4hwpZg+NXsgDrlhw4aKSU+deqhjT3YaeXE1yyh1y8UxUFMAtYa45sZJWQ5Em1AAl2eJz1Pw6U+HsOXgBa4GeJu65dnLRW7p6RmY//VelmLo6Obq6oLt8wdxlQX3nfkPU1ft1HSKfj5eKFEwCCQHTA91/kBflCocgnz+vvD2EgLndN1inyUhIjoe9yJiGUCL9jwllbXMi4hOYMJkoYF+WDS6PcoVzc9tdk3b0TwmauzZM6UoW75i5dGs/1y7CGIqAVyihEgnYiGAP7t/dmTEuR/lWSjmuHBrgd3k/ad7TSIXPHpEnh7IA3DudlYBuKyQR/hoE3pikjkagCc/T8KInu24VZbvvvsu3n77bSY0L7e/L5Cok3VUhaYnXbcSCVQtGdMRdSoU426WmpqKN998EyQFYO5FrHZcNTVGcf3dx6/g7XXq3YkIjIgbrhgWqjjEF7uOY/X2Yw7f/KFGmcJYPLoD8nICx7VHWvfVY8k8kK9Leu0Vi4fi82ndTe6GOk6VLFkSiYn8wHu70UvhGxRqhwCuq8iUltJbD+DyQhxzdIlaB3vedtISfdV7QfBIyZ9qFIo8sKnFC3cJKlkvoHSLcWfNPfj0qcw88EBDIY80Md2RATw9PQ1LP5iDM8eVPTMpf/rixYsoVEj52UzdxokeOH4l6zRS6LoTPdGnWQ3VQNjXX3+N8ePH4+lTgRe01Ih2WbRoEfclRfvadvgS5m0y5nV5xyANlsk9lF8rVNjT+72vrWoqYem5ZOX6fZvXwPiuryruA2XcvDp+RVYeWrHvqqUKok+zmmj+Umm4cZwLcYMzZ86wmIhaEU9ggRJo8vrb8PT2tQ8Ad3VDOjL0vT91TrfORbTCA793ZlTE+c0ihcILYNK+1XhtcyAv5dOlBf/cuSACuBagNhfE1HvsgSXrBpRpMf6MdgAXKhSl/qije+B0Pof/+g1fLP2YmxdOBTB//83POjl4/ibmrP8Ncc8EEShbW5t6FTC7XzN4eSpz0ulYJEvavHlzPHmirCo1NxaiiBYuXIj+/furBr/+PH0d8zb+AeouY86a1SyDdwa0YNSA1GhmN564Cs807MPcMXJyOWnNDHqttmIIZ/57gKEfq6dr2nLM5P1P7dkY9SoWQz6VLCTxeJcuXWL39tQptboFF1Rt2gsV63di2Qg5XsjjSnKyQoKyLiYrALfUA9frgWsLYj67d3p0xPmf1DhwrRkpciCXgj6PjlEFcErMNVe8owbwco+c4XBgiToBZVpOOK0NwPPpPXA1AKfwJgUxA/MKkqbsc0HkyyVZK6wxskRLnK0rkaY1LBOuBe1D7/Hr/hb2zW6x7ji6dSV0jvC5YjiWdF/SsVH2xv/mTMelc/9wLz4Ff+rUqcNdRhope04oW7Jl5sGlsZGXtW56T9XdUCeX+vXrIyIiQtOhyJunKkzKNKEu6GPGjDG5HfGu1LjhzPUHmvZfrVRBLBzRjgssjXIBgI/t3AADOQC+4whlnvALZDRdODMrebi5okBwXlQuURDvD26lKZPlypUrTBdFrVEyHTJ/8YrM+3ZxEZ7m3AjgCXf/GfPkws88ADflXZsCaC1euSqAU2KuFgpFi5fO9hMYVjuwTKuJ/2QawPVgLOiBOxqA0xX/5+ghRqXw7KWXXsLu3btBXqvc6BO67/vf4M7jaFs8r2wflKL38ch2oK7wPCNes3Pnzjh69KjJY1I6YKtWrVCvXj14eHigTZs2qgVK0h1REG3Oht8s6gfasnZZzHmjBbfRb24G8C2HLmD+V3ttdu/FHVFLu/YvV0BIgC+a1SgNahxhzqgG4IcffsCwYcNUlTVpHyRe1aTfbBCFIlouBnBqaqtGk5gTruJtZy5DxSSAW+Jhm80DDwyrHZAZAOcW8jgogNPFmjNxBG7fUHZJoarF9evX4/XXX+fenKt3I/D6fOoebhvbs3AIQvz5hTp0BCqDv3uXz73Xrl2bdTqndEAKvlL5vJ+fn+aB0TlMXbkD+88a0gXNbUxfQv1b1sI4lXTC3Azg1+5FoM/735q7RJqWF80fgKFt67KANUvH9fPR5HGLO6fKWlIhVAtY0nrkcTd9fRbyh1W2r4YOEgqFxqlQJWQnaUFDh4y02wl3T419cmGLrSkUaRWmGg2juN+EL+SBq2WYmPPM+RRKWG1/SwFcyAMXzKiQR1JK74geOKVBxkZHYcaoAUjgCAxRQJNoC/o/z8gT+/j7/UhOsV7sioSR1k7tpup5k4IdBaUOHDigH0L58uWZwBFly5CnnRmj7kOf7ziO7/dZpmNSv3IYlo0TWoDxLDcDuHi+l26H46vf/1H0T6WvW16BjZubKyoWz4/6lcJAGS4e7qbb4ald26SkJKZxQqqE5mIhbu4eqNlqAMq81EJRLJPjHjhrqaYuJ6vLSUFsVAyePtHGgesAnDxwa/huXpBSq0fOBXCKIGrKLtEI9C4BYbUCyraadEoLhVI6jORkBa9QFcB1LdUC/RyLA6dzIgBPS03Ft+tW4rftW7jPC9EWJAXKM6JSPvlxP7YctC7n2dvTA+O6NECPJtW4IkkkOzp37lz873//YxKkZcuWZXnbRIvQ35m1X09cxba/L1mcVfNypeL4eEQ7LnUijulFAHC16090lKDWKT41mb1Thu23b98OykKiOWlOltbVzQMvdxyFsCoN7LKpsdAT05weOBATHa0RwFPvJNw5OfbJxa1SCsVUQY9WHRSteeJGN5ruPpFgPABn+CPhx8156frlAcVfCijbevJJbQAuKeTheODSQp4ABwVwOq246Kd4b8YEPHpwn/ukTZs2jWVv8Iwq8kYt3oJ/rvG3NfXoNqpeCv8b0U61GIOkR0nLgkr8SVaUpGKJHrEFMAz93484fyMcNH5LLKxAIAtcli4cYnKzFxnALbmeWtelghyi83bs2KGpu4+XT1406j0N+YqWZ84or9rR3j1wdm0yrAZwUx64KU9bbTuLg5mmAFxLIY9IsRiBe0CxmgFlX5tywnoAl2aHCNOPCnkcGcApa2X7j9/gh01fcJ8noiyo4pFaY/GMquQ+/OYvUIoheV/mjD6lG1cryYBQzfbt24emTYWmDcRtU2oYeSzWGKUEXrwVjqexz7Dl0EWrFQOpke+0Xo3xUtkiJodBXXyoDRuVfTuqUdHMzL5N0aF+xRw7BaJKSOqAgumfffaZ5nEULV8H1Zr2QmBoMR2vbMcALjZ0oKp53RkaaaJYDOAnxj25uE0rhWIuOMkDenMvBv19IgAm/sISsDYbxLQawKVpfbohSisxHR3A6cKt/ORD/L2PX8BSt25d5gGrGYH4r8evsvJzU+bp4c6KdKgxg7dKrjfx3b169cKjR4/YrojvbNGiheYHmFak0v+dR67g3I2HLKf70u3HiE+0PnedGviSyh4F3cwZAfdr0z93aAAn6ViiiYirzm6joCQ1GaH7Ty3SCMi1mLuHFyq90hGVX+kMFzehjkAUvbJbD5yKknTgnQUArpXT1sKXa01DVAC4OapEDeB5QUwXiwFcV4lpaHyk5MM93V0Q4GffLdX0EV9JY2aRAmJ54wAe3LuDOVPGIImjH0F3hTJBrl27ZrI7CuVQT1u9E9RTU+qNU/Uclch/P6cfqJ+imlE2AXUwv3XrFluF0hlJabBoUb6cKX1JPU9JY8c6c/0+Fm8+hJuPrKvQ5I2JZFGJ6vloWBvN1E1sQhLavbUepKfiqFYkXwC+mNZdkeNO15t6TlKWEk9uQev5Uh0C7YdkEWif9IVFFbJnz1oWTKbjEaXm5uGFtsMXIG9IIT0g5goARwZiNAcxU+/E3z4+PvLSdms8cK18uDmwNwJwygXjUiEqv5v1wP2L1Qgo99rU45opFJMALgAfpT/lBgCnkzn45x6s++xTpHD6FtIDS5Vu1L2HimPUjCiEb/eeMVLkK1MkhH2OU+BSzR4/fsz2v2fPHv0qXbp0wYYNG1h/RLnRPdyw5xQ27z8HUg60pdELh9T0ujeuCqq4tMSIqun09kaHBnDKy6eXrTzeQFkfkyZNYi/UsLAwdllI1ZGkF6h3JeXhi1QXAXRCQgLrhUn3lppuEHCTPXjwgHnX1EhEq4fNuwd5/INRpmZTVG3UFS6u7vqKRmNv1r4pFLkHLnIpYhZKJgDcHN2hhdc2l4XC0xRnt4qwkQDcWg+c65n7F6vhbxsAN1Q75iYAT01OxsfvvomL5/g9Hqn5MQlBkZKfLS0mJoYBA+WeS+3ll1/Gzz//zNVmodl56uo9rNlxzKogqtr4SxYMxuw3mqN4aKBVXWhINa/rnE1ITHZcD7xU4WD8MEdZA3DhwgWW1klfYqL5+vqyFyz9X+qZU/CZCm0oABkXF8eA2pzjZMmcqt26PwqXroaAUPo6ExoiiCXpLyyA3zo+IfJytnngai8Am1jVtZQAACAASURBVAA4F/j9i1YPKNdm2jFzE4k8j9JhBjErV11kQa2hQ27xwEWqaOyA3njK6WIvPmDEUa9evZplhWTWCLypEGfJkiXcXVH1pbl877T0DKzadgR/nLqG1PR05v3GJyaDvgZMGeUik94GBe0ow2T2682ZzrQ5I0+SxLTI65RTCY+exqH7u186tJiVGoBTPIL6jhIg54R5+fjBP6QQGnYfD78goUpYWgDjkACuS9rWBy9lWigWeeDaAZwuna09cCOVQvKg6UnS4oFrDnRaA+BEGxs1dBCmjV7LJDd54CKAhz98gEXvz8Hd2wIXLTcCLSpZX7duHdc71vpwU8Dy/fffV20+S/shwDDV61J+LALzf+9F4Nx/D1kw05SRtjRVARbLrz09kTzLOXPmMO+S0ivlAH7/SQx6zXNsNcKqJQti/QylLg19DdH9yG7LGxSKklUaoFiF2shfrKzB23ZwAHfV5YGzaKP+s0G4umIEMiYqGlGaCnlS78QLAE5CRea4ai3LpeuYErjiLWMUilYA15wH7l+0WkC5NtOPavXAgwMMcrJ0UZUeuAvriRng65iFPOycdEFMuuKGYG0Grl25hHkzJnMVC8UHuESJEiANcRLPt9R27tyJgQMHmq2mo/126NAB27Zts/QQNl+fZEpJFItS2yZOnMjiAXK7GxGDPg4uJ0uZQlN6KvtJZjeAE0VSq3kvENdN/wmz1cBpO7oHzgNwAcclXemzD8At9cpNvQRMAriaV24+iGkjADcoCQpNjXMbgIvnd/LoYaz+9H+Ii4s1CYYEsNRkoXTp0lwBLHFjUhKk8nxqokzyn5bYyJEjMXv2bBQpYjoP25J9al2XAnE3btxgXe1F3Q3i7ElXPDcC+KLRHdCoWknFuWUVgLu6ucMvMB+8vPPA2zcANZp0RYHi5bmcdq4GcBdDc2MG5OnUld4SD/zYxMjLO8QsFNGJz0xxjiVBTKknzgCcUg+0UCha1AjZOv5Fq/lb64GziLxEAlb0yBmFkss8cKnU7ZED+/DVF2sQ+cS8jCsBXI0aNVgmQrVq1ZA3b17Ex8fj6tWrLJhFet6UfWDuC0gNWCkfvUePHiAwt0SwSitQ89b79ttvWSbMb78Zd+jJzQD+16IR3E48a9aswYgRIzJzOUH6JIH5iyC0aGn2fxdXV3h4eqNQycrwDw5l34NGmtiyIpfcBOBUSo8MF0ZGi5ahK4YT+XytAJ6enno34faxCZGXd2QHhWKuyMdqABfBnB/ELFItoFzb6UfMAYgYxGQUiouLgVrQyzvIOPBcDOAZGem4ef0a3prI7x+p9jR7eXkxfljM+RVTyDL19FOna3d3lvUwf/58BuRZZaS5QTICFKwkvltuuRnAT64az72sBN4E4lLzCwhG7/Ef4OnjB3gWF4PU1GS4uroxoCZv2j84Pzw8fYxAmTxuV3cPuLLUPwGhpZkjLwKAUz9MaU9Mdk0z5D0xhVJ6LRx4FgG4NWX3bBtrPXDbAnigIGal54ZfQABnifguQExUFN6bNYMFNs29AK0FVcovL1uuDK5cuYq4WPOZDqT5TWltxKWT108NHEqVKgVKd7TECKSpKQDlKtMXAglomXvhvIgATl9V58+fN7q0BYuXQZ8JC2Res9AmTArE3L8ZcL/AAO7qJjZU48vJ6krpNQP4raMTI6/slFIoWoWozGWkmFsup2kYgFOOmuYME9m6tvHACcB5ZfSSLBT3XE6hiABOT+3jRw+w85efsXub7ZsbN27SCG3bt0WVqlVw+vQZzJ452xIMZgBOzWyrVKmip1cI4CnQSrx5njx5WGEKcdjUIIK4eDE3mf79zz//WNRnkyoHKYgpL3Zx9CAmdaM/vmIc99p7enoqxKTqtuiKV9r0dQK4WBIvpgFK0wFpmfiy0r3YmAcuaqGo6YFb0NSYeeACgOcUhWJU1CMCuKUcuDkP3F8zhVIiP4L1TY2F+SyWhUqbGud2DlwK4GK7tsiICEwePYKrI24R6upWfmPA6+j7eh/xK5J5b9FPozHwjYGa1OesOWZmtxk3bhwraJKnET6MjEWPuV85bB54pRIFsGlmL+7l4SlBNu06BDVeaeMEcBsDOAObDO2l9C8EgOctUjWgfNsZh81RAIwDlwC42BNTz6AwD1z4lwdpoeRiDpwH4PRbWloqfvjqS9y5fQvnz55FooqGihpQli1bBhUqlsewEUOZvooRB8r4QODuvXvYtmUr9uzeYzKdMbNgbM32o0ePxtKlSxUqiY5eyDOwdW2M7dJAM4D3m/gRQouVdgK4rQBceuXtE8A15ZBniQduCYCX4Xjg5IMLsC0EMV9kAGdfJC4ZSH7+HP9du4b4uFhs/flnXL5wQZUjp6yUHr26o1TpkihevBgKFKCsAwGseQAu8KgZOHXyH+zavgPHjx23BmuzZBsK6C1fvpwFVaUWER2PrnO+dNhS+s8mdGFd4OVGeiYFChRQ/D501krkDc7vBPDcA+CmApeaJWjtC8AZJS9wKE4AlyoyCoJe7Jqwa6PTS9c3fTa86IT1jP+tC2GZAXDh0tOsotZvM6dOx5OIJ0woKavNw8MTPnnyoGGzFti5ZbPR4aiRLulUE88utadxieg0e4PDill9PasPyhfLr7i0mzZt4hZsjfvga7h7eTkB3EoAF+e2UeaNePWZB04deaL0z4D+xoiej+4HCygUazJLLA1iptsFgAexSkxKI9QZB8BJTtb/BaRQRA88OwGcpVkBePTwEXbv3MWCkDeuX8e/VyluYxtzc3NH5WrVUbBwEZQpXwF16r/K1BmH9+tudADKfCHdalLgk1pc4nO0nbku1wE4tdcjaV+5Tf5ksyLjRLxPziwUicAWL4jJ8sB1ZfNGGigiKguFPFoBPP7WkUlPr+yiLBQyc6BrbrmpUnqzL4EcB3DGget6YqoBOA2SOHAngGePBy4HBmqJFk0eytOnzAO8e+cOjhw6hAvnzyMpMVETolMQskSp0ni1SVMG2NTFPCR/KPL4Cp3tRZW7wT06Gu2vb9++WLt2LctukdrzlFS0nLrWYRs6qHngJNwVFSV4glJzArhwNeRNIxS57BoB3EhOljxwywHcHrJQct4D5wO4nBJwAnhOeOC8Qg+jvGO9N2MojEhKTGI9MN3dPeBOtIdKhR97GDkiSXIA79mzJ7744gtFRWh6RgaaTFqFZ0mOJydbKDgvVk7qyu08RHKxVE3rBHBDvIbutWhOADf2+O3MA2eShBIxK0NKodMDzz4OnPdpLhXEl0qLCkAsqWzT5eKKAJ1ZACdKgUrseZK6jtrUuH6l4nh/yGsI8DWmheiaOQHc2NNmHEUmAZwah+gFS/RRfN1xdG59THSMpq70xIHrKBSnB65PIwzw1cnGClfXoEboBHDhemRvENOeAPy1114DldsTtSA3RwXwXk2rMxVCV+lEBxh1QsVQopCXk0IRrkBmAJwKz8RCHukXn0ihiPooWuVknQAumZUE4GXC8iM4SCilV+qBGzIqPNxcnRy4cJGyPAvFngC8SZMm+P7777nqi44K4K+3qImJ3RsqXkjUHb5t27ZI5rTac3Lg1nHgpgBc9MppzzFPoxEVKfR5NRA24j8MvzgB3AIAZ4Cuy0hxAviLSaFQu7effvqJ6a/kFg9cDcAXLFiAWbNmKfRhvPP4YfR7G5xZKFYEMdUAXJ5OGP00CtGR2tIInRSK5EksUyIUIRwPXMwDdwL4i02hkGwuNZkoVkxZ9OKIHjjN6/6ta2McpwqTp0JIj0qhsHLoM/4DJ4BbAeBUAEZf+vo+ZDwNFaKvnjxlueBaPHCOFoq4GS9lMPemEdJZlwkLRUiwjkKhvmoyLRQngL/YAF62bFn8+uuvTP0wN3jg1Bf0nQEt0Kp2OcX5qAF4tfqt0KL7cCeAWwHgVABG9YHSZswMbY1EsDIQ+TgScbFCQxVzFIoVYlaMypd0cLPZ3zmahcIAnDxwEcB1l04qZiUAuAs83FyQN4/wNhV0QyRgry/gNOiHS/l0aVWnYd8GYGQvDUmgUIgt6QKHsn0bXjCGYym3N0wBV+n2uo1F2VxpQwc1LRT5vl80DrxQoUJMerZ8+fK5AsD9fb2xcUZPFAsN1AzgLXoMR7WXWzkB3BoA9/TQXzdpUaUcwCPCI5AQF59VAG62IEcDuHP3kSUA7l+kmiY1Qi0AbgBswM/HHaRK6ATwrC2lt6cgJjWVOHToEKpWrZorADzEPw/2LByqOBfSSKeep7/88otiWc8x81C0VCUngFsI4JTORhSKmH1iEsAfPUZCvCAbkQUeuFYAt9Qz1+uBa+l/Sbip1tiYzlu/zF9jRx7aqFypUATpGjrovWZGo9DhjL1cX293eHk6ATyrtVByEsCH9+mK1NRUPYhREOrEiROoWbNmrgbw69evg3LeL1686ARwCVAz7sHKPHC9FrisjJ5HoTx+9BjPHBTAremJaVIP3MM3v1f1votPm5OTpQtZpVxh+Pp5sdeeXk5WRzvIAZzAm0Dc6YHnXg985viRePzwgRGInTx5ErVq1crVAH748GE0a9aM21bO6YFbV4npRgFMXXKyPOvESD8mPR0E4IkJQgWsKQ88Iz31dszNQxOir+65rpuQ5rxmc8szo4WSNS3VyBuvPeyrC1oAvFqFIsjj48WuhTIP3NgDd3XJQICfF4hXdnLgBtVGufpgZtUIc9IDX7LgPZw9dUITgDeZtBrxico+mgqkt6MfXqlcAkvGGeu90PD2798PynmXG2nG9BwzF0VKVnRSKBZQKHTd6OtNBGRTAJ6elsYAPOmZoOtjkkJJS7kefXXvuNhb++7qVjUH0PoEGJVAprntpQAv/9umAG5EsdQe9tVFrQCe188baWmsT7YA5GLgT56V4pIBHy83+HhSMNMZxBQzdHITgH+/aR32bDfmgdU88N7vfY3r9yPtCJ7ND2XeoFZoW6+CYkU1AA8IKYDOQ99ESGhRJ4BbAODU8Fns4mSkuaO78lJAT0tNQ0S4NgDPSE06+/jk1yMTn16nZrKmwFUEZksAWiwM1ZqOaLYrvZi0YXHLNa0AXrFMQRQtFIi4+GQjABczQQTPXDARtIPzejkBXHdhePrfjuyB/73vT3zx2RJNHvj01buw97T4JWsePO1hjYNLRsHHy1jbnMZFxUrduxtL6dLvJSvWRJt+E+Dt4+cEcAsAnMTURDMJ4C5AclIynj6J1OSBZ6QmHrv924JhQLJWgLYUwLUGPJkHS89/XpXgpFrQUvq7KrDrKBQ9m6328OQP8UPNysUQF/9cSM7UiVnpC3k4AO7j6YY83sLnkVr6nTONUPfS030UihF48fNQmhermOA6PXBr1AjZfo1ybOVdgCTCVxw1wnu3b2HO1PGaAHzVtqP4fJf9dA/S8oI4ucr43MRtRo4cidWrVyt2Ua1+S7ToMYKvZ825T86u9ICrm6ugfyKdhzz1S11++PPEJAbgyUkCHWeKQklLSTp69/e5lEZkDmhNLVfruGMJ2NsMwOmcFUBea/D6HXB1V1ZfyKaom5srmr9SHs+TU5GcLGQfGFBflmvtKlxad1cXllLo5irmhItg5cwD53nklnbkyUkOPCU5BSP6ddME4HtO/ItZX/yqBTftZh01AA8LC8OdO3ecAK67AnoHw8IsFOJfpdy3HpAzhEoaqaom/TM1JZV53k8jIvUSBjYCcK0eulag59Erqh64iKNqaYNmqZUKneb18M1fcq6WJ6dVo4pITU1HUlIye60pAFzOiWcAebzd4a1PKXQCuD5uYIOWajkJ4BnpGRjSq5PRtNm7dy+aNm2qmErXH0Si97yvtUwxu1incIg/ts0fyB2L4DEaQQdb76VGbdGk82CnBy4DdqWksQDODLx1D4P+a5NHvbDfMpCSnIqkhGfMAxfNFIAnJ0SufLD/f8slHrgIwGp8uCVetSXr6p1daoliMcetw1npdkaUS3BYzaCSLScf1vLkFCsciIplCiExMRmpaekGAKfqSH17NVGFT0Bz4sP983jA3c3FEPSU5I07KRTxpSa4HY5CofAAnLrSjxs3TjGV0tMzUHf0Mi1TzC7W6dOsBpOR5RkVrMmN8pg7DZqOkpVqOQFcA4C7uuioExkNIlKEcqqQgpdpaemIeRqlr8LUe+xGaG6A9KjLu1vH3DxwTwOFwvPAzdEuWQLgdCqWeOIMyP1L1Aoo22LCfsBFyBE0YTR3WzasCLqgz56ncCgUHVUiYacIwElP2d9XoFIYqDsBXNf8OHNNje3NAx8+fDiXH6Z7XnvkUnPTy26W/29UezSprmQV79+/j6JFiyrG6e7hiVHz1sHDy9sJ4GYAXE+dEFUi1ADqjQvg6RlITU1jRUIP79wz+vox5YHf2vVmFU72iSU0iNZ1TWW46IdIp0pKUrbwwI324RFYxKti+9kfeHj7tTX/BGWA8sELh/ojNsGQ18tgWd953ZAnLnrg9H9vD1f4+rg7AVyvuZL5rvQ5DeBDe3c2eqBIUvbIkSPcaeRIAL5iYhfUraBUVVy8eDEmT56sBHBPL0xY8LXR15Ncw0PuVb6oQUx3D3edYBW5ccbRSzmA06OSnp6OlJQ0Vj4frdMBN3K6OR54WnLiwbt/zBtloTCVuTxwKVBr9cD1c8UcgGvJRFHlwyt1/eANn+Bib2kB8IL5/FGtQmEG2AnPkg2bmAJw3bI8Xm7w9nRzeuB6JUfH9cDp2Xtn2gTcvX1TPweooXFCgqBTITdHAXB3N1csn9AZtcspPW16QR07dkxxbvmLlET/KR87AdxMKb2bO/HeQh23EPyUAbhYSs9WENZJTk5BRno6Ht57oIg9qHngMdf+6BB17c8bGugTa0BZ3IZGaQ7IjQCc2n2bLI3n8N1a1ncp12Z6Y7/CVRa6uLgEmAbxDHi4u6F21WIIyOuDpORU9nbUudU6WkDngYucuKzIRwBxVz1n7uTA9ZfPoThwesA2rV2Bfb8bZ5eoFYU1nLASic/tv7FxiYJB+N/I9qD/y6148eK4e5cK+4yt11iDiJU+e0KKTc40QlCcgKou9QFLKYDr8jakUUZakagT4r7jYmIRGx2juO5cAM9Ijwg/+02XxAcXqeuDOYA1RX9YWqwj35fR8Mh7lgK4Fo+bTtgcgOvplJoDP//e1d2rmjkApwtbomgwKpQuwN6I1G2cglRS+VRppgVkAE7L8vq4GdQKJVWdYk65GBCVFgbJ/zbklTvlZHMiD5xu28G/fsf6lcbBSTUAH7n4Z5y8SjEl+zbS/6YqTPLEpUaf8pRCeO+e8hymLNoseJWi5yjNm9e5my8qhcK0k9yJOpVWjEg8cBG1ZekiaanpSEtLYyBOqYPJz5VSDDwAT4l7vPj+wcVf6MBbnsct57WtBXhz+5WclcFBIwAXaRAtAC5fx2RhT5WeH4/y8i/Ir17Qz2TdNw6AejVLIDjAB8kpaUhKFgKaBpCVeJWKMnsXuLsCvt5uTDvc6YE7rgd+5MBfWLt8sRHQkUKhmN8rXbB6+zGs3amkH+wNzjvUr4h3BrRUDIuokzZt2rCGxlLLG5QPw99e5QRwlTxwKpV34RXrSN5oRvEA3cuP8r4pcEned0yU0vvWvzDFm8Eol7T4pMj/3go/vu5PmfdtztOWOv/myuO17stonhA2+pgIYprN95aAPzcQ6hkU6lW12ydntXjgtI6frxca1inFQJsAnICcB+DG3rgIVhksI8WPgbjuN30aorTIR1ymU/VzNnRQdCiRe3bSAghlDq6kujKTlZh0HB6Aq+mh/PnPdcxYs8ve8Nr4IXMBRnWsj8Ft6ijGOX/+fMyZM0fRB7Npl0F4qWE7J4BzANxFR5voPkKMr5H4uSL7WqGfUwi802muZuDB3fuglFWeyT3wjPTkfx8cWNY75VlEkhn+m+dBW+uN8wBdMVzCRu9MZKFo8twrdf2wv09w0TfVnzKDB07rhBUNRqXSoSwYQVSKeKENIlcSD5s20GdgCCBNWYW+Xm7wdBdyxJ0UiuPkgROAX7l4Hqs+XYjYGIOH9Pbbb2PevHmKKbT/7A1MWbnDrgGcnIpdC4aAmjnIbebMmfjoo49kgO+CToOmoXSVuk4AlwG4i6sb4OqqTxNU0HwqAJ6aJvDe6WnpeHQ/HGlpBs15+T2RA3hS5M1pj46t3mmmeMea8ng6tCUArwrg5jxtNWpFXsjDpVPyVW1ZsHjtvptc3NyL8580YwD39vJAnWrFkNfXE2np6UhMoiCVgMR6b1zkuOUALkZcXcCCmj5eQgMIqba4kwM37hGo9LYFwM8pDjwhPh6fLpiH//69op8utWvXZo0d5Hb88l1MWbXDrgOZvt6e2P/pSMXYqQvPwIEDsWXLFqNlwaFF0GnwNASHChkrTg5cgFRXN3dDlaUYzDUK6opzVvhRBGLyuok6ScvIQExULOJiRCFBVTTSL8hITT57e8+cviqetynaQ22ZKS9dDuZygOcCOBXaaMkDNwfy6l19PD3dqnT5aLJX3nzKXlLipZZ9zXh5uqN5gzLMg6a3ZkJSqr7iUsBsYQND0FH2m245NYEgSsUJ4AYdCDa5xXemrFuJABY5C+A0hkXz38HFs6f1E7ZChQq4fPmyYgJHRMeDVAnP33zEfxrt4NePR7ZF0xplFCOh86lRowaSkyVps9Qntmpd5oEbBeg03qfcmAdORCcJVEkrQdRK6SVJhPo5Tvo6Yupg+MPHui96Pn0iBX76O/7OqX5Pzv94xgpP2RItFDUvXBoc5c5kwj9PjQBuqu2a2eBnvqptChav3fM7Fzf3gsqRGHvg4kUMyOuNl2sUg6e7G+PCn4uphRYAOCG8D3ninlRma4jWMvDXNTKW/u3MQsl5AKf7serTj3H88EH9VCldujROnTqFgABlRupbn+/Gbyev2QFUK4fg5+OFfYtHcMdGzZqpC4/cXm3bBy+37Mb/AjLyOJUv2twG4JQiyB5cnYmwy4vDyH1B0fOmbZKfp+Dhg3BJhaZ5AE97HvvjoyNrP0hJiKBUFXPesSVUiLngptx7Vx2sCODmvGtTAK11mWv59nM6+BUsu1ArgLu6uqB08RCUCwth9/B5cpohqKnnvSUNIKReuc49FzlwCmoSpcJ4cd0AnAAuUWczAwzZGcSk23Pj+jW8/9YU/VTx8fHBypUrWeNfudlzIHNYu3oY0aEeF8DJ+z57Vhnfn/DRV/Dw9H6xAZw5WALfLU0hNQZwY2liKYDTNqkpaWxbEsmLeBzJ0gcNJfZmADwjIyb27qlhT89vpialWjJIeKBrzguXetimtld1TgjLSPncnHdtMlVQRdhK/lJgx6j+xuq17l55XjUeEd8DFzxjFzSoURwhgT6g3O+ExBSkpwn54TqMlolZCQu4aYSU5eLjCi/KN3R64BZxq9kN4DSbh/Q0bj32/vvvY9asWYrJTA9pnVH2J2oVEuCLj4a1QY0yhRVjTklJgacnffwaW/kaDdBxwGT1GMSL4IG7uIDSBMUcMaOmxqInrnPB5Zrf4jwllUGaF5Rn/+hhBKu8FAFe9odyPgF4HvNg/sNDS7/hpA2a4r2zyks3CeCUDW9NV3q5563JEy9ar2/p0Mot17q4uktmtTqAiyN/uXpRhAb7MrB+lpTKVAuVAM7xxqVZKLo3jZe7C7y9XMEqcGXeuJNCsQ8KhZ4SygU/euAv/eRt0KABtm/fjuDgYMWE3nf2BqbaWTbKgFa1MK7rK9yHr0ePHti8WSjUEc3NzR3jF2yCu7vnCwngYpaCq6uoayJcGSmAixw3lwOnqZuegZRU8rQzWH+BJ0+e4nmSJMagd7zVPfC01Ocn7ux5h3R/eVSHWraJpetqrchUBW8R/8RyJi2ATNuYq8Lk7Ufym6drxc7v9M2TrzilFQoqVOJrUzJU+eX19HBDzYoFUTCfH7s5iclUTZUuC2yqALgQmTOSpiXZYB9PFyaGxS6Ejg93Arj9APiTx48xY6xx3PvixYuoVKmSYlLTC33YJ5tx/oZ9BDOL5g/A17P6gDJQ5Ea0SYcOHRTl8zVeaY0W3YboS8O5WUC51QPXed36wK3Ep2MUiq5wTwy+8wA8Ix1ISxUKdcjjfhIRhefPjQPE5iiU9LTkK9HX/5gQc/0Ar2mxFu5aKy1iijKRHscsgFOKBi8d0Gxg0ooKTj2t8tKg9XsMaYXmPXDxLJrULYFAP6EnZuLzNKSkii8yUxkpBgCXpyISzx7kS3oKutJ5Bua69fV/KxX+pNK1yheA4fWjU7oVhLZ0r0xRucEoR51zLN7XgVRawKDUaCxe5cg9MaU6RM8SEhgPHv7wgX4SFyhQAI8e8UF6+5FLmLfpT25jBJNPgY0XUtD99/8N44I3gdHHH3+MGTNmGB2VND3a9B6NSnUaq0jH6tzBXAjgoNxuClZKvDa9KBVre2ZYwANwsSpEzDZJz0jHvbuPWLm8wkx74GnJsQ8/un9wyVe67bQEJs153lrK49W0w83OTBGkVRsz6MBd6nmbA3b5uqrr1xiwZpObh08dLR644UwyULNCQRQtmJfpSqSkpCOJBSsMAK4HS91GAhCSeIIsC0U3Y6jQwsfLBd7uLqwIyAngOZtGqLtbrGpu1y8/Yst34vMk3FDq4N6okbIxAolaTVu9E0cvKVuTmX0SbLQCFevMH/IaapdXqg7SIUjzpFq1aorS+bCyVdFj1GywQhVuymDuA3AG2kxFUBexkoCriIpsLpgAcGS4sHmSSoU5GcCzxOcIfxQh6CjxzASApz2L/vrOXws+4Oh9WwLCcg+c929zNIzBKzUzL7Vkn5gDbHEfvH2ZpFOK1O9XNrRCs8Wubh5lpG9f8QFWuwME3GGFAlCtfCjzatPSMxCfmArm2UrkZ+nKSb1c6TLBGRbuJuuG4pIBDwJyRqvQXp1iVjlVyCPefzr+0YN/YdOaFUhONogOtWjRAnv27GGNa+V261EUur/7pY3g2LLdFAjyw6LRHVC+WH7VDevVq4fjx5WNsqOxowAAIABJREFUmAdN/wT5C4eZCCznHgAXHkoCb51rpa9JkHjakkIcPYAzmQbhqRXXpMwSqhOhfyc+S0J4+FMh20TNVAA8NSFy9d19H1N3ECm1QXuxxAs3ta58X9Lj8IKfmiaf+JVuSSGPGqCL+6ADa95fhQ7vdvAtUOpDZIh8uDBu9RCD4RvS388LjWsXh6eHkGqU8CyFXW3xpARwlpRDSMDdeBmtaKBQqE1bgI/UG3dSKDmRhUIAnpqagvmzpuLuLYM+uLu7O1atWoUhQ4ZwJ/nDyDj0mvcV6+6UHebl4Y6ODSphQrdX4e2pC+vIDkxiXBMnTsRnn32mGFLl2o3Q/o0JbA7rwjW5NojJvjCMFASNdXTEi6PwwNmFcdEX59A/6ZpS0FJ49hMR/jDSBG7o9swB8LTkhN8eHv/8rZSYh89UApc8vtoc123O8zZVkal52uppVhOpgOYyVKSALV9XDubcQGmlbh8M8A4sMslF0n5NC4DTzoMDvFG7ciFWdk8C7c9TqdOGhBdXBXDSSTGIWUkBnA3SJQNeHkKQU8hW4fPM/CwWJweufwkbBaOEHAL1YhPDm5vNfh2affX5SoU+OHnhO3bsgJeXsmMfBbEOnruJeZv+QEwC6Q9ljRHX3apOObxcsTheq1ve5EF27tzJXjjh4eFG6xUKK4teI2fDK49f7gVwF4HUZEU50vmgg1t5QFKcO/qXmQQMaF26v+nkeVNT4pQ0RD6JQXy8gL3quMEH8PTUpCORF3e8FX/v5GMT3rYIxnIgt0S8ivcS4HnsFk1WI2dVBuLWBDbNed/Ca1TpobtW6rZgsE9g4UkAmI6gVgCndalDffmSIShdVKjSI9GahCThM0rvgcu8b2GZDMAlPLpIoVAFL8nT+nq7QJRyFrgiWcNloyCoE8BtCeAUzBw/mOQojG3YsGFYs2YNd8LTw30nnOgUY/7coqfDxMoE2KQuWCSfP8gDN2UE2tWrV1eAN/W8bNl9KKq/3Fzncec+DzxD53FLaGwRtg0vcvGj2gioRYLTmAMX+lim60rjU/Hw4RPWWV4wywA8PSXpWOTlrdPj755+olJpmVnANgXaInjTwKVAbtEU5QG4lNO2pMDHTPqgArgVx6na59M5nnmCewuEhpoZKBT5GqWLBqJK2RB4ebixFMPE5HT2lpZKzxrTKxI5WX3ZAD+IScfy9RJ6cBKQOwFcKnZlWzlZvQemc8Ho4d+05jMc3PubYlIcOHAADRs2VJ0tUfGJ+N/3+3Hk4m3EPlOK92t5WjzcXFEwJC+8PT3QoX4l9GhclXWQMmdUrHP69GkQ782z8tVfRpfBpHki8tu5A8DZ+bhQZpcLxFgiA3AhtGQGwGW8uC6IKRblUGEOBSijouLwNCpOCHBKaBGtHnhGWvK5uDtH5kRe2kUaDJYEKaWAywtGygFZi86JlDEyN62MlkvxjBaogbfWYCeXItGwX/12lXt8PMbbv8CoDJ0nrjwbdQCndQvl90VYQX+EFaJPUiBJR6mI88diANfFycTMFspSoXJ8L3cwisVJochoERvogfMAPOJxOD6YNRXxcbFGU4I0Un766Sfm4Zqyvy/cwpW7ETh68TbOXH9g9lO7YHBevFq1JAqH+MPPxxMNq5ZA/kA/ix4ukr+lLwTqOi+3avWaoW3f0UZ8sMNz4GJfShYCE0wEVLl4Gps1Rp63wG/rt5OIraWnpyEtXfiiTkhIQkzsM8TFEWUiO4hGDzw9OXFf7N3Dn0Rd+Y36W2oBbx6FomU7SygWi+aWuLIcwE2BuCnpWBGAxe15xT6mPHvDdp6ebpU6vjfY27/QRLgIdIqxmQZwWpfSAiuWCkalkkGgPG/KUolLFBpDiPQHO6Dk7KWphwLtovPcdevIUxMJyMkT9/d2AQU9jfPInRSK/uG1AQdODzbJCv/8zUb8tuMXxYygyszIyEizDwBr1fc8RS89G5/4HLfDo1gP1mD/PAgrEARX3aRwd3PD/9s7F2BLjvK+f+d9zn3u4+7j7t7d1a5Wq11pJaEFKXoFA7YBl2WQBBQV4wQ7xEoqNkWZqthlKnGC7YDs2CEBOwU2VFIOKped2IiHAcshyECQwFgICz2R9r17pb3vx3k/JtU90zPf9Ome7jn3nLtndr9TJe09c3p6er7p/vV/vv66e7SUgxyb8RXzU6/XeajgyZMn+UCb/Dl49BZ42z/9AIyMT0rjAQlV4Dy8K7wvpcxWPcBZoHc4wobXHe9Yp93iz559lpbWYX5hpTtEMIYCb9fXvzD3g//1UPXS82yxeZ0bwwRnMchm42LBaXT5Gl8cdFVQBXAM8UG4UGTIY/j717vhXf/plwpjO34ulU5viQtwAY/RUhbuvmUato4XOGxrjQ402MQfz1w6gLvRacHEG7fAyF8uOgLPr87SjxUAsukU3wmIwVx8aCKPrMLiD2KKxjz36ivwu//h12FlabGrPrPBzCeffBKOHTvmhoVehs/s7Cw8+uij8KEPfQguXgwmH+Gi7N53CO59zy/zkEEBKlFfE6XARYtg4BauLu9Gu/3d0vLFjudLQem5xPW1mcOjS3iIoLcY1ewri3xqvPJjCfB2fe0Ls9/9zG82V2arKFyQZakbTIzj/ojTGcgg77m2RtV0G8WNVbXKzRLlemGFVnUQ/vHDb/m1Hx+bPvL+dCaHhvjNClw0CIYONgV/z9Qo3HF8J2QyKWi12VoJHWg0A984vyDeY5NbRQdw123Ch1hCG0wAZLh7hblW3AgWN1/32dBMzGDD2bhRKNjN+fffeRw+9bGHlBX+8OHD8NGPfhTe+c539twgejlxfX0dPvGJT8BXvvIV+OY3gyVw5byO3HwbvOnt/wy27dzTPYAnfL1e5Q0DzX7VSL1tXUkbcmngpqR5U8Lp3aIxpY3fY9275O8OKiUtIM11U6C2cZgCnl3JfNwOG6TsOBzeF2cXoVyp8cAE7ccEcMdpNcvznzz/2O99Cm1KLDChisG2UdYmlS7nIdwwfYO3y5Xojyks0CZSZUMQ33btndsOvP7BR1LpjDc7Ih7AvdrFX41fe2wKrj+whd90s81ep93lJnkBfdCGBzH9yT/CiY7dMPIOQSLSxfuXDXqO5MW2bjSVXkyP3gjA2bmPfulz8BcP/w9lzWWTe9juPWyz4EF/2CDlgw8+CA8//LAbk4ylp3TxIzfdBm9/7wcgXyiFY7xRdR5mBd5hS7tiAAvg+2LafbPCHQ8nJL+/IH4bD2IKE/HQQHCg03LbI/vMLazC3DwbpLSYlBgJcKdRWzz3W7Pf/kPme2OZRSnlKKib1LgNsPsKbxuAcxGJBiFNqtzk545U3CjEUJTN96Xf8nOf/KNMfuQ2SDnu6kAGr5H7czfsZ3aOwrV7J2Bm1yhk0mw9lQ6wJRPEimcBzIXOcMkuFLcoWJcClxW8953dAJvZyQY92Sq2LHiB1kIRqg29NqNBK/Hk/FdzSR2uLC/Bf/9v/wWee5ptlKL+HDhwgK83wiJATpw40ReWLy8vwxNPPAHs309/+tPwta+xTcqjP6WRMbj2hlvhvp//QEiByrHPLviGyQfOSMdqubv+hN83heK4vXsXLpQugAcDkyofODubtTs2f4Mpb6ay18t1WFhah4ofMWThHtYAvNOqfW/l1Ld/e/mFv37JYoZlXHjz4qOJP7YDluI8U9Wx+t2kwANeBREqJoiLIWjh28YKXNUhyLBWDohOzNwysff2d7+jtHXvB/kqhj0CnF8slYK9O0bgtUe3w5axPK9EzLVSqbMqK6lxz4wywPkLIVbgLA5cfMc+cP98d9CTAZzt8FbKh2eJhq+rjzG/mhaz0gGcmXT24gX4rx/5DVhaYCG8+s8111wDx48fh/vuu4/vP5mJOSj5/PPPw2c+8xl44YUXYGVlhYcFrq2xPRXNn10z18BP3P9eOHj9zTyxx7mhVeBc63KfdootMRJsu+cpaSG28X3gG3Mh3R1Nwu89tIWf4+bP31rcjmutXIf5hVUoV+sQFt29AbxVX//K0g8feWh99mk2uq1Tx/i4Csg6SMeFt3CfiOuZK49lChuAXy6IK9X8yPSh0aNv/Y1vQCpVjHIB6RS4bJdd20rwptdN+zv1MIgzmAuPiTBQCODIR87/5AtgBVPxcRQ77s38tF4h2Eq2EyWmzB20iFZ0jDkB3DWeiC/+8L/5JXj14oVYKxDec8898MADD8Cdd94J09PTUCwWOZTPnDnDfdiPPPKIcqccqzaVSkEul4c73nQvvPFnftY8JX4IXCgd/k4YDv0TM2ZFOwi5vbzeCAlfbx9Vb50SxFz8piGm2XA/d6fNo0nYVomnzs7xGZW4kwtsHRPgjlNbu/DD988/9dknDOq43/DGUI/yj1tVI9tEtgAfKojPvO4dB7cefv2/yI1suV93o7YAZ+fnsmm48dAk7NxS5Mqcb8PUdKDVCiImuLbwY8LxQlhuCVQAFz0QS40HMYNOIVgVolRgMz4Bsnwg1AO6d3PhvMMDomI4KTxZKTx5yZ+h1jVQZT845g9Q4WgBHz6Dn8gjmrEAggD44vwc/M1fPQKP/fWXbOv8wNJt2b4TbjxxF9x8xxthx/S+6M2hhe02HeBuTXQVsevME4paGMY9hus+jhAJv0m4Gbja3JeZCoC7sycdcNodHha4ulbl7pLF5XLoechlMfpKfeoDtJuVb61dfPLji09/ge1+LZznNoONskLG302gF3crrrNp8BZQjlOhsSqWXSS6wUpxHZPrRaW42bnK80amDpR2Hr/3pm0Hb/ukp8a7K4LCB66/WRY5koZtEwV444ndUCqkgYWf8pUO67zKSzM6w1EsIci6Kz94YPcAj6JasKoPu2HcqBWmyFl+Y3l30hABPBw9gRU4AxEbTDx98kfwBw/9e2hKO7zHqdy9ph0dm4Cfevf7gIUITu3ai9wFEcvybiLAWWfn+OF+gZsDq2rskjQCnO+vgKe6uxTtBjiLJGG75LTdRad4LHcZ5hbXoV5vSjvtuNbvEeCdyuwzv7x88e9+WJt9dsmwDRpWyjpQm4COoa5KK1/DYiS2t9oXR4GLKyh91HFmW8ZIa4I/7LrhrXt23/r2D2cKI3eIdVSCThnJG6N9sGwA2LWtCHfdNAWTo2wyRxrKDTYbDDjU3UJpAM4qN7JqoIyDKBShxjG8XRUf5M1dJV6RcpkOjBWBL3fLAJ9mLhfPMle7AschhpX1Mnz2jz8OJ198DtZW2TyNwXwKxRKMjk/C1K498DPv+VcwsXVKM4vw8gDclRvMzZQGhy0kJahoCCMUMWlytBBvT36H41VSKa8wwL0uwJv2ztwklUoDzs8uu9udRQxgxQO403Fa9e8vnXzit5Zf+PLLyGUiACtQYFLFJiDbKHLTNQZSGXsBuICq0kdtiFjBqp3lg2dsRsHa2GnccP9H3pcf3/HmdDZ/vB8AFzg/uGcUpreV4PDeUSgV08BWKHVjybvdFEx1u4ORQWcgA1zM8hTAxg9AbCSBDeymc/NjadkgaCHr8JhzNh5XzLL48ytzR56oQUy8xoZvbQ4VB86eOgk/+N7j8NTfPQ6vXjzfl4azbWoX3HjiDsgXS7B75ho4esvtrmKMmEXIfuQtH+sIKX04pLK3KJQOV8MC2mwA0ou3DumX7jhwH8ze6KSwoxrgbk1VRqPwrN01uVlECb9vb2Bydb0G84tlvjZR8EFiSXo6tgDvtJvPtqoL/+f81//zpyVfN8vRBFMTsE152Ch33In0pQ6qMukV4P2AeBSwdWuLy50G6gTy6a2Hbt06c/vPfpD5xt0q0rsCx1WMTccfKWRg23ge3nzbTr4TEPeTt9ggjGtWf3MIBcD9qfneEwg2ksCB+JKiRyO0GOCptNhAylXsDOQsPxaiOF50IK9Y+vZK9oFjBe766b14ZMeB1ZVlqFar8PzT34cv/vmfQKNuv5hVLl+Am153F/zjN7+dD0pmcwUYnZjkm0iEoauOfXZBNBiAs7zbbJUJHj/d3UGImh/qONBEmxCIpeiYoFMSPvAwuGWAc3tz3HlrcwPA8moVLryyytU233y8i9cbA3izuvSnS89/9VPr559ZBGhE+bpVU951cN4o9FVQHxi4RcYbAXhciCPYhhbN0vnSY/nEfTYCpPeceMehHcff8h/TmdwNkEplTCGH7rmoUuEFzhSPgKnxW66dhPGRDIwVs1BtOHxiEJ8sxl0onmL2t2cLT8XHABfXdpV7cDFx8yLqhBvP87kE3sdgbRd+rpjaDw4PUyzlXFcLPy3l/h1WWckfxNQBPACRZ2HvxtmEm/NnTsHFc6dgbXWVrytdKBZhcusU7J7Zz33Y3TvFBLNIMfyEusYqO3TdDQDcBbMHTwZstnUYG3TE7JPyV5UtqNlqBe7/HgrzC2yG60sI/GxNbt6DuDHc1VoTytUGnL6wFC6j1LS62prUvvQK3Gk5rcZTyz/6+m8uvfR/T0vuEgHPOMDGCtk00Nkr9Ice4KKAqhmbpkFOHdDjqG8t/Ed2Hxmdue3dP1Wa3Ht/Old8jdmS9gAXMeC7thRgx5YCd6/snSoCi4TioVEtd/CG93DIr40HL90fgygUFcDFNHx/Nqh/TlBWF9DeQub+TKjgd26glMNdL0ytizLlM+4xP7oEv6xEgWfIolDiAhynF66CMHQ1nZyn7gcBcE4Sb1CQ1xvGxZTrw5YB2xvAg4crAzmUf7gJdMWB8/cbPhjpgrvebMPcQhnqjTYsrVb4RByltt6gAm83Ko81y5cem/vOw19sNlfYO68Mah1gVapYlCZq4k1UfrrzhCkHNmCpYthGFTjOM+60eg9H6igTL2Odzxyr80ilPjK1v7jv7l9818jWfb/qh4YoaR4P4DgLtogVW2flDTdvh6P72ZKjbl7rNYCmR3KumtlhNggpqnkEwPnmyuIieDMKz2UiQOzefHgvUFmh+y4Uv9B+r+K+MbA1Y9gaLlnXFRP56k8A37ALpc1XV0x7Mx2DmuTPxPQcclG+c5fsYReN3LmIehieRONer8uXLb114rcLnr7DNg123SpMaT/38gL3d7MoLXQHfQd4+ZVnP7D4zBe/3azMM/+XDGTV9zgqXJVWBX0MZ1OnoKTLoA72E+CsjFEQt/m9V3dKVN4+4I+/+2MfzhbG70xlstPdBu0d4LjWMn/5sf2jcHjPKHexTE3koN4GPujJwxIdE8C9mHEDwPmD88HePYiJ2O+HeIU97l4KeVBNdDRswDTtuLHpXvy7UKy8c0HlC22TxmfWeZDwqj1Wfb1sqSarZpZt1CBmePJIGFiDUuA8XE6E1vk2dd/EmPvD/02YHdvIO4ZZKAAqyOE/log3pQDM7kxHfwhI4x4JDRHJAPcGIh2nDfVGCyrVFlRqTTj3CnM7KXU2qmdS64qpwJ1W88VmZeFvzj/2+38cAW1TnLcO9nHOE2qbVzmvLFHQHxSntfn2G+ACpB5etOpaXFcHfAFdG3eKSo2rzuNl23fXzx8vbZu5fnTq0K9CKj2C1YP/t8EH3jUqo6jP7NDkaBZ2bsnzf287MgHFfIb7yZlqqTXcRiZcJ/hByLv9sHjCYFVDt5Tuee6FsfvFV+TezYjzeErNOhaB8gvicEV6DBBWDnacGVdAXKCagZFBnYc5guPuWuRBJOkAZ1O7WasVkOb/IpUcDJx67z4+MLsVsrBn0MkFfm68GBYGuNCdgkjBM8H5u1b2bY2+YAUu6jg/Jne0/IA76Mg2UJidK8NapcHXT69UmyHVriaKZkszS4A77cZL9eULf7I2+/STqye/ec5ScQuzqNwq3g35ZrFxf0SpfJ2vXNejDRzogwC4zxS0OFUUsONAWrXOiug0bDsFD/i5zPF/8vu/kytO/IQbP94fBe43ENwbeH+zjSZ++vYpuH5mxHWPpADWmJulLa81jtdVkWZ5ihh0YWUNwPHMTAxh3MDxdlRyww8D3C2fX7MV6pED3Hs11ylw14XkdkYi9JEvl+Sul6QFfqjj8a6tUuDudYNV8VTnsTQugN2YfhaVzL53Ou72X24e3pRwFKERgmMIfApISwAP1Qmhzj0HWTiiJaiDPsDRg9EB3HeV6CJSkAKXAc5KnxKzJB0HVtbq8PzpJT7FXRE+IvprDZh6Ajh/JNW5l/7d7OOf+jK6qKx+xSOIo6BVMFapahO02bWHDt4IAQPpKEx+6qjfRdkEsE1KPU5eobTje26c3H/XL/xidmT8rnQmf52QMdFdqvSrInG4KUr2dQBmpgpw08ExPtNyZioPI4Us1JmbEdw4cwYTH8IszluMU4rdgjYKcLTynUq5hfUcGuyUIYFPNgHcM24IWp5pAtdGoCkEkKMA7v/muwykDSMkenYPenpMwm4GrwiycvWfKQd9YCEftuha4tdwR+h1EP7kGmmKOjKMLk/c0XLwSqobu4+Cusw6JCS5vcFINhtyea3O69vcUpXDO/w4Na1A2zjsAc49S/X1x1qVpe++8r2HH2lWF2x93Daw5f2zojOIOlf8ZjoPK/1oTAwEq+FMB6XAxVUELNl33VR6DGsdiOXjshKXgc/SR0FflMc/b/dr7t03uuv6Y2M7r3swnSkcGTTAhYGYKt8+keVx5ju3ZOHuGyb5lH7RgCsNN7LF57UG4H7EijRLVDxgFyRBA9PCSUAWD3R5rdqv/bwzQUuForcX/GoeYqefnwqwaL1oRBAfkV2z/lzVzOerYHeXR8vwG0C4K9ICHKltH5KScvVdHF6CEA1UfboYZBRqG9+byMPPC4X5SeMSWFSEEOnn73VCwsY8TzwD02OSA9yPfWZ2FWqNNjSaHShXvYkMqPzBnwMBeKdVXfl8beHlry6+9LUfNFdfrcV0ldhAWJVGBWZmqChlHdURbAKezZcYNMB97sRwp8SFsS30bdPB7uM/vX/Xifv+KJXKTEIqNdptRlVrDaeKbAQRCkbkcmRvCd5yYitX6Fm+lngaynV3EJTrKZYHH0xEC2V5J8vrtviNXgKhxztfdfkiVqxrgcvpv/qz5ub5bTF8vGsLgHuTAcN+dxmwCiWKB9aiAN4FWR+OooOQ4p5x+fDfqIcT9lACHIURymXEdhTFCDpMtGaIEuCopkiDjaIjch+QtwRr6JkE6494SdDAZRvarQ5fb6RSa8FL51Zgea1h5RYZAMA7Tqez3K4uP3rmax/5XQ2wMUzF38JisttElVYU26SgdR1AnNBEM1k3KcVmAFzcigqgsouEpTW5S2zUd9S1bEGeOvD6f3nbyM5rX58rTNyezhWOBs9k8ADHV5jemodjMyXIZVOwdSwLB3bmIZN2w9DYh70C4x2n5HVaglatjnH2Hdx+89b5dSVwawAu7KQGIve6+qb0ISWrXVQW7EIRJ+qiUPjeLj6BpUE94eLhmQg/t38TLpcVal94H3BHiFjsvy2Fj7mvB4IWqH8RPPb99b69lAAXgwveGIQEcBwq2Gg0YX65xvd9Zer60mKVwzv8MavqfgHccTrldq38t51m5dzsU3/2P1tLZ9nSgyqA6oCtg22c46awQtwZ2MB9k9Bsd5nNBLjbatyPCdIYsipga6NMpGuIa+KOQj5mBPq2635sV3Hb3u3br73n1zP50s22USjurSoajKYN4bShJOgLc69MlNJ8Es5IMQ1vuHECDuwsuEvdOsBDFtlSuGIWX6gMMpw8yY0VpFC9wTEpsgL7wEW5WHSK4CAqaxcQ3XeHroWfhJnkcoiymACOISYGMUN5Yj8xXkXPRahvInx9/uQwUGUFjnap4a2e/S4GLeQoFK/S8/y9nsfvY7C9cCeGbYo6Fub3Fm9KqU4Hzs9X4MJcGZpNNyabuUZ4bLZFHQshQn5uurqrqdLCiK4t2iuVV1/87cbyudOrF5+60Fq7JDYRxv0ZVspxgNzvtLbK246om5xqswEubk/4qFWANQJVBF708V/RqRjhPnng9u377njPr6VzhcPpTG4aUil3k0PpE6liLBqXDuDBZcKZMB/40Zki3HV0HMaLKXDXb2H/ZqDBt4wLgIT/9uEYAgn70v3qr4KO254NAPfA5gIxgIsAnxrgyIIKHgUKPEyeUAeB3T4o6sO/DwFwRecTCXAMZLEeCXqrCGwaVuCiR8AU63KTIHDy8Ix2m2/CzRaDYuctrTXgzOw6rJY937UCtHJHFK6amsq3MYB3nE7rFcdpra2c//uHFp76y3+QlDbvupDZbCEszhOliwoVFF2LrbvFtgza1rrJrFZe7nIBXBQmjhI3gR0rdVNa1e8C4vgtQQBdTg+liV2l6Tvf+4ZccWxPYWzHvels4RC28GYD3L+2By3mbtmzNQczUznuR2effdtzMLOjwAdJ+aJxbI2NDnDAt9riFoPBTgw6lQoOBgu7AR5ykyAahuCFB0p9g4UHWkMgFTcp7x3pH5c6E9QJ+UIbv4V4mQvgyS21e6DXTeGOPwQDr6GOyMOIm6c3tVx0EOg30UXiWbNsmvpqpQGLK3W+4TYrc63Jpqk3oFyVXSHq2iYothkK3Om0l1qVxb/qtGqX1s9+77GlU9+6EDEgKYpmAieGvQ7YpjxsOoso5Y3LMAyc1pbhcgNcBmSUT1wH2Ch3isi/F7iL62kh7rmCYGzmpi2l8anRHTe/7VfyxUkWV47jMrqNr+3TNdhXptcrqe5f3CMM5PlcCjIMPgCwYyILr7mmBEdnSnwDCwGnRtuBeisFjXYAKfHajtWdEuDSnog48kV0ArhjCBQoplzY3xtEjiD1jpIj9rtvAwq1rQK4W54AyiqAoz7Dy1tUh6CM3QD3ckUdDd+0LO2+BgkbMjV99tUKzC7U3M0N+AQad39WtoNN6BOpA8M/4mdkXflQFppa6GfVaVafXnz2S/+2WV+vNuZeXmk2RSiL0r8tYIuhqAOwTRoTvPv1+1CDWxRuGACuA2QvKtrmHBOYcR42ZQunyY1kDr3xX795ZPs1D6TS6fF0Nn8IIJWza4yDBbiyRkpgGC+l4dDuAhzanYcto1mUrN/UAAAQe0lEQVT/FLbeSz6XgWw2zZdUxR8GH7YYE/PO8g0vfM6GI0FUAA/7r4OeD0MxNENRgFsFcMnH3h1iiNYA8X3cZoCLsghThVQzeotgW4WxvR3Zf2wQUcCa2WduqQGXlmuwsMoiQfTBIMFP0oO5jADvtJunodOab1SWHj//rY9/1tvAEoNZBc04MBa3HRe+4jzsNpGPsTxt1DbWFYmAdyAlhqe4NgCW/ee258hgtlXlJuDrIA+Th+6Y2n74ntvS2cJEacveB9K5wpHoxnv5AY6G9UK1opRPw+RoBiZLGa7WxTR5lmi0mObRMVvGcjwNWzLAB5Hne+ezHd1F7PjsRwZlsQIfTys1H6Eihc/c/1kCuIjEEYWV/fG+RaXzxDWxl5qrGbS+TKjDcdxon7VqE9YrLVittKBca/EYfVFWtvZ1pdaGcr3N/+3+KGVuVzKvSwkf32SAM592Y+3S5zqtynz51We+v/zi357FY8EKH7cO4iYox4G3Cs4ifxu3iSotPm94SGhZkmFR4Li4sg+6VxeJCdAYzHHS6vznXX5yPMiaG5nIQjab2f+P/vlPju468iupdGZrVAMPtVdl49W0aGUAQkTr7/pJM5suIKRUbLRVHIef+/gwONmaLSOFNEyN52BqMsthz/5ja8SMFZmiRxN5umLV3QO8laFp8HLUi4BoqAPSxL370pGtrNdow1q5BWuVFqyUW7C03oLlcpN/l/3Iuk4lFHsYKa6HHeBOozp/+mPzT/3vL7fb5UazyhzvTRnAKuDqIMyOq8CqO75RJW/qLHS/W+Jy+JINI8CFlXpV1kKho1G5rg0kdHl7GkybXve76rh8LPQ9lxvJXPOTH3xXbmzbrelUZiyTL90AqfSEkpNDDnC5Wnd3PpHyMTg9oLB+DA5fLBTCYSFYI9KHshVdkGWxEwlwp7PWblSfBaez3iovPX3p2c99oTZ/Zs2zAwadDOe4AO9VmQvr9wJl0UGIPFSRKX4/PnxYti/RMAN8IyC3Vclx0/UN4ChePVXccXB06rofO5ovjI5nx3dcX5yYvh/SmR3+YySAq2s0ARzxVtkPhuzmdNrz9dWLf9asLJ3uNMrrq6e+/Vxt+XxFETmCIT0IgJvgrOokbEAe5zx7Sg5xyiQAXECT/Su7U3RAjVLYA3eXYDgjNwouq7gX+VjorWHfXe+7ffLAre9PZ/L7+TLiqVQ+5U7Z0b+oXwYXily/SYHrWvzmuFD4MEPH4fPmnXb91PLp7/zewtOPPCupa1tIRwFcKF0VOFXnRfmpo/JSuXF6DTEcYhzHL1pSAC7uLGog0gRmDMeotCq4yn75SH+3V9ioNKqOJxLmWw/dvXPq2I+/NVMY2ZNKpQuZ3MhRNpmo65ETwPXd2xXqQnGcTtVp1V5sNasn2ehwu7L8wuJLX/9GeZZt+uubQ6V6dRCPgrspH+yaiOM+UXUCsisnzkClCvrxCTnkZyQN4DLIBWzjhv6Z/OM6iAt7ma4XG9AK1a4Feq40kZvY/9pdpcm93M1S2Lb3+uKWfW/LsCgXAvhVAHCn0aqvf6dy6cXPO83KWqfdaNQXz82tXnhqXhMdEhfUcnrVEqqmwU2dKjep8H4PZA45gjdWvKQCXKXIVYrXRpWrYKsCdZSCl/PoB8DlMqiALo6Ffpu58xduH997/J2ZXOmwt/JrPp1Kj0IqXVIp9vCx+FEocp7kQtE1SjsXiusCaVccaJdTfGl4p9NcW3xs+eT/+/zKqW+eR6paBeYoWMtQtQG7jeI2AV+nytl5JqCbVLecR6LDAuPiPOkAVwEsys1iC/mhVuARal22B7+PrQfv2Dlx4HU3F0anDjoszi8FmWxx4kgmVzyWSmW3EMBlC3g82pQoFKfZaTXOtuuV5zvt2hx3gbRblfry2WcWn/vqD1u1NbboCYaogKUMzbgwV0G1V8DbQD5q4FK+Li5bL4CPy8HEpr8SAI6N30t4oEot61wsKrCrzg8pYmnRLTm9Lq0KxnLnpDpXPqbs5EZ3HRkrTk5PpLM5Pks0kx8vjU3feHd+fMfd7tK5YrBUqttdUOumHClwNQ+cTmuhXVv5bmXxzLdqC2dPpdhygp2O06qulisr59db6/7O6zKk436XYamDvgniqk5BB2I5rS7+2zQguRF4JxbEvRb8SgO4ElaecUwDl7qQQvm8KACrwB8H8DZAlq+hA70uL9NxUZd43Rjff2Jq67V3nyhMTL82Vxi5zteCfCOJVBFSqRFIZUZTae6e4VMwrwKAO47TqYHjVJxOuwJOm4XiuXON2AzTdnOhVV76wdrcj55cfekbL7dqy1hFq2AcF9C69Nj08gCgDYxxGl0n0IvaZvnqlLR8TdMgqHxf1u9JvUJymM+7EgGO7R3XnbLR6BITwKPgr+p8VOltIB+VJgRoyR2j6gzwMfR3NjU6ff3k6I7DO/PjO3ZlixNT6Uw2j43vpNLZbLY4lcoWptLZ3PZUmv2X3Zbi/ni8/qp3Fm+Kbnu0apX9jgPvdOodp73Y6TQXnXZzodOoL3Sa1Usdp8W2/XJ3ZOb/73Q6jcpyvbIw11g89+r6hX+Yb7X43HkZoMIcquOyWyQK4ir4mqCvcruYjsWBdlRaHYRVsI4LcNwZDDNbN6VsVzrAMayiBiZ10SUq9R1HkdsAO85gJU6rgm0cda47XwNsl2CoVur+DuWbzRYzkC1mstliGgr5dCaTz4CTCa+G5fPb26uNSfniSD4/vmM8V9gynsmVSpDLF9OZQimdzRXZwn6sb0ilOn4ZOp02XyXK6bSZT7nG/ms3a9VWbXW1tb6w1qwsVdxVWLo/bG8G9+5STqvV6KTa9Xar3e5Aq95u1apssV0dmFV9Tb8hroO3DdRVwJaBqesI4gJaLo8qcqUfbhWrvn1T6DkEF7laAI5BLkNV5+82RaLYnoevF+dvVdqoYzZANnUAOkjHBbdsb913+Xoavva9pZggoPpdPhb1XfebCe5RwBVGMKWR1W9c0EedvxGFLp+rU+lR6fpeEZKe4dUGcPy8TO4SnTtkkApchrBJUZuAbPu7Cv46mOvSqmAs1y9VfTPVQdPvcdugCd4qVa06ZgtwE7R1Clh1XD5mA/MogNsCWZVHXIXeq1sl7vO9qtL3u3Ek0XjCBr24S6LcHza/9UuR96K+bc6xgfggwL1Z9dIEc5PqlsFu42pRpYl7DMNQB3UMXTl/Ffj7CXMVrFl5bCYEmZ5JEhkzsDJvVkMZ2A30MWOdy0QHWRtA61S87XH52qqyqFS7MMugFXgU4OUy6L6bjsuPOG6dtQWCLp3quAnstkDWdQBR529UdauAH5WnSWmrOgpb9wiGumyLPjbtKzeruI3hyrVE+M5MgDX9bqOsozoADDV8LRuAy0CP+q76zXQsCto2LhJdnbOti7bphA03G+BxXCYyTFVljlLLKhjjPExKG8NX9bfpdxnuOuUtjus6g6uFK32/z7iNoe8FGPIMe1XZJjjrfNuq86KgLStsXVobqG8E3DLUbb7jTkpXDQZVP01Qt1HdGJ7y31G/mQCvU8Mq2G9UjZsAP0i3ypA3/WQUb1ANJBl3H6+UKneEAHFcYOvykiEalc4Ea537RKegcV3QdQw66KrOxda1UeY2QI/3xOxTD9p9YgP0XsG+UYj3Q3njPEzQt38qlNJoAQK40UTaBFhFR0WmYDBFuV7iwFsGpg2s46TRQT7quK3q3qgLxdQxqNSwzVOOA/E46ntY4C0reJP6VoHdBGedC8XG/pSmBwsQwHswmnTKRtR3XCWuU906OEepaluVLdeRKLUdlTZKYceph3HSimuaXCamdDYuFZ2CtgG4DFfdOTJ0deo5SlXH/c0EevJrb5whPefQS2Po+WJXyYkqla2DvI3q7hXaUYDuN7wHCe5+11EbmNuqcRPYTW4RFbhtj9n6ym1cLHEgHaXMr5ImPjy32e/GMTx3NhwlkWGugnGUCu8XvHv1b5tAjzsgncKO4/+OUumDeqJRQDcBWlbKKiUfB+K2ylunxGX4y9eOgrlKSUfB2qYjHNQzo3w9CxDAN68q2Lha+g3sfqhwGdImtW36XQV9/BQuR53sN8Q34k5RnWurtmXg9gL0KJcIQXvzeGF1pcvRWKwKdoUnkhUxVuo2EO/Vt63zlUdB2tbnbaO0o+pb3Lpokz4OcDYKcZ16Vqn0KEjL0JVVfRzA26pqHejj2O8Kb7LDeXs2jWA4S37llcrkbsGQVQFf/l31XQdqHaRtjqsUtY0KNylx8YT7XUdtoGTrAzfB2RbqUS4RW6Db+LpNoLaxzZXX8hJ8R/1uHAk2xVAVXaXQ4wJ6EO6TKKWuA7KNMsfG3+w6aYKWjR88CtRxIa5Lb+v3VgHfxgUzVA2ACmNngc1uLHalolSyBXQuk14hHeWCiQNpG6WdZID3qsTl8wY5kBkH2KbOilpewixAAE/YA0PF1an0KKWug7ONq8TWFx7lGtHVtzj1ME5alYvD9MR7hbbqWjqQ9wr0OP7vXu7dZBv6fcgsELcxDFnxqTgaoPcT4nEUuQ7ecVW4uK1B1U8bJdovkPdLjZv85ATsqxAHg2ogV6Eph/6WbdwtKgDbqHMdcHtV3JtZL00w78UHLsN0IxDXqfWhr3BUwMFbYDMbyuDvhq4Q1wJRUFdBOY4bJY4ax+W+HHUybghhHHeJuLde3SZxnymlv4oscDkay1Vk3sTdqq1iNg1exnWZxKmHcdKq4Gl6KBtxnZjAHidvUznpd7JAaJdxMgdZIK4FbEFt2zGort8LsE330YvbJKoziHKRmMpCv5MFerbAIBpHz4WhE69ICwwbvG1VeS9ulSvyAdJNDa8FCODD+2yoZGQBsgBZINICBHCqIGQBsgBZIKEWIIAn9MFRsckCZAGyAAGc6gBZgCxAFkioBQjgCX1wVGyyAFmALEAApzpAFiALkAUSagECeEIfHBWbLEAWIAsQwKkOkAXIAmSBhFqAAJ7QB0fFJguQBcgCBHCqA2QBsgBZIKEWIIAn9MFRsckCZAGyAAGc6gBZgCxAFkioBQjgCX1wVGyyAFmALEAApzpAFiALkAUSagECeEIfHBWbLEAWIAsQwKkOkAXIAmSBhFqAAJ7QB0fFJguQBcgCBHCqA2QBsgBZIKEWIIAn9MFRsckCZAGyAAGc6gBZgCxAFkioBQjgCX1wVGyyAFmALEAApzpAFiALkAUSagECeEIfHBWbLEAWIAsQwKkOkAXIAmSBhFqAAJ7QB0fFJguQBcgCBHCqA2QBsgBZIKEWIIAn9MFRsckCZAGyAAGc6gBZgCxAFkioBQjgCX1wVGyyAFmALEAApzpAFiALkAUSagECeEIfHBWbLEAWIAsQwKkOkAXIAmSBhFqAAJ7QB0fFJguQBcgCBHCqA2QBsgBZIKEWIIAn9MFRsckCZAGyAAGc6gBZgCxAFkioBQjgCX1wVGyyAFmALEAApzpAFiALkAUSagECeEIfHBWbLEAWIAsQwKkOkAXIAmSBhFqAAJ7QB0fFJguQBcgCBHCqA2QBsgBZIKEWIIAn9MFRsckCZAGyAAGc6gBZgCxAFkioBQjgCX1wVGyyAFmALEAApzpAFiALkAUSagECeEIfHBWbLEAWIAsQwKkOkAXIAmSBhFqAAJ7QB0fFJguQBcgC/x+C1sDBWJttGgAAAABJRU5ErkJggg==;fontSize=9;fontStyle=1" vertex="1" parent="xpjgmQdCxlFDzocmX1uN-12">
          <mxGeometry x="104" y="220" width="46" height="65" as="geometry" />
        </mxCell>
        <mxCell id="xpjgmQdCxlFDzocmX1uN-27" value="" style="endArrow=classic;html=1;rounded=0;entryX=0.011;entryY=0.459;entryDx=0;entryDy=0;exitX=0.779;exitY=0.993;exitDx=0;exitDy=0;exitPerimeter=0;entryPerimeter=0;" edge="1" parent="xpjgmQdCxlFDzocmX1uN-12" source="xpjgmQdCxlFDzocmX1uN-13" target="xpjgmQdCxlFDzocmX1uN-14">
          <mxGeometry width="50" height="50" relative="1" as="geometry">
            <mxPoint y="220" as="sourcePoint" />
            <mxPoint x="50" y="170" as="targetPoint" />
            <Array as="points">
              <mxPoint x="60" y="220" />
            </Array>
          </mxGeometry>
        </mxCell>
        <mxCell id="xpjgmQdCxlFDzocmX1uN-29" value="" style="endArrow=classic;html=1;rounded=0;entryX=0;entryY=0.5;entryDx=0;entryDy=0;exitX=1;exitY=0.5;exitDx=0;exitDy=0;" edge="1" parent="xpjgmQdCxlFDzocmX1uN-12" source="xpjgmQdCxlFDzocmX1uN-13" target="xpjgmQdCxlFDzocmX1uN-16">
          <mxGeometry width="50" height="50" relative="1" as="geometry">
            <mxPoint y="220" as="sourcePoint" />
            <mxPoint x="50" y="170" as="targetPoint" />
          </mxGeometry>
        </mxCell>
        <mxCell id="xpjgmQdCxlFDzocmX1uN-16" value="AOP Work Queues" style="shape=image;verticalLabelPosition=bottom;labelBackgroundColor=none;verticalAlign=top;aspect=fixed;imageAspect=0;image=data:image/jpeg,/9j/4AAQSkZJRgABAQAAAQABAAD/2wBDAAEBAQEBAQEBAQEBAQEBAQEBAQEBAQEBAQEBAQEBAQEBAQEBAQEBAQEBAQEBAQEBAQEBAQEBAQEBAQEBAQEBAQH/2wBDAQEBAQEBAQEBAQEBAQEBAQEBAQEBAQEBAQEBAQEBAQEBAQEBAQEBAQEBAQEBAQEBAQEBAQEBAQEBAQEBAQEBAQH/wAARCAEsASwDAREAAhEBAxEB/8QAHgABAAMBAQEAAwEAAAAAAAAAAAcICQoGBQIDBAH/xABAEAAABwABAgMDCAgFAwUAAAAAAQIDBAUGBwgRCRITFCE4FRkidne1ttYjMTdYdZe0txYkNlWWFzNRJzI1OUH/xAAeAQEAAQMFAQAAAAAAAAAAAAAACAYHCQECAwUKBP/EAFARAAEEAgECAwEIDQcLAwUAAAMAAQIEBQYHCBESEyExFCI3QVFhdrYJGSM4V3F1d4GWsbS1FXKRwdXW8BYYJDIzUlRzobLRQpXhOWKCotP/2gAMAwEAAhEDEQA/AO/gEQEQEQEQEQEQEQEQEQEQEQEQEQEQEQEQEQEQEQEQEQEQEQEQEQEQEQEQEQEQEQEQEQEQEQEQEQEQEQEQEQEQEQEQEQEQEQEQEQEQEQEQEQEQEQEQEQEQEQEQEQEQEQEQEQEQEQEQEQEQEQEQEQEQEQEQEQEQEQEQEQEQEQEQEQEQEQEQEQEQEQEQEQEQEQEQEQEQEQEQEQEQEQEQEQEQEQEQEQEQEQEQEQEQEQEQEQEQEQEQEQEQEQEQEQEQEQEQEQEQEQEQEQEQEQEQEQEQEQEQEQEQEQEQEQEQEQEQEQEQEQEQEQEQEQEQEQEQEQEQEQEQEQEQEQEQEQEQEQEQEQEQEQEQEQEQEQEQEQEQEQEQEQEQEQEQEQEQEQEQEQEQEQEQEQEQEQEQEQEQEQEQEQEQEQEQEQEQEQEQEQEQEQEQEQEQEQEQEQEQEQEQEQEQEQEQEQEQEQEQEQEQEQEQEQEQEQEQEQEQEQEQEQEQEQEQEQEQEQEQEQEQEQEQEQEQEQEQEQEQEQEQEQEQEQEQEQEQEQEQEQEQEQEQEQEQEQEQEQEQEQEQEQEQEQEQEQEQEQEQEQEQEQEQEQEQEQEQEQEQEQEQEQEQEQEQEQEQEQEQEQEQEQEQEQEQEQEQEQEQEQEQEQEQEQEQEQEQEQEQEQEQEQEQEQEQEQEQEQEQEQEQEQEQEQEQEQEQEQEQEQEQEQEQEQEQEQEQEQEQEQEQEQEQEQEQEQEQEQEQEQEQEQEQEQEQEQEQEQEQEQEQEQEQEQEQEQEQEQEQEQEQEQEQEQEQEQEQEQEQEQEQEQEQEQEQEQEQEQEQEQEQEQEQEQEQEQEQEQEQEQEQEQEQEQEQEQEQEQEQEQEQEQEQEQEQEQEQEQEQEQEQEQEQEQEQEQEQEQEQEQEQEQEQEQEQEQEQEQEQEQEQEQEQEQEQEQEQEQEQEQEQEQEQEQEQEQEQEQEQEQEQEQEQEQEQEQEQEQEQEQEQEQEUGcidTPAPE12Wa5G5axeU0Ps7UpyjsbZtVtHjyEE5GemV8RMmVBbktKJ2MqY0wUloydY9Rv6QtrtnMfFui5FsPtu9a7g8t5QzTxtu/B7whFi0wksVQMU9aBoO0wueA2NB2mPxR9VdLTuEuWuQMY+a03j/AGXP4fzSAhlKePnHHmMGTwMOtbsOEFqYJs4ztXmXySM8C+CfovJU/Wr0o3tpBpqznjj12wspDcSE1IuPk9p6S6flaZOXYMxYbS3V9m2iekNk46pDSDU44hCuhodRPB+Tu1sfT5O1Sdu4WIK8C5D3LAhpv2GNz2xgrwkSXaEPMLDxzlGEe85Ri9Q5Hpn58xVG1kbvFO4Dp0gzsWSBx3uuYwjbuQjV6ZD2SRHHvMnlim8BxkSTNCMpNaAXoVjF8bQ6KgyVJZ6XU3VXnc9TRXJ1td3U6NW1ddEb7EuRMnS3Go8dolKSglOOJ8y1IbT3WtKT6/K5bF4LHXMxmshSxOKx4JWb2RyNkNOlUBDt4i2LJ5wEKDO7N3nJu8njFu8pMz9lh8NlthydLC4LG3sxl8keFXH4zG1TXb1yxPu8Q1qteBDFm7M8naEH8MYynLtGLu1Zz66ekQjMj58wXcjMj7TZii7kfb3KTCNJl/4MjMjL3kZkLOv1L8DM7s/KGr92d29LJ3b0+R2ruzt8js7s/tZ+yvY3Sx1DOzO3E22dnZn9a1dn9flZ7LOz/Kzszt7Hbupn405j4s5jrp1rxdvc1uIVW+1FtF0FkzLfrH3ydVGRZQ+6JsD2tLD64apcdlEtDDy4ynUtOGm4Wn8gaTyBUs3dL2fD7JXpFgG7LF3BnJTKVpuGNuv3jYrefEZJAc4hxPEZJBebQk7W23Xjje+OLlWhvWqZvV7N8RD0Y5akSuK8ITjY8qVntKtb9zyKKNiNcxJV5FHEzDkSDPJQrBUUgIgIgIgIgIgIgIgIgIgIgIgIgIgIgIgIgIgIgIgIgIgIgIgIgIgIgIgIgIgIgIuOTrRlypvVh1BPS33ZLqOUtVEQ48s1rTFr564EJgjP3k1FhRo8VhH6m2WW0J7JSRDz+dRBzWecuVCHLM047rmwRmSTykwatqVWsJnf/wBAK4RBHH2RGOMW9GZejjpprgq8A8RDrigEctFwViUBxaMXPbqRt2iuze2Z7JinLL2yIScn9XdViFmlfBdsvBcmRM4S4dmS3nZMqXxZx7JkyHlqcefkP5KodeeecUZqcddcWpxxajNSlqNRmZmY9GXGhi2OOdAsHJMxz6TqpjFJJ5kKUuCoTIQk5O8pTnOTylJ3d5Sd3d+7rzJcpBDW5O5Gr1xQCAG97eEARRaAxBFsGRGMQ4RZowgOEYwhGLM0YszMzMypZ4rrrrfSDeobccbQ/uMO0+lC1JS80Vk8+TbqUmRONk8yy8SFkaSdabcIvO2kyjv1wznDgTKRhOUYl2TW4EjGTxYkGuTI0Jszs04sQYyNGXdmnCEu3ijF2kv0CjhPqHxcpwhKQtX2ggpSi0pDm9MYnmN3Z3hNxEIN5R7O8CTh38MpM/LaMKqzrLYbwZ3XS5x5UYJxwmXOKfVcZJaiacdZ1+dQy4tsj8inGkPvpbWojU2l51KTInFkc/Pse5JtyTu4mnNhz0fzJjaTtCUx57ExHOUO/hlMcSljCTs7xYhGi7NOXfHR9kjHB+L9DK8IOWG++XAjxZ5xgTXsxIkIz7eKMCSEKU4s7NKQxvJneEe3RkMtiw3ICICICICICICICICICICICICICICICICICICICICICICICICICICICICICICICLjb6x/ir6hPta2v33KHn36gfhv5V+nWxfxEy9H3Th8AnEP5v9Z/hgFWsWfV6l2vcBfsJ4V+yXjj8HUw9F3F3wZ8d/QXUfq/j15l+WfhU5L/ADgbl9Y8kqX+LB8Idx9fMR/WyhHnrj+AXI/SbW/3kykr0B/fDY76KbP+7AXLiMK6zprYLwaP27co/ZK7+McwJ9fY+PhM3X6Cz+sGGWOv7JH8Fei/nAh9XM4ujYZblhrQEQEQEQEQEQEQEQEQEQEQEQEQEQEQEQEQEQEQEQEQEQEQEQEQEQEQEQEQEQEQEXG31j/FX1Cfa1tfvuUPPv1A/Dfyr9Oti/iJl6PunD4BOIfzf6z/AAwCrWLPq9S7XuAv2E8K/ZLxx+DqYei7i74M+O/oLqP1fx68y/LPwqcl/nA3L6x5JUv8WD4Q7j6+Yj+tlCPPXH8AuR+k2t/vJlJXoD++Gx30U2f92AuXEYV1nTWwXg0ft25R+yV38Y5gT6+x8fCZuv0Fn9YMMsdf2SP4K9F/OBD6uZxdGwy3LDWgIgIgIgIgIgIgIgIgIgIgIgIgIgIgIgIgIgIgIgIgIgIgIgIgIgIgIgIgIgIgIuNvrH+KvqE+1ra/fcoeffqB+G/lX6dbF/ETL0fdOHwCcQ/m/wBZ/hgFWsWfV6l0ecIeKX0z5/iLjjM65O6oNHlcXmstbQG818sRVS89Swql2ZAsYEw25EGYqIb8ZT7MSWlC/I/EaUkjVly4361uHMVoeo4fPNs2Ly+E17D4W9Vhh/d4HPicfWozPWt1TvEtaw4HKFyDAeMZeEoISb1wz8n9CfNuX5C3LN68+q5fDZ7Zc1ncfbnmv5OPGvmMlayA69unbrtMNqtGwwjMIlivKUfEKwRndo1o8QDr/wCGOfuGI3FfFcfVWU+x1VLeW9vd0qaWsr6ylRPd9nj+rPcnSbSTOcgkhJQfYUQSlrXLKSTLKrPdUvVLx5yjx4HSdIFm7lq5m8dkr9/JY5sdTqU8dG0TyheZalZNdNZlWaMWre5o1vPlI7GYY3vX0kdJPJXEvJJ983w2BpVKeByeLx+PxeTlk71y7kpVIecby6sKoKIKsLXik9r3VK17njGu4XIRsWhjuWS1Xt8P3qexnS3y5otXyBW3s/M6fDTsw69nIsWdZ19gVxTXMGScOZOr2pEN0qyRDfSh8n23ZMZ9JG008lUmeljmbXuFd7y2b2mnk7WGzOtWcMQmIAGzcqWmv4/IVjPXPZqwLXm1MtcrRKxITMEjM8IEZ4rdXHB2y868fYbA6ldxVTN4PaaucGPMnPVo3Kj47JY20D3RWq3CCsje8GyJ5CcUxgOKTsQgpR2E+d36U/8Ab+Wf+IU35sE/P8/LhD/hd5/9gx/9uLHV9rz56/4zj/8AWLJ/3fT53fpT/wBv5Z/4hTfmwP8APy4Q/wCF3n/2DH/24n2vPnr/AIzj/wDWLJ/3fX5t+Lr0pLcQhULlZpK1pSp1zH1JttJUoiNxZNal100II/Mom23HDSR+RC1dknuj148HylGLg3eDSkzPOeApPGDO7M8pNDNTm8Yt6u0ISl2Z/DGT9mfbP7Hpz5GEpRtaCR4xlJhw2LINObszu0IuTAwg0pO3hi85wh3dvFKLd3bQnjPkrG8v4bPcjcf26L3JaeK7KqrFLEiKtXs0uRXzY0mLKbZkxZkCwiSoEyM82lbMqM6j6SSJapV6duGvb7rWK27Vr8clgsyCZ6NthlDKXknLVshMA8BmBYq2gHq2Akg0hmDOPqzNJ4g7tpWycd7TmNN27HSxewYM4wX6blCeMfPrht1ThOCZAnrW6divbrGHOUSAMOXo7vFov6t9lpePemvmTZ460dpNNQ4ydKp7eO2w7Ir5bj0eL7VHTJafZJ9tp9w2XFNKUy75Hm/K4hCio3nXYMxqvEO/7BgLpMdmMZr1k9C8KAplqnmQQfOExoEGxYQLNxzeDuOfhJDtOMXauOn7XMLt3NHHOubFQHk8JldkqgyOPNMsA2wQGY/kGcJBEcU5igxYNNmJDxDn3hKUXxz4OovE15+48qeUML1CtMZu3mWsSEjQao4NibtNYv1ktT0OPkbFlLRyozpNeaQo3GyJSkJJREIBcb4zrD5Q1SjuetcqxHiL9i6CvHK5yVa288fbLTO5K4sHbG0HOGbQ7lk84MzyizP2WRblDL9E3Eu4ZDRtq4imTM4+tRsWZYjARtU2HkqYrtdh2DZ+mSU2Acbk7Bi0Ju8Yyd27r32o23ixdNseVs9g5TctYipJU27VHqslp6uNEYNRyH5rGbgZjfQICIzKpEmew21WwWD9eY8wv1CFT5nY+uHiMRthz08fvOuUWlYyLipYPM0ggE8nKWwPE1sNtFarEI3Ma0KI6dYT+bYIKXjZUngta6BeZzA1vXYZHQNnyDxrYxjX8/grxjlZmEKqXM283qdq3IxGCGqWRLtorMKuM0fA60r6ROq7J9WHHkjUVEE87q85Kj1e4x7stE1ylny2nXq+dClE2w5MorpqPKXVzHo0Z034VlAcbU7XOPOy/wCCOb8HzhqhczQrPis5iTCpbJgZnjYnjrJ4TJVs1zNEc7GNyMBGlSOQIZ+bXuVpwedWZJwu6hOBc/wHt4cHkLTZfAZkBr2r7DCvKtDJVK5IDt1bIHmWFfKY0hgRvVxmMPyrNK1CcR24DHa4XvVhEBEBFmtuObuUKzxMeHOE4GrlReLtBxjb2F1kURa5UGxsU5bk27RYPyHIi56Zjc/N0qmnWZbXpMQlRm0pZmT0Sog7HyNudPrC0DjurnDh0zKabftZHBRDVetbtthNwyUbRSTBKy1iFrEY54EGeHgHXcMWYdi1E80tY4y0e70Uci8l28CA+84nd8fUxuwSPba1TpvntKxcqghQsRqvXnUzOSYgyV5+YWyxpu5a1SQNKRL5QtQEWdHidcw8kcK9P+Z0fF+qnY++uOWc7m51tXNRFzFUz+V292/EZclx5JRyen0Vat11lKHVstORlLOPIfbcib1kb7t3HnF2Hy2mZuzgcnf3nE4izeqQBKxLHkwmx5EgITOIrCYlrG05TmNozkMcwvJxFLCcxeiLjvTOSuWs3ht4wVXYsVjtAzGZq0Ls7Ea0ciLPaxjBWCQrmC5nHUyl2I4EeQ4kJA7RYwhThezB2s29w+Mu7JxL1jcZTO2s91DaGUOzbCohy5TiWm0pbaSt95xSW20pQgjJKEkkiISX1m7YyWt6/kbc2Jbv4TFXbRIwiOM7FqhXOabQg0YQaRCSk0IRaMWftFmZmZRY2qhWxe0bJjKUHHTx2ezFCoOU5EkOtUyFiuCEiTeU5vEQ4Rec5PKTt4pO7u7r1Y7tdCo75esNVU8TcoWuEalP7es4721hjWYMFNnNe1ULNWcnPNQ61bElFhKct24aI8FcaQmW6aGFMOk4baqU3y1m6Ojbnd1mBibJT1TYrWvjrVmuWCZuvh7hsVAFSQzRtGlfhXiKtIJWPN4icc2l4XrDj2pgchv+j0NqIAWsXdw1mpsZbVqVKsPA2c1SDmCWLsSglUBDHzsSLaicMq42kVijeHjagvho7rqc3FFy4/1EO7qVErrjKsYqVu86ujmKluM6NOuiwXJFXWy5keIpjPE80sno8CQ6ptj0nXpSDi/0fbLzHseN3onKxNlMCpfwgtdPs2KnjrDnmPLNnQ1pmp1D2BAcWKYg5eYKsWcoj8uZDReWPWtq3CWr5Tj4XEA9VBYuY7PF2UGq5eGTrtXgXDvr57QwXrteuWwxcw4iR8s1sMIzK5BirybSm8vaXMU9joNHbVtDRVEV2da3FvNj11ZXQ2S8zsmbNluNR4zDZf8AucdcSkjMi79zIjl7ksnjsNQt5XL3qmMxlAE7N3IX7AqlOpXG3eZrFg84CEOLe2U5xbu7N37uzKFuLxWTzmRp4jDY+5lcrkDwq0cdj6xrl25YI/aAa1YECGMST+yA4Sfszv27M7r9tTa117VVl3TzGLCpua+Ha1c+Mrzxp1dYRm5cKZHX2LzsSYzzTzSuxeZtaT7e8clG7UydKnkqFgdujkKte7StBl4hWalsMD1rApeniGYJIEhLs3eMmdceQoXMVfu4vI1y08hjbdmheqGj4TVblM069quWPd/CUBxzESPd+04u3dfD3tlNpsLtLeueONYVWT0dlAkEhDhsTYNPMlRXibdStpZtPtNrJDiFoV5fKtKkmZH9L+jP+J18JHeIySZ+zxhN2f5HaLuz+vp7flWVfAHU7ym3yhkavc62xvspqrNrPymrhuKbTMixWUKBYQ5vs7Tkc4dm7FKWaXjjnEXJQ+35/SdZ44yfu3d3dn9F1Ne2bzYMSbyhN/C7Oze1/RnZ+zex3bv83f8ARsAOVdygIqP9ZnMetwEPE5LAW0qp0uomyp0uTXIjuWCayH6MKHCaJ9p5TXyrZTDNDrCUPKOrcZJ1Lbrjbuybu3Zm9r/J7f8AD/1L4Lp5jYcBy8Mpu7u7du/ZuzM3qz9vE7+32+97ezuvp9F3J225Ix2sXtrt7QS6PQRY0CfLajImJhzK5DqorzsZlgpCGn2lutOvpckEchxCnlNJZba1g7u3r8vb9i1omIWE/Ml4njJuzv279nb2ejN37O3p8fr29jMpW5950pODsq1aSY6LbR3Dj0XNUBvmx7a+wls5U6W6lDi2aytS8wqUtCDcedfjRGjbXI9dlKXhb5/iXNYsRrw8Tt4pS9IR79u7t7Xd/iZu/r+Nm+PuqY1WD6wud4iddcb2RgaWxSUuoqnLi3y7L8N4/PGci0GcjuPphpb7ezSr9z5RfZNqShctt8pS+N5O/wAf6G9P8ftXxRHdsN43I44v6xbxSh3Z/Z2jBu/ZvieXq/o/r37r+OxveqnpZmQrXVW7nI/HypLMaU7KtZugqjS6skoinZWcdvRZqaaD9OG6438jqlLS0lFn6fomaTt8ff5nf/H+PatHlcqOzzl5o+/r3d5N+LxO3ig/yf8Ap7/FL2LR3j3eZ/kvI0+zzT6nqy3j+p6LvkTLgS21G3MrZ7Ta3EtTYUhK2XkpWttflS+w47GdZec5Wdnbuy7MZIlhGcH9JN+ln+Nn+dn9H+L427t2de0Gq3rjb6x/ir6hPta2v33KHn36gfhv5V+nWxfxEy9H3Th8AnEP5v8AWf4YBVrFn1epARARARARARARARdVnhbfBnx7/Ht/+NLoZu+iv73vVPyntP1iyKwL9df3yO3fknUvq3jVLXXV8InPX1Flf18AV51K/ARyd9GjfvNZW86Wvvg+KfpSD91tKIvC8+Dbj7+O778aXQoLoz+ADVfyltH1hyKr7rl++O278lan9W8atBHG23W1tOoQ606hTbjbiUrbcbWk0rQtCiNK0LSZpUlRGlSTMjIyMSklGM4yhOMZwnF4zhJmlGUZM7SjKLs7SjJndnZ2dnZ3Z27KI0JzHOJBylCcJRnCcJPGcJxdpRlGUXZ4yi7M8ZM7Ozszs/dlhV0DQmML4hnVFxzkEknFQ4XKMYq5hbbcStYzPJ9BDp0k0giQs6U7GXRMoSSVNomOmZJ8q0jGv0wVx611Vcz6ngYtHXa9fdA+5BShAFMeH3LFgoM0IszS/k97Z8YOMWZ4xsTd2bwuyyn9V9ou09IXBm47DJ5bNZs6Md7hYTme6XN6PlrGRd5yd5RbJNTBlSTk7tOVeDM7+KLrdWfPgVUKVZWk2JW10Fh2VOnz5LMOFDisINx6TKlSFtsR2GUJNbrzziG20EalqIiMxkrtWq1Kue5dsAqVKwpms2rRh169cI4vIhjnLKAhChFnlMhJRhGLO8nZmWLapUtX7IKVGtYu3LRYAq1KgSWLNk5JNEYQADGZTFJJ2jAY4SnOTs0Wd37Ku0zrH6VoFkVTI6gOKymGtxs1Ma+qlwW1tEo1petIj79WwZeU0l60xvzr7IR5lmSTtPY5/wCE61xqJeUdK90PKcO487SPWjIbP4mJdAQlIXbs7N5liPil72PeTsyvDX6cud7VJ8gHiXe/c7RhNmLr96vanEjs0HHQsCFeKz92d/LrT8MffS8MWd2n6iv6LUVMK+zV1U6KjsmSkV1zRWMO3qZ7CjMkvwrGvekQ5TJmRkTjDziDMjIle4XRxuUxmao18nh8jRy2NuDYtTIY23Xv0bQnd2Yle3VIWucbuzs0xElF3Z27+itNlMTlMHfs4rNY3IYfKUiOK5jcpTs4+/UKzM7is07Yw2AEZnZ3gUcJMzs/b1WS3I3/ANwnAf2TXP8Ab/mkQZ2z7/fjH6D5D6q8hKf2nf8A07uVvp9jvrdxstGuQuojgzii1j0XI3K2Hx93JbYeaprm+hMWqY0lSkx5b9clxyZFhPGlfpzZTLMVRIWonuyFGUs9q5X420e6LGbbu+uYHJGiIkMfkMnXHeYRndhHLUjKdgFcjtLw2DjGB2jJ/M7Rd2hzqHD/ACjv1A2U03Q9n2HGAmUc8ljsVYJQcwGZzVw3JRhWsWRs8fHWAQlhnlFnH3lFnkrO6XO6+mhaLJ31NpqCya9auu6CzhXFTOa7mk3IljXvSIkhBKI0qU06okqI0n2URkVYYnMYnPY+vlcHk8fmMXch5lXI4u5Xv0bMO/bxgt1SFAWLOzs7wnLs7Oz9nZ2VFZjC5jXsjZw+fxWSwmWpT8u5jMtRs47IVSdu/gsU7Yg2AydnZ2Yg4u7Ozt3Z2dZceMX8MuF+3bM/2/5PEL+vv4Hda/OXhvqtuSnN9jp+G3afzWZv626Qr4U3JXHvGHDnGl1yLt8rh6p/EZJiNO1N7W0jMyQjOVzio0E7CQwqdKJH0/ZoiXn/ACfSJvt7xJjH7fqum6Dp+R2zY8LrdImuYIQbOayVTHDsFjiaknDW91FG9kzR995IGIXw+vg7eqitkdL2/eORd0xmnazndnvi2fYCmrYLF3MmSuGWZuQie17kCWNUDy9759hxC8XvfH39F6jj3mXifllqS5xpyNjNycJpt6fHzWhrbSdXtPGRNOWNdGkLn16HFH5EKmRmCUslIT3WlSS7nVeQNH3mBp6ftuv7I9aECWhYjK07tmrAj9hzt1BFlaqxm/vYvYCNpSZ4t3kzs3Sbfxxv2gTDDddN2TV2szmOobNYi7Rq3CDZ3JCncMKNS3KDN4ptWMV4xdpP2jJneShWCopfBzuqy+vhPWOT0lBqK+NMdrpE/O3Fddwo9gw2y8/BelVsiSw1MZakR3XYzjiX2232VrQSXUGrq8Tm8Lnq5LeDy+LzNQNglQtnE36mRritCiOZaxDUymHCwOBRTIGUmJCJBylFmnF37XMYHOa9ZHTz+GyuDuGrjuBq5jHXMZZLULMgxWhguhAUlchAlgM8YOKcxEjGTyhJmzH8U7k/CSumfR4iq5BysrVu7zJwLLJVupqpF+aaywfnTotjRRJy7BDdfIhMSZTUuKluLJjx1ukh9DIhz1qblrJuH8vrlHacIbOT2bB1reCp5qiXK9qdolmyG3jAWZW4wqlrjMaBwtEJhClNokiNTb6FNI2kHNeG2a/qWeBgYarn7VPYLuCvhxPe7THVqnp5SxVjTlO2KyUIJ1zvI4TGiN5CkRWr4L5y4UicJ8PRJfMHF0SXE4t4/iS4krf5SNKiS42UqWJMWVGftm3o0mM+24zIjvIQ8w8hbTqEOIUkr2ca8lcdA460EB9+0sFgGl6sA4D7TgwnAcODojMA4SXokCYJIyGURIxIMkZQnGMouzWI5S4u5Mscm8iWK/He82K9jettsV7ANTzxgWK58/kCgOAwqEhGAYU4FCYcpDKOcSDlKEmd5s5KeZk8W7+RHeakR5GA1TzD7LiHWXmXc7PcaeadbNSHGnEKSttxClIWhRKSZkZGL1QIMwomCSBRFHEgijlGYyDnFpQIOcXeM4Ti7SjKLvGUXZ2d2dnVhbQiAayEw5hMFjCKIsJDIIg/FCYyDmzShOEmeM4SZpRkzxdmdnZY8OZB6X0uZ7kKuJbdhi+Wb6HIkskaHWa69rc4bMpTqfeXslzXVrUfuf6NywcUg0mtRK29ve9/kl+3t/X2XReDvUiRvbA0md2+SUY+vf5pM3b8brY/jXXs73AZDYtGjvoaCusJKGy7IYsFsJRZxS//AD/KWCJUY+3u7tH27l2HKz92Z/lXdCn5g4T/AN6LO/b5e3q36H7t+he3Gq5FmFY/+s/WXev9zlZ/ieosPTMu5oaXjorrLaSWfZBKRvLRyQnykr1GWlEkjIjdTx+2fzN/V/8ALrqn+73pfHELP+jy2/8A6P3/ABd17Lw9v9H8ifWWq+63BrD2P+P+plvxv+oX+dH9jrwupZTzp1rRs3YM+35TAulDlQnSNyKcLKRl2Fk3KY+m0pmx1cg62SSiL14jrDLp90pQWyT93f5vT/H6XWyf+kXmi/rAXo7fF2g3d+7fPN/C/wA3b8S08IiIiIiIiIiIiIuxERe4iIi9xERfqIbV2q+Bq8zU7PN3eVvI6ZNVfVsqtmNqShSktyGzSiQz50qJuVFd9OVEeIvPHlMsvtmlxtKiLbOESRlCTd4yZ2f9Pxt8jt7Wf4nZnVA+hW9sM/p+VOH7RxRvVEt28jsF3JuPOprFGY0ayI1GRHIWuiSRERGRRT8xq7l5eSD+rt+n5vk/8LrqEnhMwJe2L+Lt8TPF/BP+n3v9C0kHIuzXG31j/FX1Cfa1tfvuUPPv1A/Dfyr9Oti/iJl6PunD4BOIfzf6z/DAKtYs+r1ICICICKRuKOKN3zZu6XjjjilXe6m9W+caMb7EOJGiQ2HJU+xsp8pxqLBr4MVpx5995wjWZNxYrcibIixXqt0bRtm5G2bHajqOOlk81k5FcIXKKuAIK4pHtW7do8oBrVawYSIUpJM8naIQwLZKEJKN37ftV4y1XJ7luWTjisFioi88/lFs2D2LJYV6lOnUBAh7Vu0ckBiEODtFnmc8w1gnOLQH5ojqs/3Dib/l9z+UxKf/ADDOb/8Ai9F/9+yP9hKJH2wvgT/hN/8A1dx39vqlHPfTxyj027FrF8o00evnTYCbWms6yY3Z0V9WKecjKmVVg2ltSvQksuMSocyPDsoiiackwmmJUN2RHPlDifdeINghru6Y8VWzZqtex92nYjcxmUpuSYZWKNuEYPLyzDmI1ewKvcA/gmavAR65Cya4o5h0XmjXCbLouSLcq1bcqGSo3a06OVxV5hwNGtfpzlNo+aAkCgs1i2aViLkgGyQoLAwweLbq566rPC2+DPj3+Pb/APGl0M3fRX973qn5T2n6xZFYF+uv75HbvyTqX1bxqlrrq+ETnr6iyv6+AK86lfgI5O+jRv3msredLX3wfFP0pB+62lQvoF6xOm3iHpfyWJ5G5QrsxqaW22UmxppFJq5slliw0lnaQ1tqqqGcxK9ohSWXW0w3n1mtZsGkpCFtJjD0w8+8RaHw1gtd23c6uHzWPvbAa3jy43OWTDHazFy5XlCVLGWRH82sYc4sAhZeKTidmLGUGlV1ZdOnNHIfOOf2bTdGuZvBZLH62Cnkg5TA1QkLUw1KjZjON/K1Sg8myEg5ysDFHwxYrO4ZRJL2nMfik4aZBfxPS1ntZyzyhoUu1mZsGspaxqSDLkNuIbsI1HYRG9PorGKrs/Ep/kCJDfNJuTJyWmlRJNRb/wBaGtnrk13hbE5zedzyjSp4e1DCXhY6ucsJNG0HG2QwzWVtgfsQOP8A5Lr1yuzzPZaA3AameOOhXaK9oWzc65jAaBo2IeF3N1J5+gbJ2a4pxlKofKVTzweHpnbuOxkf5WsWBNJoVqrkJGwD33hy9Juw4NoNfyly6h1vlrlZbK5ldMfam2eeoClO2jjVtObce89/o7SQVpeRvWe9lKDVMPqRYtz2Wqp6TODs9xti87um9xnHed2ccj1LBYWLmKxbGndnC9ZhMniyeXula7kheYTyGrUhleNuNocKX6xufte5Ry2v6Lx9KE9A0OJY17lYU61LMZZwDowJQqzgPw4nDURSo4s3lj897V8ooypyqFnG/XPxZ1H9TXP3G/BmcotXRdPcSLS3Gs2cdltOXk2UqbMdu7mdKOQ1FsJ2eqGWIOfzs1XthW7kuWzHVHsmJKKS6k9K5b5i5Q1HjbE43OY3isAMdfzmwBHBsMa2aweeRyFk7lgC1ZxVEYq2KxNh/dDX5HOMTitjLGsul3euGuEuJtz5RzGUwGU5dsHyWOwGtmJN84GmCtXHjMbVrsIh6lXL5AhbWXzFaPud8fCvXIVjUyhlZCH4bHRzEyyswrir2xbkVDL2lmajVL1LkttlTRWibNq4ZYiyjcUclcSFCi0rjxJQuqVFSmOV2wdIfAIMLLDPpPnymGIyZc+ZzUs1I8RvBrkbkL4xhM8386QK9cOPmRmjKk4WYSs1Y60Oos+djnG3z3PGB5EHha+DwUcFCvMjTejKlPHkIcDQbyY2LNk+SgN3lC/E7uZUy6N6vTdKPXHyV0lL0Nhecb6qhmabItTnFuF7TGq4mmo7gkJZbixbQs6dzntK7EjQY1tZVsV76TNfWsiPnAFLMcIdSG38GSytrJajm8YfMYKFmcpfdg0gZjG32jEcQhutiXyGKzEwBrBvW6YSeo6tMakj1G3sJz30v6X1ARxFTF7lgcrXwmwTqxjH7ge9YwmUxzzkSRz0XzDY3L4WFg1o+PpXTi9CW7pGi7r55N1vD/iAYne4OvTabWv4dYpcrENhUtXy9tKvkrE1kpmGlDnt0qvl6FqfEgLbW3OlRmYjqVNPLI6M6ntxzmhdUeu7PrNVrmw1dBFjsKBxud/5T2Glt+u0zjrtGfuk1U+VhaBVlGULJgjARngSTKuelHScByJ0lbLqm1W5Udat8ilyWdsMVq7fyVrd/S9mugJZeUPcoLYMPOpYtRlGdUByWByaY4urm8Q+Gfw4xk3rbqGr7Dl3l/Yk5c7fS2uq0zDcC7tS9psYdK7T21YuUqPKcX6t7YnLsZ8pLslpyHEeTBbkBofR9oAsHO9yrVt73vmfaWQ2PL3c3mBwrZG63nWwY+ePvU5HcR5y8eTtvYt2jRmaEq4CtWhGvkPrY5GLsA8fw/cp8e8d648MbrGGoYHCFnbxlB/Jp2MkPJUL0a8SghHy8VSatTqAlAJIWbAntSqbma3QeHL1q4/jup0VxadPPOsqsisQbmYTzcM7ye3n2501LSGIaNBjL32BUm4YhNrsMhMRHe/zMhZQ7IYeplOkzqHwGqUctfu8VclmphHWv2GJGu+StRxcLNhoMMEcpr+T9yyNkB14ytYI8Qz+7FkwL/5m9iesfpo2Lb8hh8dR5e4tBdMW1jqzjlZ/kypLLEq1ZTkWxLE7JivdUQ44tmcamw15GH9xDB7FjfGL+GXC/btmf7f8ni7XX38DutfnLw31W3JWd+x0/DbtP5rM39bdIUJdIfSyvrCr43Ul1TTLPV0KmW8fxZx6xMsKbPxsxkFJqUSVKr5Ueciljz4syvhVsSVGXYz4lrcXsq0esTNduOCOFpc91hcu81WLmcxjjhgdL1Ydi3j8WHDYF2owM71DisRxwbQbFWvTAYUrdoF6/kzXS23eVy+obnaPTrbNwvwTXpYHLMSexb3txa9PJZY2b2FnvzA0bYDVpZM1Q9e5Zu2AGjTqWMfjsUCiKmzQ/i60+kqv6TGc31WdK7tnx8/hr+rZ1VDGtLOzroLNxKbrIFzDXbSpsw6uxsZbOd0dBMmSquwjXMVuNFixkTWZHz9QvBtXg6GI5t4Vnc1YutZSmPNYwV25cqVh3zwp1chXleNYsPSt2zwxOXxdiwenbDkAQEAAY2Bl+npp6gbfP881wLzuOlto9oxN4uByxqNKjctExwJ3beNsQx4K1Zr9OmAmYw2Wq1gXqhsbYIc5zyrEFrTxjyvXc19Puf5YpklEa2OCl2r0VlxSiq7piFMg31W29386zp76FY1yXu5KcOJ6nZJq7FObTt3q8icWYveKEWBDP6ue6QI5vJqWRFXsVsnSgTv4pe4MnXt1GJ6Sk4PH2Z37NATd9Ct8acuZbQcjJ7E9d2yvQEcsGi97Gls17WKvTH28Mf5RxVmnccfZ4xax4O7s3d6IeDp8Mu6+3bTf2/4wEaOgT4Hdl/OXmfqtpqlP9kW+G3VvzWYT627uoT8STo44T454s23POUrb+Dv9HybX2lq69fyplQ6/r7O0lXyGquShxEdmVNlqmNIadSqK600zGW1E9WM7brq64B461LS9i5NwdTKVtoy+41bl2ZMoaxQmXPXLp8nGFI0ZxEM1gznhEc4uGcIQFKAPGGdzejHqM5M3Heta4pz9zE2tTw2k26NCA8SGvkRi16lRBipEvBnCRihrAauSRISY8CEIaM7HgNCZ+KPDB6WNZxbxrqbqt3D9xpcBjtBbPNbGTHaes7nO11jPdaYahpaYbclSXVoZbSTbaTJCCJKSIXC0fo14Vzmlahm8hT2Ql/Mavr+UvEHnzCgS5kMTUt2ZwFADQHCRjTlEcGaMGdoxZmZlbbfut/nbAb1umCxt3WBY7C7bseJoDJroTEHSxuYuU6sJlnYeZZwAEcZEm7ynJnlJ3d3daL7KjrMxwtqs1Sx/ZKfPcX3lHUxfUcd9mrKnJyoECP6rqluuejFjtN+o4tbi/L5lqUozM5q43G08Ni8fiMeLyMfiqFXG0QeKU/Jp0a46tYXjm8pz8sIoQ8U5PKXbvJ3d3dQOzeUu5u/l81kje6Mjl7mQyl8/gjDz7t8xbdo3gg0YQ8w5iT8EIxjHxdoszMzKn/TFjW+Qek3f41aG1u313rYkH1TIm2rZFTRSaaSszNJEmLbMQpJ91EX6LsZkXcx9cW7xdvld/wBjLoakPMpkh/vSmzfM/hi8X/Q/Z16boN2Llnx1osLNUpM7D6BxxhhwzStiq0JvykM+kou6VNXMS7W8aT7JVIbSpCFH5nNYP6dvkf8A6f47rdj59xSG/tHL0b/7Zev/AHNLv+Nlb3faqNhsVqtfL8htZyhs7ZLaz8pSJESK45Ehkfcv0k2WTERou5d3HkF3Lv3Lc79md/kbuvtJNhwnN/ZGLy/H2b0b9L+jfO6pD0UZWSnj3k3kq1WuRabSfPgtSX0d3notPElyZs1LvYvMVhb2spuQSfom9WIM/ekiLbD2O/yv/j9rr4aEH8spX9XI7szv7XaLP3fv88nfv87J4e3+j+RPrLVfdbgQ9j/j/qZaY3/UL/Oj+x14fpGcK26k+ZbuUnzTHoexk+ZSvP5HLPdVz8lRKUXmNw1IJPqe5RoU4R+5xRDjf2v+N/2rZSfxWjSf2u03/pIzutOxou1QEWY3E6k03XVvILajJNtYbxKiaabQhSprJaFxLpeYzIidYM1Oo7uPPpStSUpdc8u+HpLt8rftZnXUh97fI3+9Ivf9Pvv2stQRyrtlxt9Y/wAVfUJ9rW1++5Q8+/UD8N/Kv062L+ImXo+6cPgE4h/N/rP8MAq1iz6vUgIgIgItRvCJIj6rJ5mRGaeJ9eaTMiMyP5Yyie5f+D8pmXcvf2My/UZiafQYzPzfa7sz9tGz7t3b2P8Ayhg27t8j9ndu7fE7t7HUF/shbu3AlVmd2Z9+11n7P7W/k/PP2f5W7sz9n+Nmf2sunIZlVg/WD/jXNNE701Pk22TzjfMLTjxISTrjTKuLlstrcIvOptpb76m0KM0tqedUkiNxZnjJ+yLQg0+HyNCLEnHf4TI0WacoDfS5DhKXbxSjCRSShF3douSbxZnnLvlX+xmEI4+ahPObihPjokBvKTjgQsd6iScYd/DGZIiFGcmZpTiIbSd2hHthOMZqyorqs8Lb4M+Pf49v/wAaXQzd9Ff3veqflPafrFkVgX66/vkdu/JOpfVvGqWuur4ROevqLK/r4ArzqV+Ajk76NG/eayt50tffB8U/SkH7raVEPD/6O+m3lrpjx+75F4vrdTrLe62DU+4mXGnjOus1mlsayC0mPXXcKG02xDiMtkTUdBrUS3XDW44tZxm6XOAuIt64cwOzbZplTNZy9kc+OzfsZDMhnMdPL2qdYbCqZKvXhEQADizQFHxO0pzeU5Sk8qerXqK5n4/5u2HVdO3i5gsBj8ZrpKuPrY3BmgMl3DVLtokjXMZZskmWxYJN3IaXhi8YQaMIRi37urPw98TxZgrrnfpYkanizd8XQntbIqqXVaCXFsKOpQuZfTKuws7Cdf1F1W16HrNko1suslxYUisOrS7LZlR+TnLpX1zS9YyHJfCpc1pWzaXXJnS0sdm8qcNrG0YyPkrFK1ctWcpQyNOrElwfk3pUzhrlp+42mcZhcfAPV1s29bXjeK+dRYPetV3myLXw3slgsRXPUyl+Ua+Lr3qlKpVxOQxt21IdEvn0I3a57IbrXpDAUBrp9CXUHY9R3T1ntfonm39tnZ83EbeQ220ymfe0jEKQzckwySGmnLuksam0mIZZjxW7OTPYhstxWWklIfpo5TtctcV4rPZYkS7FibNjXNjLCMBtayeOFXKPIeWNoQhLI463Ru2IjGIELhrQq44BHCLRp6p+I6nDfLuX17DjmLWcxVrbPrAZzmR6mKyZbISY7zCPOc4YzJ08hRrSKQp50gVC2CTMWcnshyFyXgeJ83J1/JGtpMbnIqyaXZ3cxEVt+Sptx1uDAY+nLs7F9tl1cetrmJU+STTnoRnPIrtdva9w1fR8QbPbdncdr+JDJoSuZGxEMSGeE5wrVRN4j3LZIDJIVOoI9ozQn5QZ+F+1m9Q0rbN+zQNe03AZPY8yeLkjRxlaR5iBGcBztWi+9BSpimQcTXbhQVAuSHmmh4o986r/AMWrp/Zs3qfB4rlvkmU2hSmJVHm6+urphmZNskwi0uGdAlC5C2WXFv55n0/WQbaX3DJk4n5Trm4uHcJQ1nXd6288Yu4jY7EValSw7u0B+VG7fhlWjIshjnIuJG8fMi8Ilm7DeYeJ6AOWiUh5Hatm4/0uvKTMUGTzNy5crszPMjllRx08S8ohiQkIizBGn5c/HIUG8xVY4O51R1D+J5jt+jDWvHxM4LSZw6G9Wpd2pVRiNGpU60QceMliS97X6KGENeVqLGjEa3HDWs7K8b8lx5W6ydf2iOt3dW8vWctiXxeSm8si8qOt5d3s3YuILCKTz/LiKMO0ACF3lKbyk99eUOLJcQdEGx6nLaKG3eZtWGzEcti4NHGNHIbRhotWoyYx3KEfufzJlkTvM5jdowg0YtIfUDmo2s8Wjp5qpcZMtmPlMvoiZUlKkk/j0cia6K+ZLUlJ+yyqNmV+sz/Q90pWrshVVcpYgOc65eK6RxMcYcJhcs0JMzsxMBDas6EnaTxb7ibGjM3q79x+kZP2i9H8TZo2A6AeXr9cz1yGzudw/mReUXcexT1DXziZ4tJ288OUID2M33Ts8ot3k21IyGLGesXfGXp0qwvB2pbbdRMp9lp6dmc0aUHHTdU9dY+n6pJJ9Lq3c408wbbiUpOO6pSVL9NSMe/2QGgz61xvmYwnE9DYMzQHYg7R8psjQqW3h42bzIzlPEQmN4zizeVN3Z5eB45Kfsb2Rk208o4Oc4Sr5DXMFkSVZ+KTFljcjcp+PwO/lShEeYmMvjhKT+bBmdo+Npel8Vq4d0PRvw5fvp8j15ynx7cPI+j9B2z4s5FmuJ+glCPorfMvoIQn3fRSkuxF3HW5fnleANAyhW8JMluuq3yR9PezuaVtlibe9aMfSRHb3sYt8jM3ouo6DMcPEdRvI2JE/iFjNF2/HDl773w6W96fWg/vpSl6xEz++lKXyyd/V9H+n/KwcPwbxDk69qO1Ho+OMdCUcZTS2ZEsqGC7YTicZM2nnLCwckznn2zND70hx5JmS+4lrxfhK+ucb6Jg6sBRFjdS1+s7heEoFO2MrStWfEN3gSVq1I1khIO8SkLIjO/i7qGHLeetbPyjyHn7kyzNlNz2OyzGacSBrvlrUKlXwEZiDhTqQBVEKbNIQwwG7M8V4/rApImg6WeoOBNSSmY/Ee6u0EafORS8zQTdJXq7eZPY0z6qMpKu/wBBREvyq8vlPoOeccDKcLcp1rDM4xaJsuRizt4vu+HxdjLVX7d29Ws0guz/APpdvF2ft2eounfJ2MRztxFbrO7ELyDq+Mk7S8P+j5vLVsNbbuzP3Z6t8zPHt75neLuzP3amfhZ3si36L9nXvqcU1l95yLRQyWrzJRHkZbN6ZSWi7n5Gzl6KUs0kSe7q3V9u6jUcf+i3JFvdPWw1SPJ4YbZtsxoGk7u0RFwmIzEmg3d/DHz8saTszM3jecu3eTu8leunFhx/UnrVsTQaec1XTspYeMWZ5GDnszhYuR+zeKfufDgi0nd38EYR79oszPB0+GXdfbtpv7f8YDXoE+B3Zfzl5n6raatPsi3w26t+azCfW3d17vxXfhFufr3iP62SKl63vgJv/SbXP3g6pboJ++Dx30V2b92ArncB/sL4W+ybjn8H0wkHxh8GnHn0G1L+AY9Ru5Y+FLkr6f7l9Yskvv8AKP7M+RPqLrvw/YCuJex/xP8AsVvDf7Iv/Ln/ANrqs/Qf+xKZ9er77toRth7H/H/Uy+XH/wCwf/mS/wC2Ki7IJ/6NdbWizqknEz3KceZIgEf0Y5uaBHy/DcabLsSCa0sCzoYiUpUltL6m0pS2fmRo3pN2+KX+P292XFD7helH2RMzu3/5e+bt2+SbPFlInXds10vF9TjYjivbt3fstOsIPu49T582bKWSEJ/SKUds5QoIiSaVJWtJ+80pVrN/Tt8r/wDT/HZcmQn4RRg3tJJvT5Yx9X//AG8KsRx9jE8e8N0GNJKUv0mOWzP8hESF28mG/OuXUEX6kvW0qa8kj7qIll5lKV3Ue5m7MzfIvpFDygxh8cYev8527y/pk7qpfh7f6P5E+stV91uDbD2P+P8AqZfHjf8AUL/Oj+x14rpRaKi6oOaM693J1mNuIra1rIlLVVbysZNCS8qScU604p8lp8qfTaUokmlRGXG/tf8AG/7Vspt4bZ4fIxGb9BIt/wBW9VpwNF2qAizJ4XSd/wBcHJdkyTL7dPJ5AdW6lC+zbcKdGzJONmaVfT9SS2wp3ultxLjim1mlxtK98PWX6P2dmXVAbxXyv/uuV/6H8H7XWnw5V2q42+sf4q+oT7Wtr99yh59+oH4b+Vfp1sX8RMvR904fAJxD+b/Wf4YBVrFn1epARARARTb0988bHpv5QpeUcS3XzLGtYmV1jUWzbrlZeUlm2lqxqphx3GZLJOeRmTFlRnUORZ8WJIUmQy27FfuNxTydsHEW6Y7dNchVsW6g7FS3QvQnKnksbcg0LdKw4pjMNp+EZgGCSMwWgAK8SjhMJbZcvcU65zPo2S0XZp269O6Wvcp5DHzhC9i8pSm5Kd+sxYEAV4eIgDgMOUD1D2AtIRJwOLVL56fTfu/UX8w7D8oibf2xLM/gsxn612v7CUDftaOE/C5lf1Pqf3gWc/Vh1Ybfqy21VqNTVVeaqM1WPVOWy9Q4/Kj1kaZIKXYS5llLJL9la2LyI6JUpLEGIUaDBZj17C233pMSucuctk5z2Ojms3RpYehh6ZKOEwtCZTipCsFY9s9i2doluXbZIhiYzCrAYNasMVUUoFIaZHAXAOscAaxfwWCv381kc1dHkM7ncjAQDXjVwvXqV61Ku8hUqFMcjSACRbVhzWrRDWyxmIYKsCyavuuqzwtvgz49/j2//Gl0M3fRX973qn5T2n6xZFYF+uv75HbvyTqX1bxqlrrq+ETnr6iyv6+AK86lfgI5O+jRv3msredLX3wfFP0pB+62lFHhdfBrx7/Hd/8AjW6FD9GH3v8Aq35T2j6w5BV91y/fHbd+StT+reNV9rung6Glt6CzbN6tvKufT2DJGRG7Bs4jsKW2RqSpJGuO+4kjUlREZ+9Jl7jk7kaFbK4+/jLkHJUyVO1QtQZ2Z51rgJ1zwZ3aTM8hEkzO8Xb19WdvRRSxmRtYjJY/LUpsO7i71TI1COzu0LVKwOzXm7M8XdolFCTs0ou/b0dn9Vij4RtnPxu16l+DLpwysc5b1dm3HNKmlNz83bXuP1TimVKX5TW+efR5SMlNG0aHFO+ZHp47uhO5Z1/YuYONshP/AErE36VyAnZxyjZxF7JYHNTccneTeIj4uPb2jeDxm8nlHw5LvsgtKrses8K8o42H+h5jH3qUytJiRnVzOPxew4KDEizM/hE2Xl4vViNNpQaDRl4vK9QFe71XeJjnun7c2c+Pxhx83EYaz7cp+IiyjwcKxyHpCZaaW2bE7US1opJNpHcROTnoUSRGkMvRWEt9HylVlzd1hYri7ZLloWm6rAIoYuJigjbFW1oe15dhwHKDis5o8o4490U42WxVcBQlgQAow77ia5DgToozHLer0qhd426Zyky0wCsSpmtbSXUMK5ZkjNi1cHXjLJhomhKq+Xs2AmCQZyynt9k8ZksHSxM7is1R5SigtNsxanP1cOqgtIbT5Un6ENllC3DLubjzhLedWanHXFrUpR5GcHr+C1nHgxOu4fG4TG14RgGji6delWg0W8LP5VcY4ym7esiTaRJyd5TlKTu74wNg2XYdryR8xs2bymfytmcyHv5e9Yv2pynLxOzFskJKA2f0gKHhEOLRgOEYRjFsZMbyPS8l+L47ZZ2TGn0ucoNJiotlEdJ5mwlZrjayi3TyHEKW042xfrtYDDzC1MyI0NiQg/0xjH5r+247cOvGVvEmDZx+JxmX10FsE2IO0bEahcDkSRnGUoTiPKSu1hEFJxlCAZYv90dZJdh03J6T9jyhSzAT1clmcrhdmsU7EHGSoDNbpSPjRShKMCQmTExoWijLFiBPYKGTfc2X3Ory5b4j8Srpd5Vt3lwcxcZqkz0y1dcW1HiLl3OzyF8tbjRIUmHXVOtqp03zKcJTMl5LiFMmTauy54vx0Xq94Z3a8SVbD5DEY7FHuzk8BAkfIbBgcm8pQ8MmBVo5ylZsd3l3GUjSjIfvH6zp8xs+Qei3nLQseKNrN47NZTL1qEIRmWxGvjdb2HFRjEnii9m3kMBerVuzQ7ECJ4SiRvMbaQZCVjSWJ/ix3H+Pdl03dO+ddRI1mm0ztq9FQZuuRF6ewrcZklrYbdI1lOmuaAzJxtCkogl6TpJdd7Y7euG//lPsHEfFOJnEuczGYndIFu85glmbdTX8E8hQn3k1mxLKd2lCMmas3lz7Tn2yadAeO/yU1zmfmDMQkHAYXCjoDPJmhCxHB07uybA0SzH2j7lrRxLM8Jyi8rUvMh3GN3nfxUcSp/o5iorYqnoXHW4wNqtaUEn2Kuah2mJZkGhn02m0+rpYkUyJs2ke09ktp7JUi5vWtrrk4BBGoFyV9T2TWLspNFm9z1YV7uuDK8R+CEW8eXAF2aLwj5rM0I+9lG1vQlszC6jDyuHYdrcdY2yjGLyd/dNydmjs5QtInjJJ/Lwtg/d5sSTBd5Tl76M7ddKu+g8m9OfDWyguNLKwwVDAnpZUSkMXmeiJzugipMiT2KLd1VgwRGlJklsu5EL68KbPX3Hibj/YK0oS91axjK1phuzwHkcWBsTlAt27dmDkqVoTM7M7NBu7M6jxzzqdrSOZOSNbtRnH3JteVt1JEi8ZlxmXO+YxJ37u/dz4y/UK7s7s7yfs6jfr85EreOOk3l+XNltx5mtzkjjukjKWSXrKy26F0siJGIzT6jjFG9cWr6PMRlBrZiyJZoJCqR6oNrqalwfvh7J4iPncSXVMcF37EuW9jjLHlAFu8fFIWNJkLpG7+laoeTNJ4tCVZ9JmnXdy5+48BVrzNX17MB3HJmaPcdKlrM4ZINgz9n8MC5QeNoCl2fvau14u8Wk84xR4c+Fk4rofr5c1o48ref4+3S2VpNLiY08nqSqdX3SnzFNp8/XT2VEayVGlMmSv1pTRPSdrRte6cKx7A3EbZv8AKjZZDkztJg2WJjqRJd2bu1ihi6lkbs8mcRhv3Z+8WuF1ibSDZep+1XrEYoNV/wAk9WiSLs8HPVceTvDj2d3Z62Ry1uqRnaLsYBW7O3aUvB+Dp8Mu6+3bTf2/4wFNdAnwO7L+cvM/VbTVVP2Rb4bdW/NZhPrbu6kzxUISJXR5sH1LUg63VYSahKSIydW5o4lcaFmfvJJInrcIy9/nbSX6jMVh1rV4n4DzxXk8Xp5vWrEWZmdpyllg1PDLv7GaNqU+7evigzex3VFdCVmQOonXhNFpNdwO1VpO7uzwjDDnuNKPb2u8qkYdn9PDOT+1mVuen51p/gbhJ9hxt5l7iLjZ1l5paXGnWnMbSrbcbcQZoW2tBkpC0maVJMlJMyMjF9uLZwJxlxyQc4kGTRNQmMkJNOE4T1/HyjOEou8ZRlF2eMmd2dnZ2d2dR95bHMXK3JoiwmMg+Qt0GQZIvCY5w2PJRnCcJM0ozjJnjKMmZ4uzs7M7L0fKP7M+RPqLrvw/YCupex/xP+xW5N/si/8ALn/2uqz9B/7Epn16vvu2hG2Hsf8AH/Uy+XH/AOwf/mS/7YrxXXNQzKR7i/mSkbNu1yegYqpEpHm8yTbkFoM6tw0GS22Yk+BaI9QuxG7YIQakrU2Sk/Ts/wAj/wDz/V/1Wy/F4+UeP+tCTN3/AE+KLv8AMzs/9PZeIv76B1GdWXGUOodKbj8nS0WgdU0aX4/ljwUbScmSaVGXnfnyqjMz0l5fRkMG0pBLbcNWnfxTbt7G9f6//DOuOUms3BNH1hCMZP8AG3o3jfv2+d4wf52Wld1/8Nbfwyf/AEro5F2kvY/4n/YqD+Ht/o/kT6y1X3W4NkPY/wCP+pl12N/1C/zo/sdeG5NfPgHrBqeRJra4+N3BpmzZDbK1MpjWsJNHpvMafpPSKy0JrRvsskbpNSIafI6bpJc2zbtL5n/x/wDLrYV/c11iP6QJ6v2b4pN4ZfpaXv37evq3yrTWNJjzY0eZEfalRJbDUmLJYcS6xIjvtpdZfZdQakOtOtrS424hRpWhSVJMyMjGxdqzs7d2fuz+rO3sdvlXi+S9/S8Y4q92V480iPVQ3VQ4i3UtPW1ottZV1RE791Lkz5BJaT5Eq9Fr1pTpJjx3nEFxlJEUJTk/pFvRvjk/xRb53f0+b2v6M6pp0IY6zfY3vLt4SlytZYKp62Q6g0uyksy3LPRT0qMuzkeXaPQ46FI7EUmsmoV3NJeXlg3td/j/AMP/AI+ZfDj4O7ENL2zfws7+1+z95P8AP3k7N+NnWhw3rslxt9Y/xV9Qn2tbX77lDz79QPw38q/TrYv4iZej7pw+ATiH83+s/wAMAq1iz6vUgIgIgIgIgIgIgIuqzwtvgz49/j2//Gl0M3fRX973qn5T2n6xZFYF+uv75HbvyTqX1bxqsj1R8faTlXp85Y48yDMWTptVkplbSxpstuDGkzvWjyWo7kx79DHN8mFNNuvqbYS6tHrusted1F3+aNWy+7cWbxquBGE2YzeDPUxwbB4Vgls+YIsBSOT7mJyMJ4QmR4jaco+ZMcPFONluDNuw2h8uaDt+wkOHCYHYK93JmrV52jBq+WUMzQrj+6mYTlYk4CaRXhGXlDITwwl4Lob4f2vBXTdi+OeQosCDq6yfqZ9jBr7Bm0YiIudLZ2cRhc2L3iPPpiSWVPeyuyGELUaEvrNKu1L9N2hbFxpxHr2p7UGtWzdO1mrVutVtDujBHIZe5cAKVkPcBCsAo3J5EyjjKXhYknZ+1V9UHIms8p8zbJuOoHtWsDdqYKpTtXKhaJbEsbhqVKwWNY/awMTnCRh+eMRZRj4pCizt3twL7KPqy/436VOV+LvEI33OFHBq3eGOSavUSLa0auoTdlHnaqLX3tlWS6NxxuwdeVvalExt6MzJgqr34klcluUmRFjQz1HhLeNL6qNo5HxtalPj7bqWaNeujyNeFsVnNhq5O3TPjZzjamR9noxsRmIZqz1SANI0TsUAZw7nzzoW89Iup8YZS1ehyRpl7BhoUCYyzOmWrgT28VSu18pCE6kBtql+VeYzEDaa2KwCIJgcNg3jOuHox5j0/LtF1RdMc9trk2pZpzuqRqxr6i4k2eeYKDVaKjl3BtUc9Z0rcemuaS4ksx5tfBYZaasUzJUE6f6j+nzf8zveM5n4cswhuNGFB8jjoWqlG+a5ihtXo5bHHyDjx1qT4+AsfkMdkDQFZq1hDhC3E56z1J0wdSPHWE49yvBvN1WZNIyBMi2NyZKlzIY4NHMFezfw+Ur45iZOpBskQ2Sx2TxwSFrW7RikJTlXBaaJnMz4s/PzTeE18yDw9jpyFwNNpG3MbnHZMJwlMS/UXlpdrsJS32EyEIh0Sa2qnG8lqdIjw3m326FlhuuPlGEdazx6+hYCzGVXMZeM9fxEzVpdxHaUsKa7nzyIJixjXxsalG15jDslGAkCQr6GZ6AuJSS2rXa1nkTY6so28JhpR2TMwBah2NXeEc6CjrteIiuGUrGUlcv1fLclQJbAyCnLvCXQFd9PnVxxltsNGRYcU5fi+yr9VrrS5iIubzfWlVo6uwktZ32l+VDalqn1bkeNFR8mQoLC2zmPzG3Fyq8466XslxZzrp2xa2GNrSMNptyrms7dyAI5DI7PcoZalaNDFeaQ1eB5WqUhBDH3HXrjlFzkPGUjW/5N6ssZy50+7trO0HlU33ObxSt4LX6ONsSx2M1SjkMPfqBnmPJECySvGpegUx5e7bNkkZtXFXnGILW9aPSfU9WHGcbON2MbPbrKzZFzg9JMZdehRZkplDFnS26GErklR3zLEVE1+I27LgzINZZNMTkQnayde7qF4Ppc4acHEwthxWy4SwXIazl7A5krBsGHEdzHX4iaRmxuTGMEbBAQmetYrU7cBWY1507Nhemzny/wHuxsxOmfL6tnqwsdtWGrkGK0euAky0slj5FeIXyeKIU8qwrEx17Ve1dpELVlZHdq0VzW98VriTNxOK18J5fkiTVw01Gc5DsH4l5KOBFR6Ed+xt4G6p62auPFS0ivk6SvrrNxxsnbsrV1Tjao1YjZetzRsQDSpcdYbbi0gNQxO12iAyR3qhh5QSWr9XZaFSxIQGhGqbL1at2c4ePItdJKcXlHmtS6C+Qc1Y3yPJmd0wN+zLI5nUKg7GLA1s0/NMOpj7erZG7ViY7zlbDhrdylGE3HjHoQjCbSr0pdE3KETl2V1R9Wmij6jl91apGczkeZEs42dluQlVqbO3lV7SKQ5lXXqVAztJQevR0rXkntS3pyIjdbW3CPTruYN7NzRzllg5nfJycuJxIrALgcVYnWem1y+arCON90UqrvWxWOxfm43HQ8FoZyWIAhUoXnrqZ0Y/HoODOAMMbB8eDjEOZzBqx6JsvXhaa69LHAtknk/c962zWsxk8v5WTyU/HUJXHVnYnc0n5Bwma5PxOo4+2EL5QzOvpZ1FcRkqJt44s1o2/aIjxpWcafDd9OZXzEJNyHOYjymuzjKDKXm061iNy1zNarnq/urD57H2cbfC0mgTybMHh5oCPGXk2a8/BYqnizzBZEI0PfjioX6ltOa0jZsHt2u2fcma17JVcpjjvF5j8+sRp+VYE0oserZh469uvKTQsVSmBP3hJMsa8fxL1+dC0/SZnhPNZ7n7hq2uH7SqhzVIdm1rz/AKTCJfyI1f0F9TXEtlMZu1arF3+ddOGqX+gfcN0Y/sDovVB02Wsvh+OsRiuUOP718tyjXsvGdimQngHE/wDJsMpi8nj75xsKF2FOWTxJHA5+wiz8bZG9j37pN6pamGzfJmZy/E3JGPxwqV+zVjIda6MXmElX/lQmJy2KyWOrkkWdCd6OKzA2sNXZyih5a/13pi6yOt/kDNaPqxbruI+JMvKOZBwtM5EROkR3lRznRaemiW9xPh2Vs1HKHN0WutfbattS3aiqfjqKCrWfDfP/AFG7Rh8tzhGpomjYY3uitrWPmGNgw5yF7pDQx4L9+1Xt3xi9z2Mtnb3umlB5To0iBdqzh829OXTDqWbw3AU7nIPIGcA1e1tOSgeVYJRxL7lPkMkfH46pZpY8hns1sNr9D3LeI0YZC+IzPZbaJGbrYGURj6KLGpqeFnk5umhRWSRDqq2PWlV18WNHSaSTGgxUMssspURJaaSgjLt3GQqOIp1sG2AxoQ4+hXxTYjH1wj8NelTFT9xVQiEzt2DWDEYxjZ27Qg0WdvasbUs1dtZ+WxZQ5slkbOYfNZGycnexfumu+7rhzFdn7mtHkQhCPF+5CPJ2f2Kk/h0cA8k9OXCWpxHKVbX1egtOVb7Uw49bbQrlhdNLy2KpYshUqA44y24/LoZ6kx1qJ9DHoreQ2tw20x26TuL9u4l46zWubpUqU8pd3bKZquKner5AcsefC69jglkatKQ4yKfGWZMKTsSIvLkSMJTeEZL9YnLOmcx8m4LZ9GuXL2Io6HicFZNdx9nHFjkq+d2XJHDEFqMCTgKvlasXNFnFIvmxHKcYNOU/dTvCbXUPwdu+JTsmqabpIMJ6ltn21ux6++pLSFeU7spDRKdOC9PrmYdibKHH018mUphtx4m0ndDmTjofK3G+y6M9uGPsZetXJj7xISmKrk8ddr5KgQ8Yd5vWJZqjBbccZEaqYzihIjRZ7T8I8mE4g5P1bf2pzyNbDWrIsljxTiMtvFZOjZxeRGCU+w2tDq3CWKbElAT2wAYs4jecmy84y1Pii9PWTq+GofAmW5HqMxDepsfpbCRHtkxKuKgyrIyrmm3NLEepoDBttVcS6hVlq1EQ3XuSEEw1Hjwx0/NdZ/FWDpcf1+McLttDDVyY/A5e0QV5gUgs7UwvkMdsuOATH1R+GFMOQr07sARhVmWLDgIU492wXQ3y9n73I9nlfO6bkM5YHkdiwtQRaDnvHkz3Ttjclq+SsDyVsvjJdPjbN2hM8p24Bk5ZlLr1Jg6jW8SyK28gRKfaabjp2DcViZCXYFVqLrNKYsIBSmFykORINtJejlIZckpWy16ja3iMlKyEYU2Ts4XEnzVUdHM2MXQNlqQSRKGnky1BTv1RFhMkCDr2pFDAkCEjOMGlGc2dpPjY2KviwZnO1MDcJkMIHJ5Ovhb5xzCa7ix2jix1wwpjFMRLNSITEHMQ5wlN4yHB2eLRd0p8a6vizixWd2cOPX3UnS21wqFHmxp/s0aUxXxWEvSYTj8RTy/YVveVh95KWnWiWtLvqNN9lFnZvX5V0VQUwi8M2ZpPOUuzOz9mdmZvVvT4lIPNvH6uUOLtfi2SZKws631qZb6/Sabu619qyqfUeJKlMMvTorMaS6lKjTFff7oWk1IVq7d2dlyHH5opjb2u3vf5zOzx/EzuzM/zO6rZ0g9POu4lsNfpt7Xwq+6s4UGipWIthEsXGqz2g59u687CcfYQiXKj1CWWye9UjgvKcbJKmjPbCLt3d181KtMLzmRmaTs0Yszs/p37y79u7ertHt6/E6u5PjqmQZsRKiQqVEkR0rURmlCn2VtEoyL3mSTV3Mi95kXuG9fc7d2dvlbsqodInD+24hzOvgbeJCgzbjQRpMJiJYR7HzxIcBLByVuxVONNoedcUlppaykETS1OstEpvz7Ys7M7P8v/AIXx0wEDGbEZmeUm7Mzs/oze3u3y9/x+imfl3iHKczZZeZ07bzK2HjmU1zC9NNlS2JIU2UiMpxC0OsPIP0Z0F4jYls9v+1KZiSo2rszt2dc5gwPDwT/HGTe2L/K3zfK3sf8AH2dqRweCur/iRCqni7kKBd5xt1z5Pie3V5Nx2XFrM1fIWzhTKuqccUpT7zFZNlNeq4bnrOOmpQ43g7ezs/8Aj5//ACvhavdD70RWlBvY3dvRv5s2eMfl7M7/ANKjHb9PPV/yRMam7dCtC7H8/srUvW5lqBDNz/uKhVkOdGrYaneySdXFiMqdJKCcNRIQSdPBL5P+rf8AlcRK10r9ye+7ezvOHZu/t7Mzszfob9imCqpuuzP0tXnc5U4+gpqatYq62FXHgltx2IyDbbd80+RNcdkn3Jbzzy3PaHvM++lx5x5bmvYnp29O383+tczRyEYtGEYQjFmZmj5fxfH6u/r8vyv6+1aBZor1Ocz6dQqKvTFSVRaJcEiKEu9KAwVuqGRERFFVYe0HHIiIiZNBERF7hy/jXYw8Xhj4+3j8MfF29ni7N4u3zd+/ZZhc/eFVgea+UtVyjW8oaHDzNnYrubylRnK3QVxXD7LCJkutdOxpZMVue+07PlMylT1qmypC2n2mDbjohByl0R6vyLuub3SnueW1uxsNuWQyWOjiKeUqNfIMUbB6c3t44wI2SwnaOM0rUnsnLKBRjeIoz44l689s4z0TA6Ld0bD7RX1unHG4vJyzN3E3HxwiFlWr3RtTyQTzqimOoAoI1ItWAKJBEK0yyhj5ljM/vA3v8vK/83C3v2u3DfhTyf6qVf7dVyftl2b/AAR4r9cLf930+ZYzP7wN7/Lyv/Nwfa7cN+FPJ/qpV/t1Ptl2b/BHiv1wt/3fT5ljM/vA3v8ALyv/ADcH2u3DfhTyf6qVf7dT7Zdm/wAEeK/XC3/d9PmWMz+8De/y8r/zcH2u3DfhTyf6qVf7dT7Zdm/wR4r9cLf930+ZYzP7wN7/AC8r/wA3B9rtw34U8n+qlX+3U+2XZv8ABHiv1wt/3fT5ljM/vA3v8vK/83B9rtw34U8n+qlX+3U+2XZv8EeK/XC3/d9PmWMz+8De/wAvK/8ANwfa7cN+FPJ/qpV/t1Ptl2b/AAR4r9cLf931+SPBYy5LSa+f79SCUk1pRx9XIWpHcvMlKz1bhIUZdySo0LJJ9jNCiLsesfsduEaUXlyllHj3bxNHVakZPHv6tGT5uTRd27s0njJmf1eL+x9JfZLs68ZNDiTExk7P4Xlt1yUWl29HlFsDB5Mz9neLTi7t6NKPfu2rfAfCuZ6euKctxNkpdlY1GZanrO0t1sLsrOwt7OZcWc6T7KzHjtE9OnPlFjtNeWLCRGim4+tlUh2cPF/HWG4p0fCaLgj3LdDDwtSe7fkKVy5bv3D37tk3kjEKDEs2SsEMIdgV4hC8yyG5ZwH5Y5MznL++53f9gr0qeQzc6kWo46JY0qNPH0q+Oo1QeeQppuOrVE5zEn3PZkY7QFEjChMQr9W5QEQEQEQEQEQEQEQEQEQEQEQEQEQEQEQEQEQEQEQEQEQEQEQEQEQEQEQEQEQEQEQEQEQEQEQEQEQEQEQEQEQEQEQEQEQEQEQEQEQEQEQEQEQEQEQEQEQEQEQEQEQEQEQEQEQEQEQEQEQEQEQEQEQEQEQEQEQEQEQEQEQEQEQEQEQEQEQEQEQEQEQEQEQEQEQEQEQEQEQEQEQEQEQEQEQEQEQEQEQEQEQEQEQEQEQEQEQEQEQEQEQEQEQEQEQEQEQEQEQEQEQEQEQEQEQEQEQEQEQEQEQEQEQEQEQEQEQEQEQEQEQEQEQEQEQEQEQEQEQEQEQEQEQEQEQEQEQEQEQEQEQEQEQEQEQEQEQEQEQEQEQEQEQEQEQEQEQEQEQEQEQEQEQEQEQEQEQEQEQEQEQEQEQEQEQEQEQEQEQEQEQEQEQEQEQEQEQEQEQEQEQEQEQEQEQEQEQEQEQEQEQEQEQEQEQEQEQEQEQEQEQEQEQEQEQEQEQEQEQEQEQEQEQEQEQEQEQEQEQEQEQEQEQEQEQEQEQEQEQEQEQEQEQEQEQEQEQEQEQEQEQEQEQEQEQEQEQEQEQEQEQEQEQEQEQEQEQEQEQEQEQEQEQEQEQEQEQEQEQEQEQEQEQEQEQEQEQEQEQEQEQEQEQEQEQEQEQEQEQEQEQEQEQEQEQEQEQEQEQEQEQEQEQEQEQEQEQEQEQEQEQEQEQEQEQEQEQEQEQEQEQEQEQEQEQEQEQEQEQEQEQEQEQEQEQEQEQEQEQEQEQEQEQEQEQEQEQEQEQEQEQEQEQEQEQEQEQEQEQEQEQEQEQEQEQEQEQEQEQEQEQEQEQEQEQEQEQEQEQEQEQEQEQEQEQEQEQEQEQEQEQEQEQEQEQEQEQEQEQEQEQEQEQEQEQEQEQEQEQEQEQEQEQEQEQEQEQEQEQEQEQEQEQEQEQEQEQEQEQEQEQEQEQEQEQEQEQEQEQEQEQEQEQEQEQEQEQEQEQEQEQEQEQEQEQEQEQEQEQEQEQEQEQEQEQEQEQEQEQEQEQEQEQEQEQEQEQEQEQEQEQEQEQEQEQEQEQEQEQEQEQEQEQEQEQEQEQEQEQEQEQEQEQEQEQEQEQEQEQEQEQEQEQEQEQEQEQEQEX/2Q==;fontSize=9;fontStyle=1" vertex="1" parent="xpjgmQdCxlFDzocmX1uN-12">
          <mxGeometry x="150" y="122.75" width="70" height="70" as="geometry" />
        </mxCell>
        <mxCell id="xpjgmQdCxlFDzocmX1uN-34" value="Consumer Dynos (One-Off)" style="swimlane;horizontal=0;fontSize=6;fillColor=#f8cecc;gradientColor=#ea6b66;strokeColor=#b85450;" vertex="1" parent="xpjgmQdCxlFDzocmX1uN-12">
          <mxGeometry x="280" y="100" width="150" height="140" as="geometry" />
        </mxCell>
        <mxCell id="xpjgmQdCxlFDzocmX1uN-31" value="" style="shape=image;verticalLabelPosition=bottom;labelBackgroundColor=default;verticalAlign=top;aspect=fixed;imageAspect=0;image=data:image/png,iVBORw0KGgoAAAANSUhEUgAAAPgAAAD4CAYAAADB0SsLAAAAAXNSR0IArs4c6QAAAARnQU1BAACxjwv8YQUAAAAJcEhZcwAAFxEAABcRAcom8z8AABK3SURBVHhe7Z17cFfVncDZ2Zn+0Z3Zui0khN2SEOh0+pjdme20zLTbdVwIAR9tp7vu/udsp/JKIDxEEAqCiKAFlIevWm1rLYq1oEUQDSE8AyGBgGB5BAKCEML7FQiQwNn7PTkpZ/GqB34/yT3n9/nMfAZF+N3fvd5P7vvcDgAAAAAAAAAAAAAAAAAAAAAAAAAAAAAAAAAAAAAAAAAAAAAAAAAAAAAAAAAAAACZQo8v9/37bp37fjcvu6AnYlje2bNH576dzKqeOeTk3N4xinp2fnbfVXnZhQ35nfsqxPDsp7pl9znZLbuwOlrXX+6eXfgtk0C45Gb1+Uk08/t65Nyjune+Uy+IaAHIgkAMTlm/u0eh98i5W0UbtcZo/R9uUgiP3OzeP5MZlRmOWxiIISuxf63Lj1ReVsEEk0Q45Of07hrtppw2uy2IGWnrrnvfq9E/f8+kEQR/k5fV50W9mxIz04iZZPecu6JfC9aZNvznOzl3fzEK/Fjr8Xb8TCNmjoWqW1afpq9/tXcXk4jfyNnDbtl9m+NnFjHTLIy24neqvJzehSYRv8nr1Ou+1t2SuJlFzDzlcDU3q2CkScRv8rN6P8zxN+I1pYe8rN7DTCJ+0y27YCyBI16TwBEDlsARA5bAEQOWwBEDlsD/aqH66lfuUF1u+6H6R8QE+U9fvj1mfXWTwI25nXqpf/3Gfer2niPUD79bgpgI/73ncNXzXwZEkRbErrefJYEbu9z2A/U/P31aPfrINjV+bCViInzk4Ro1qP8Cldux101FTuDGLrf9m/qvHz2lJoyrUqMfWImYCH/x0Dp1//++RuACgWNoErgFgWNoErgFgWNoErgFgWNoErgFgWNoErgFgWNoErgFgWNoErgFgWNoErgFgWNoErgFgWNoErgFgWNoErgFgWNoErhFyIGPGbVSPTCsXJUUl6XFEUPL9WfGTcsHHxy5Mna+btYHR66InU57S+AWIQcuK+FvX9qmtv/leFpcuqRODR+6PHZaSXfUiBXRir9a1WxqiJ23G3XH9hNq2pRKNTL6ARo3vfaUwC1CDrxo4DK1+O06lS527jihhgwui51W0pUfdk/P2WTmJHVaWq6oiePXEnjSCTnw4kHL1Ftv7jarZOpsff+oGlrkZ+D6h92iPWZOUmfPnlN6b0Z2++Om154SuAWBu+Nz4MOHLFe7a0+ZOUmd1as+0ss3blrtLYFbELg7vgY+ctgK9cjDFaqpqdnMSerMf3UHgfsAgbvja+BDB5epF19438xFepg1s1oNi/YK4qbX3hK4BYG742vgxdHxd3nZfjMXqXPmzCU1fuxq9cDw5J1gEwncgsDd8TVw2dLurTtt5iJ15DJZkpcDgVsQuDs+Bi4350x9tFJdvnzFzEXqLI/2BooGlsZOLwkSuAWBu+Nj4LJ7/uaCWjMH6eH5Z7bo6+px00uCBG5B4O74Frhco5ZbdT/66KyZg9Q5XN+oz8on9TZVkcAtCNwd3wKXY++nZlSbb58eypZ9mOjdc5HALQjcHd8Cl7vX1qz+yHz71Glpuapm/LJK3zQTN72kSOAWBO6OT4E/MFweLlmjzp69ZL596tTtOR0deyf/YRsCtyBwd3wKXOZd7jZLJ7IsZa8gbnpJksAtCNwdnwJP97XvC03N6pGJFYl8eux6CdyCwN3xJXCJe+b0anX1qvniaWDb1mNqyODkb71FArcgcHd8CXzwgFK1ft0h863TwwvPb/Fm74XALQjcHR8Cl5NgT82sVs3N6btz7YNtx/SNLUl89jtOArcgcHd8CFy+365dJ8w3Tp0rV66qJ6ZuSOyTY3ESuAWBu5P0wGU4qafn1Jhvmx7Wr6vXyzFuekmVwC0I3J0kBy63jsoQSukcteXC+ebo/+0aNaIk+WfObQncgsDdSXLgMq/zXvmL+abp4b1393lx3ft6CdyCwN1JauAyJLJsZeVBkHRx7NgFNVoeVhme3IdKPkkCtyBwd5IYuLyIQS6LLUzzI6HzXtmul1/cNJMugVsQuDtJDFy+z8zpVerSpRbzLVNnY3WD/lxfLotdL4FbELg7SQtcxkSTW0cPpvF5b/ks2S2XZ77jpumDBG5B4O4kLXB5LnvtmoPm26XO+cbLavLECq+uecdJ4BYE7k5SApfj7qLouPuVl9N71vylX2/Vy8znFyyKBG5B4O4kJXAZcGHShAp19uxl881SZ+mSvXr8trjp+SaBWxC4O0kIXC6Jya/19efMt0qdzTVH1LDi5X/9bN8lcAsCdycJgcv17iembVAV0bH3yhUHUlZeiDB+rNyt5vdxty2BWxC4O0kIXI6PZUsr8ya71CkbfY6cNff9uNuWwC0I3J2kHIPjp0vgFgTuDoH7IYFbELg7BO6HBG5B4O4QuB8SuAWBu0PgfkjgFgTuDoH7IYFbELg7BO6HBG5B4O4QuB8SuAWBu0PgfkjgFgTuDoH7IYFbELg7BO6HBG5B4O4QuB8SuAWBu0PgfkjgFgTuDoH7IYFbELg7tzpwGdVU3ljSpjwLbjt0cJl+pa+MoWb/vgzE6OuIqOmQwC0I3J3PI3AJV57HljBLiluDle8tz2rLq4jk2e82H5u8Xj0+tVI9/lhk9OvLv/1AvfqH7Wru7E1q6qPmv0XKcE4SubyrbEj0WW2fEzf9ECVwCwJ3J5XAZYsqkcnWVqKT7yYxy9DH48asVtOmVKrnn92ig5WRVirWHlS7dp7UbysR6yNl7HN522ebNi0t136/sfGyOnjwnKracFjNf22Hmv54lZ6+TFeiDz12ArcgcHduJHCJSO9GR39evoeE/dCDq9TsJzfqiFeUH1DVUYAyDvmJE00fCzadXI0+uqGhUVVV1uuRWGX0FtlDCDV0ArcgcHc+LXDZQsqusExTlF3vqVPW66GIlyyuU9u3H1cnjjeZT2pfZI9g/qs79HeW0GV3Pm6efJXALQjcnesDl2Pnkui4WSKRrfWMX1apNxfWquqqw6r+0DnV3HzF/M1k0ha6DLooJ+xCOTFH4BYE7o4EPqh/aeuxbKSE8ezcGrW8bL/at/e03hX2kbNnLukTdvKDKoQBGAncgsDd2bL5iD4hJu/hlhNYEkZIyMk9OeknY6T7HDmBWxC4O01NzerChWbzb2Gyc8cJNWnCWr3s4papDxK4BYHD9Zw+dVFfsiuKdtnjlmvSJXALAoc45Lr6r3/1vr5WH7dskyyBWxA4fBIXL7boO+RKomPyuOWbVAncgsDh0ziw/6w+sy7GLeMkSuAWBA6fxdo1B/WyjFvGSZTALQgcXPjdb7bp+9jjlnPSJHALAgcX5H55WaY+3L9O4BYEDq688cddXlw6I3ALAgdXjh+7oJdr0rfiBG5B4HAj/CnaistyjVveSZHALQgcboQjDY36kpk8Dhu3zJMggVsQuL/IyC1yx9mtZs6sTXoAi7hlngQJ3ILAk8Wliy3q+PELateuk2pDZb1a+s5eVfruPvW7l7ap557ZrH713BbtrJkb9eOqT0zboP/9uac3693nTRsb9LHy58niRXWqaGBp7DJPggRuQeDth4zwIiO9LCv9UL02b4d6Zm6NmjJ5vR7aqaS4TA/CIGet5TltGWhCfq9Efo2ULajsKo8YWt76ezLwRDS/cq1aHvWU57sPHDhrppRe6upOqxElyxM7QASBWxD4rUHu6/5w3xlVub5ej8n25IxqNXZ0a8itYS7T/zyypDzls9Ty9+Uz5YfAyvID5hukDxk/Tu5Rl8jjpt/eErgFgX9+yJBI69cdUr95cauaPGmdHtZJQhYlvs/7cpNs4WUZyEAO6UaGekrqk2YEbkHg6UO20h9sO6YW/qlWHyO3fQfZvW6vlxFI5LILv3v3KfMt00N1VYOet7hptrcEbkHgqdEWtRxDT55YoWOSY+ZbsYV2dcigsuj4frP5xulhy+b0vwQiXRK4BYHfOHFRyyCMSR1+WH7QyIm3o0fTd3ZdxlmXa+FJ+SFmS+AWBO6GnFjau/e0WvTnPerR6Hhatl5Jjvp6hxYt0+OtpYsTJy7ok4QEnnAI/NORVwa9HUUt15uHDy3Xnykny+Kml2TlhJg8150uZIhoeSWSvOwhbnrtKYFbEPjHka213DAiN5DIFkqOqWVF9vnFADIP8oMqncx4gsATD4Ff4/z5ZlW27EP99k7ZBReTuAt6M0rg7yyuM3OaHgjcAwhcqaNHzqtFb+1Wkyeu03eOJXGlTVUCd5fAjb4HLifN3nh9pxozapUqGlDq5bG1qwTuLoEbfQxcTg7V7jqp3/opK6f8GZ9GDL1ZCdxdAjcmPXDZ3X57UeuJJXmsUk6cPTm9Wt+E0vo2zfDDbpPA3SVwY9IDl5Nkf5y/U1WsPaimTWk9cSYv1gvlNbk3IoG7S+DGpAfeptxplsQV8VZK4O4SuNGHwDNxax0ngbtL4EZftuBI4DcigRsJ3B8J3F0CNxK4PxK4uwRuJHB/JHB3CdxI4P5I4O4SuJHA/ZHA3SVwI4H7I4G7S+BGAvdHAneXwI0E7o8E7i6BG30IXAZs4G42Ar8RCdyY9MDlabGJ49eaMckz58mxOAncXQI3Jj1wGWhwSbRSl5ftV4MHlAYz/NLNSODuErgx6YHLYA5tz4PLgIMSfCYM7hAngbtL4EYfArdHdNlY3aBXSHnBX9yfD1kCd5fAjb4FLmyuORKtlOV6xZS3fcT9vRAlcHcJ3Ohj4MLeutNq4oQKPcJLpkRO4O4SuNHXwIWGw41q0oS1+vVDcX83NAncXQI3+hy4cPrURfXMnBpVNLA09u+HJIG7S+BG3wMXLl1q0a/WHXj/e7GfEYoE7i6BG0MIXJDI57+6Q//5UG+IIXB3CdwYSuBt/Dn6s4P6lwZ5rZzA3SVwY2iBC+8u3adXWl/e++0qgbtL4MYQAxdqNjbot5/IyhvKZTQCd5fAjaEGLry/5Wi0oqxWJcVhRE7g7hK4MeTAhcP1jerhX6zV7zGL+3yfJHB3CdwYeuDC4cON6rHJ69UQzyMncHcJ3JgJgQtNF5pbb4gZ4O9dbwTuLoEbMyVwQa6VPzt3cxR5qZcjxBC4uwRuzKTAhStXrqqFC2q9jJzA3SVwY6YF3sY7i/eaYaDip5tECdxdAjdmauDyJNqYUau8GgKKwN0lcGMmBl5Tc0SNe2i1GuHZqDAE7i6BGzMt8KoNh1VJcZleqX27+YXA3SVwYyYF/s6Svfr2VV/vUSdwdwncmCmBL3hjl37KzOdhlwncXQI3hh54U1OLmvfKdv05vr8dhcDdJXBjyIFL3HOe2qQG3R/GcE4E7i6BG0MN/OTJJjU7irsoimI0j4t+IgTuAQT+/zl08Fw0P2v0wyUhDalM4O4SuDG0wPfsPqXjLikOb7x0AneXwI0hBb6x6nBwo7jYEri7BG4MJfANlVHcxeGNw2ZL4O4SuDGEwN9aWJsRbx0lcHcJ3Oh74G8uqM2Y94YTuLsEbvQ18IsXW9SLL2zVW27fb2BxlcDdJXCjj4E3NTWrubM2qcH9w38fmS2Bu0vgRt8Crz90Tk2bUun9AIo3I4G7S+BGnwKXuMcHeAOLqwTuLoEbfQj8vaX7VO2uk2r8WLmBJcxr3C7KiLDL3ttn0kwPT06vJvCkE3Lgculr+uNVauzoVXpFzNS4RRmBZu7sTWrJ23Vpc9KEikReXiRwi5ADl6Dl5pVMuAz2WcqykMhlVz1dJnW5ErhFyIFjZkrgFgSOoUngFgSOoUngFgSOoUngFgSOoUngFgSOoUngFgSOoUngFgSOoUngFgSOoUngFgSOoUngFgSOoUngFgSOoUngFqkGfu+PZ6mJ4zeqMQ+uRkyEE8ZVqv4/e53AhVQD/897ZkY/MderUSOWIybCsaPXqJ/fN4/AhVQCl4X39a4/Vt/u/t/qW/n3IiZCWR+/kffT2HXWRQK3zO3US3X9yh2qa0fEhBitj7kd/yN2fXWRwBEDlsARA5bAEQOWwBEDlsARAzaowPOyCsYTOOI1pYfcrN7DTSJ+0z2rz0+659wVO6OImWjrBq/3EJOI33wtq1d+t+zCpsiPzShi5lmo8jv3U/k5BT8wifjNNzvc+4W8rD77ZabiZxgxc8zv3FflZfc507XrXf9gEvGfblmF43rk3BM7w4iZpN49zyp43aQRBv+cXfB30czt5FgcM9n8zndGv/Y93rVjYY5JIxy6drrj+/nZ/Y4TOWai3aO4I1vyOvW6zyQRHrnZhXndsgvLZHe9RxR6dznZEB2TIIZpPyUbtB5d5PC0sLZrpz7fNymETbSb8vP87MI/RD/ZNkUzfij6FTEw9Xq9M/L3+Vn9huV+6fbbzOqfWXwn5+4v5iAGaIcO9/6tWc0BAAAAAAAAAAAAAAAAAAAAAAAAAAAAAAAAAAAAAAAAAAAAAAAAAAAAAAAAAAAAAqJDh/8Dvn0ZNpADabsAAAAASUVORK5CYII=;" vertex="1" parent="xpjgmQdCxlFDzocmX1uN-34">
          <mxGeometry x="80" y="20" width="49" height="49" as="geometry" />
        </mxCell>
        <mxCell id="xpjgmQdCxlFDzocmX1uN-35" value="" style="shape=image;verticalLabelPosition=bottom;labelBackgroundColor=default;verticalAlign=top;aspect=fixed;imageAspect=0;image=data:image/png,iVBORw0KGgoAAAANSUhEUgAAAPgAAAD4CAYAAADB0SsLAAAAAXNSR0IArs4c6QAAAARnQU1BAACxjwv8YQUAAAAJcEhZcwAAFxEAABcRAcom8z8AABK3SURBVHhe7Z17cFfVncDZ2Zn+0Z3Zui0khN2SEOh0+pjdme20zLTbdVwIAR9tp7vu/udsp/JKIDxEEAqCiKAFlIevWm1rLYq1oEUQDSE8AyGBgGB5BAKCEML7FQiQwNn7PTkpZ/GqB34/yT3n9/nMfAZF+N3fvd5P7vvcDgAAAAAAAAAAAAAAAAAAAAAAAAAAAAAAAAAAAAAAAAAAAAAAAAAAAAAAAAAAAACZQo8v9/37bp37fjcvu6AnYlje2bNH576dzKqeOeTk3N4xinp2fnbfVXnZhQ35nfsqxPDsp7pl9znZLbuwOlrXX+6eXfgtk0C45Gb1+Uk08/t65Nyjune+Uy+IaAHIgkAMTlm/u0eh98i5W0UbtcZo/R9uUgiP3OzeP5MZlRmOWxiIISuxf63Lj1ReVsEEk0Q45Of07hrtppw2uy2IGWnrrnvfq9E/f8+kEQR/k5fV50W9mxIz04iZZPecu6JfC9aZNvznOzl3fzEK/Fjr8Xb8TCNmjoWqW1afpq9/tXcXk4jfyNnDbtl9m+NnFjHTLIy24neqvJzehSYRv8nr1Ou+1t2SuJlFzDzlcDU3q2CkScRv8rN6P8zxN+I1pYe8rN7DTCJ+0y27YCyBI16TwBEDlsARA5bAEQOWwBEDlsD/aqH66lfuUF1u+6H6R8QE+U9fvj1mfXWTwI25nXqpf/3Gfer2niPUD79bgpgI/73ncNXzXwZEkRbErrefJYEbu9z2A/U/P31aPfrINjV+bCViInzk4Ro1qP8Cldux101FTuDGLrf9m/qvHz2lJoyrUqMfWImYCH/x0Dp1//++RuACgWNoErgFgWNoErgFgWNoErgFgWNoErgFgWNoErgFgWNoErgFgWNoErgFgWNoErgFgWNoErgFgWNoErgFgWNoErgFgWNoErhFyIGPGbVSPTCsXJUUl6XFEUPL9WfGTcsHHxy5Mna+btYHR66InU57S+AWIQcuK+FvX9qmtv/leFpcuqRODR+6PHZaSXfUiBXRir9a1WxqiJ23G3XH9hNq2pRKNTL6ARo3vfaUwC1CDrxo4DK1+O06lS527jihhgwui51W0pUfdk/P2WTmJHVaWq6oiePXEnjSCTnw4kHL1Ftv7jarZOpsff+oGlrkZ+D6h92iPWZOUmfPnlN6b0Z2++Om154SuAWBu+Nz4MOHLFe7a0+ZOUmd1as+0ss3blrtLYFbELg7vgY+ctgK9cjDFaqpqdnMSerMf3UHgfsAgbvja+BDB5epF19438xFepg1s1oNi/YK4qbX3hK4BYG742vgxdHxd3nZfjMXqXPmzCU1fuxq9cDw5J1gEwncgsDd8TVw2dLurTtt5iJ15DJZkpcDgVsQuDs+Bi4350x9tFJdvnzFzEXqLI/2BooGlsZOLwkSuAWBu+Nj4LJ7/uaCWjMH6eH5Z7bo6+px00uCBG5B4O74Frhco5ZbdT/66KyZg9Q5XN+oz8on9TZVkcAtCNwd3wKXY++nZlSbb58eypZ9mOjdc5HALQjcHd8Cl7vX1qz+yHz71Glpuapm/LJK3zQTN72kSOAWBO6OT4E/MFweLlmjzp69ZL596tTtOR0deyf/YRsCtyBwd3wKXOZd7jZLJ7IsZa8gbnpJksAtCNwdnwJP97XvC03N6pGJFYl8eux6CdyCwN3xJXCJe+b0anX1qvniaWDb1mNqyODkb71FArcgcHd8CXzwgFK1ft0h863TwwvPb/Fm74XALQjcHR8Cl5NgT82sVs3N6btz7YNtx/SNLUl89jtOArcgcHd8CFy+365dJ8w3Tp0rV66qJ6ZuSOyTY3ESuAWBu5P0wGU4qafn1Jhvmx7Wr6vXyzFuekmVwC0I3J0kBy63jsoQSukcteXC+ebo/+0aNaIk+WfObQncgsDdSXLgMq/zXvmL+abp4b1393lx3ft6CdyCwN1JauAyJLJsZeVBkHRx7NgFNVoeVhme3IdKPkkCtyBwd5IYuLyIQS6LLUzzI6HzXtmul1/cNJMugVsQuDtJDFy+z8zpVerSpRbzLVNnY3WD/lxfLotdL4FbELg7SQtcxkSTW0cPpvF5b/ks2S2XZ77jpumDBG5B4O4kLXB5LnvtmoPm26XO+cbLavLECq+uecdJ4BYE7k5SApfj7qLouPuVl9N71vylX2/Vy8znFyyKBG5B4O4kJXAZcGHShAp19uxl881SZ+mSvXr8trjp+SaBWxC4O0kIXC6Jya/19efMt0qdzTVH1LDi5X/9bN8lcAsCdycJgcv17iembVAV0bH3yhUHUlZeiDB+rNyt5vdxty2BWxC4O0kIXI6PZUsr8ya71CkbfY6cNff9uNuWwC0I3J2kHIPjp0vgFgTuDoH7IYFbELg7BO6HBG5B4O4QuB8SuAWBu0PgfkjgFgTuDoH7IYFbELg7BO6HBG5B4O4QuB8SuAWBu0PgfkjgFgTuDoH7IYFbELg7BO6HBG5B4O4QuB8SuAWBu0PgfkjgFgTuDoH7IYFbELg7tzpwGdVU3ljSpjwLbjt0cJl+pa+MoWb/vgzE6OuIqOmQwC0I3J3PI3AJV57HljBLiluDle8tz2rLq4jk2e82H5u8Xj0+tVI9/lhk9OvLv/1AvfqH7Wru7E1q6qPmv0XKcE4SubyrbEj0WW2fEzf9ECVwCwJ3J5XAZYsqkcnWVqKT7yYxy9DH48asVtOmVKrnn92ig5WRVirWHlS7dp7UbysR6yNl7HN522ebNi0t136/sfGyOnjwnKracFjNf22Hmv54lZ6+TFeiDz12ArcgcHduJHCJSO9GR39evoeE/dCDq9TsJzfqiFeUH1DVUYAyDvmJE00fCzadXI0+uqGhUVVV1uuRWGX0FtlDCDV0ArcgcHc+LXDZQsqusExTlF3vqVPW66GIlyyuU9u3H1cnjjeZT2pfZI9g/qs79HeW0GV3Pm6efJXALQjcnesDl2Pnkui4WSKRrfWMX1apNxfWquqqw6r+0DnV3HzF/M1k0ha6DLooJ+xCOTFH4BYE7o4EPqh/aeuxbKSE8ezcGrW8bL/at/e03hX2kbNnLukTdvKDKoQBGAncgsDd2bL5iD4hJu/hlhNYEkZIyMk9OeknY6T7HDmBWxC4O01NzerChWbzb2Gyc8cJNWnCWr3s4papDxK4BYHD9Zw+dVFfsiuKdtnjlmvSJXALAoc45Lr6r3/1vr5WH7dskyyBWxA4fBIXL7boO+RKomPyuOWbVAncgsDh0ziw/6w+sy7GLeMkSuAWBA6fxdo1B/WyjFvGSZTALQgcXPjdb7bp+9jjlnPSJHALAgcX5H55WaY+3L9O4BYEDq688cddXlw6I3ALAgdXjh+7oJdr0rfiBG5B4HAj/CnaistyjVveSZHALQgcboQjDY36kpk8Dhu3zJMggVsQuL/IyC1yx9mtZs6sTXoAi7hlngQJ3ILAk8Wliy3q+PELateuk2pDZb1a+s5eVfruPvW7l7ap557ZrH713BbtrJkb9eOqT0zboP/9uac3693nTRsb9LHy58niRXWqaGBp7DJPggRuQeDth4zwIiO9LCv9UL02b4d6Zm6NmjJ5vR7aqaS4TA/CIGet5TltGWhCfq9Efo2ULajsKo8YWt76ezLwRDS/cq1aHvWU57sPHDhrppRe6upOqxElyxM7QASBWxD4rUHu6/5w3xlVub5ej8n25IxqNXZ0a8itYS7T/zyypDzls9Ty9+Uz5YfAyvID5hukDxk/Tu5Rl8jjpt/eErgFgX9+yJBI69cdUr95cauaPGmdHtZJQhYlvs/7cpNs4WUZyEAO6UaGekrqk2YEbkHg6UO20h9sO6YW/qlWHyO3fQfZvW6vlxFI5LILv3v3KfMt00N1VYOet7hptrcEbkHgqdEWtRxDT55YoWOSY+ZbsYV2dcigsuj4frP5xulhy+b0vwQiXRK4BYHfOHFRyyCMSR1+WH7QyIm3o0fTd3ZdxlmXa+FJ+SFmS+AWBO6GnFjau/e0WvTnPerR6Hhatl5Jjvp6hxYt0+OtpYsTJy7ok4QEnnAI/NORVwa9HUUt15uHDy3Xnykny+Kml2TlhJg8150uZIhoeSWSvOwhbnrtKYFbEPjHka213DAiN5DIFkqOqWVF9vnFADIP8oMqncx4gsATD4Ff4/z5ZlW27EP99k7ZBReTuAt6M0rg7yyuM3OaHgjcAwhcqaNHzqtFb+1Wkyeu03eOJXGlTVUCd5fAjb4HLifN3nh9pxozapUqGlDq5bG1qwTuLoEbfQxcTg7V7jqp3/opK6f8GZ9GDL1ZCdxdAjcmPXDZ3X57UeuJJXmsUk6cPTm9Wt+E0vo2zfDDbpPA3SVwY9IDl5Nkf5y/U1WsPaimTWk9cSYv1gvlNbk3IoG7S+DGpAfeptxplsQV8VZK4O4SuNGHwDNxax0ngbtL4EZftuBI4DcigRsJ3B8J3F0CNxK4PxK4uwRuJHB/JHB3CdxI4P5I4O4SuJHA/ZHA3SVwI4H7I4G7S+BGAvdHAneXwI0E7o8E7i6BG30IXAZs4G42Ar8RCdyY9MDlabGJ49eaMckz58mxOAncXQI3Jj1wGWhwSbRSl5ftV4MHlAYz/NLNSODuErgx6YHLYA5tz4PLgIMSfCYM7hAngbtL4EYfArdHdNlY3aBXSHnBX9yfD1kCd5fAjb4FLmyuORKtlOV6xZS3fcT9vRAlcHcJ3Ohj4MLeutNq4oQKPcJLpkRO4O4SuNHXwIWGw41q0oS1+vVDcX83NAncXQI3+hy4cPrURfXMnBpVNLA09u+HJIG7S+BG3wMXLl1q0a/WHXj/e7GfEYoE7i6BG0MIXJDI57+6Q//5UG+IIXB3CdwYSuBt/Dn6s4P6lwZ5rZzA3SVwY2iBC+8u3adXWl/e++0qgbtL4MYQAxdqNjbot5/IyhvKZTQCd5fAjaEGLry/5Wi0oqxWJcVhRE7g7hK4MeTAhcP1jerhX6zV7zGL+3yfJHB3CdwYeuDC4cON6rHJ69UQzyMncHcJ3JgJgQtNF5pbb4gZ4O9dbwTuLoEbMyVwQa6VPzt3cxR5qZcjxBC4uwRuzKTAhStXrqqFC2q9jJzA3SVwY6YF3sY7i/eaYaDip5tECdxdAjdmauDyJNqYUau8GgKKwN0lcGMmBl5Tc0SNe2i1GuHZqDAE7i6BGzMt8KoNh1VJcZleqX27+YXA3SVwYyYF/s6Svfr2VV/vUSdwdwncmCmBL3hjl37KzOdhlwncXQI3hh54U1OLmvfKdv05vr8dhcDdJXBjyIFL3HOe2qQG3R/GcE4E7i6BG0MN/OTJJjU7irsoimI0j4t+IgTuAQT+/zl08Fw0P2v0wyUhDalM4O4SuDG0wPfsPqXjLikOb7x0AneXwI0hBb6x6nBwo7jYEri7BG4MJfANlVHcxeGNw2ZL4O4SuDGEwN9aWJsRbx0lcHcJ3Oh74G8uqM2Y94YTuLsEbvQ18IsXW9SLL2zVW27fb2BxlcDdJXCjj4E3NTWrubM2qcH9w38fmS2Bu0vgRt8Crz90Tk2bUun9AIo3I4G7S+BGnwKXuMcHeAOLqwTuLoEbfQj8vaX7VO2uk2r8WLmBJcxr3C7KiLDL3ttn0kwPT06vJvCkE3Lgculr+uNVauzoVXpFzNS4RRmBZu7sTWrJ23Vpc9KEikReXiRwi5ADl6Dl5pVMuAz2WcqykMhlVz1dJnW5ErhFyIFjZkrgFgSOoUngFgSOoUngFgSOoUngFgSOoUngFgSOoUngFgSOoUngFgSOoUngFgSOoUngFgSOoUngFgSOoUngFgSOoUngFqkGfu+PZ6mJ4zeqMQ+uRkyEE8ZVqv4/e53AhVQD/897ZkY/MderUSOWIybCsaPXqJ/fN4/AhVQCl4X39a4/Vt/u/t/qW/n3IiZCWR+/kffT2HXWRQK3zO3US3X9yh2qa0fEhBitj7kd/yN2fXWRwBEDlsARA5bAEQOWwBEDlsARAzaowPOyCsYTOOI1pYfcrN7DTSJ+0z2rz0+659wVO6OImWjrBq/3EJOI33wtq1d+t+zCpsiPzShi5lmo8jv3U/k5BT8wifjNNzvc+4W8rD77ZabiZxgxc8zv3FflZfc507XrXf9gEvGfblmF43rk3BM7w4iZpN49zyp43aQRBv+cXfB30czt5FgcM9n8zndGv/Y93rVjYY5JIxy6drrj+/nZ/Y4TOWai3aO4I1vyOvW6zyQRHrnZhXndsgvLZHe9RxR6dznZEB2TIIZpPyUbtB5d5PC0sLZrpz7fNymETbSb8vP87MI/RD/ZNkUzfij6FTEw9Xq9M/L3+Vn9huV+6fbbzOqfWXwn5+4v5iAGaIcO9/6tWc0BAAAAAAAAAAAAAAAAAAAAAAAAAAAAAAAAAAAAAAAAAAAAAAAAAAAAAAAAAAAAAqJDh/8Dvn0ZNpADabsAAAAASUVORK5CYII=;" vertex="1" parent="xpjgmQdCxlFDzocmX1uN-34">
          <mxGeometry x="30" y="20" width="49" height="49" as="geometry" />
        </mxCell>
        <mxCell id="xpjgmQdCxlFDzocmX1uN-36" value="" style="shape=image;verticalLabelPosition=bottom;labelBackgroundColor=default;verticalAlign=top;aspect=fixed;imageAspect=0;image=data:image/png,iVBORw0KGgoAAAANSUhEUgAAAPgAAAD4CAYAAADB0SsLAAAAAXNSR0IArs4c6QAAAARnQU1BAACxjwv8YQUAAAAJcEhZcwAAFxEAABcRAcom8z8AABK3SURBVHhe7Z17cFfVncDZ2Zn+0Z3Zui0khN2SEOh0+pjdme20zLTbdVwIAR9tp7vu/udsp/JKIDxEEAqCiKAFlIevWm1rLYq1oEUQDSE8AyGBgGB5BAKCEML7FQiQwNn7PTkpZ/GqB34/yT3n9/nMfAZF+N3fvd5P7vvcDgAAAAAAAAAAAAAAAAAAAAAAAAAAAAAAAAAAAAAAAAAAAAAAAAAAAAAAAAAAAACZQo8v9/37bp37fjcvu6AnYlje2bNH576dzKqeOeTk3N4xinp2fnbfVXnZhQ35nfsqxPDsp7pl9znZLbuwOlrXX+6eXfgtk0C45Gb1+Uk08/t65Nyjune+Uy+IaAHIgkAMTlm/u0eh98i5W0UbtcZo/R9uUgiP3OzeP5MZlRmOWxiIISuxf63Lj1ReVsEEk0Q45Of07hrtppw2uy2IGWnrrnvfq9E/f8+kEQR/k5fV50W9mxIz04iZZPecu6JfC9aZNvznOzl3fzEK/Fjr8Xb8TCNmjoWqW1afpq9/tXcXk4jfyNnDbtl9m+NnFjHTLIy24neqvJzehSYRv8nr1Ou+1t2SuJlFzDzlcDU3q2CkScRv8rN6P8zxN+I1pYe8rN7DTCJ+0y27YCyBI16TwBEDlsARA5bAEQOWwBEDlsD/aqH66lfuUF1u+6H6R8QE+U9fvj1mfXWTwI25nXqpf/3Gfer2niPUD79bgpgI/73ncNXzXwZEkRbErrefJYEbu9z2A/U/P31aPfrINjV+bCViInzk4Ro1qP8Cldux101FTuDGLrf9m/qvHz2lJoyrUqMfWImYCH/x0Dp1//++RuACgWNoErgFgWNoErgFgWNoErgFgWNoErgFgWNoErgFgWNoErgFgWNoErgFgWNoErgFgWNoErgFgWNoErgFgWNoErgFgWNoErhFyIGPGbVSPTCsXJUUl6XFEUPL9WfGTcsHHxy5Mna+btYHR66InU57S+AWIQcuK+FvX9qmtv/leFpcuqRODR+6PHZaSXfUiBXRir9a1WxqiJ23G3XH9hNq2pRKNTL6ARo3vfaUwC1CDrxo4DK1+O06lS527jihhgwui51W0pUfdk/P2WTmJHVaWq6oiePXEnjSCTnw4kHL1Ftv7jarZOpsff+oGlrkZ+D6h92iPWZOUmfPnlN6b0Z2++Om154SuAWBu+Nz4MOHLFe7a0+ZOUmd1as+0ss3blrtLYFbELg7vgY+ctgK9cjDFaqpqdnMSerMf3UHgfsAgbvja+BDB5epF19438xFepg1s1oNi/YK4qbX3hK4BYG742vgxdHxd3nZfjMXqXPmzCU1fuxq9cDw5J1gEwncgsDd8TVw2dLurTtt5iJ15DJZkpcDgVsQuDs+Bi4350x9tFJdvnzFzEXqLI/2BooGlsZOLwkSuAWBu+Nj4LJ7/uaCWjMH6eH5Z7bo6+px00uCBG5B4O74Frhco5ZbdT/66KyZg9Q5XN+oz8on9TZVkcAtCNwd3wKXY++nZlSbb58eypZ9mOjdc5HALQjcHd8Cl7vX1qz+yHz71Glpuapm/LJK3zQTN72kSOAWBO6OT4E/MFweLlmjzp69ZL596tTtOR0deyf/YRsCtyBwd3wKXOZd7jZLJ7IsZa8gbnpJksAtCNwdnwJP97XvC03N6pGJFYl8eux6CdyCwN3xJXCJe+b0anX1qvniaWDb1mNqyODkb71FArcgcHd8CXzwgFK1ft0h863TwwvPb/Fm74XALQjcHR8Cl5NgT82sVs3N6btz7YNtx/SNLUl89jtOArcgcHd8CFy+365dJ8w3Tp0rV66qJ6ZuSOyTY3ESuAWBu5P0wGU4qafn1Jhvmx7Wr6vXyzFuekmVwC0I3J0kBy63jsoQSukcteXC+ebo/+0aNaIk+WfObQncgsDdSXLgMq/zXvmL+abp4b1393lx3ft6CdyCwN1JauAyJLJsZeVBkHRx7NgFNVoeVhme3IdKPkkCtyBwd5IYuLyIQS6LLUzzI6HzXtmul1/cNJMugVsQuDtJDFy+z8zpVerSpRbzLVNnY3WD/lxfLotdL4FbELg7SQtcxkSTW0cPpvF5b/ks2S2XZ77jpumDBG5B4O4kLXB5LnvtmoPm26XO+cbLavLECq+uecdJ4BYE7k5SApfj7qLouPuVl9N71vylX2/Vy8znFyyKBG5B4O4kJXAZcGHShAp19uxl881SZ+mSvXr8trjp+SaBWxC4O0kIXC6Jya/19efMt0qdzTVH1LDi5X/9bN8lcAsCdycJgcv17iembVAV0bH3yhUHUlZeiDB+rNyt5vdxty2BWxC4O0kIXI6PZUsr8ya71CkbfY6cNff9uNuWwC0I3J2kHIPjp0vgFgTuDoH7IYFbELg7BO6HBG5B4O4QuB8SuAWBu0PgfkjgFgTuDoH7IYFbELg7BO6HBG5B4O4QuB8SuAWBu0PgfkjgFgTuDoH7IYFbELg7BO6HBG5B4O4QuB8SuAWBu0PgfkjgFgTuDoH7IYFbELg7tzpwGdVU3ljSpjwLbjt0cJl+pa+MoWb/vgzE6OuIqOmQwC0I3J3PI3AJV57HljBLiluDle8tz2rLq4jk2e82H5u8Xj0+tVI9/lhk9OvLv/1AvfqH7Wru7E1q6qPmv0XKcE4SubyrbEj0WW2fEzf9ECVwCwJ3J5XAZYsqkcnWVqKT7yYxy9DH48asVtOmVKrnn92ig5WRVirWHlS7dp7UbysR6yNl7HN522ebNi0t136/sfGyOnjwnKracFjNf22Hmv54lZ6+TFeiDz12ArcgcHduJHCJSO9GR39evoeE/dCDq9TsJzfqiFeUH1DVUYAyDvmJE00fCzadXI0+uqGhUVVV1uuRWGX0FtlDCDV0ArcgcHc+LXDZQsqusExTlF3vqVPW66GIlyyuU9u3H1cnjjeZT2pfZI9g/qs79HeW0GV3Pm6efJXALQjcnesDl2Pnkui4WSKRrfWMX1apNxfWquqqw6r+0DnV3HzF/M1k0ha6DLooJ+xCOTFH4BYE7o4EPqh/aeuxbKSE8ezcGrW8bL/at/e03hX2kbNnLukTdvKDKoQBGAncgsDd2bL5iD4hJu/hlhNYEkZIyMk9OeknY6T7HDmBWxC4O01NzerChWbzb2Gyc8cJNWnCWr3s4papDxK4BYHD9Zw+dVFfsiuKdtnjlmvSJXALAoc45Lr6r3/1vr5WH7dskyyBWxA4fBIXL7boO+RKomPyuOWbVAncgsDh0ziw/6w+sy7GLeMkSuAWBA6fxdo1B/WyjFvGSZTALQgcXPjdb7bp+9jjlnPSJHALAgcX5H55WaY+3L9O4BYEDq688cddXlw6I3ALAgdXjh+7oJdr0rfiBG5B4HAj/CnaistyjVveSZHALQgcboQjDY36kpk8Dhu3zJMggVsQuL/IyC1yx9mtZs6sTXoAi7hlngQJ3ILAk8Wliy3q+PELateuk2pDZb1a+s5eVfruPvW7l7ap557ZrH713BbtrJkb9eOqT0zboP/9uac3693nTRsb9LHy58niRXWqaGBp7DJPggRuQeDth4zwIiO9LCv9UL02b4d6Zm6NmjJ5vR7aqaS4TA/CIGet5TltGWhCfq9Efo2ULajsKo8YWt76ezLwRDS/cq1aHvWU57sPHDhrppRe6upOqxElyxM7QASBWxD4rUHu6/5w3xlVub5ej8n25IxqNXZ0a8itYS7T/zyypDzls9Ty9+Uz5YfAyvID5hukDxk/Tu5Rl8jjpt/eErgFgX9+yJBI69cdUr95cauaPGmdHtZJQhYlvs/7cpNs4WUZyEAO6UaGekrqk2YEbkHg6UO20h9sO6YW/qlWHyO3fQfZvW6vlxFI5LILv3v3KfMt00N1VYOet7hptrcEbkHgqdEWtRxDT55YoWOSY+ZbsYV2dcigsuj4frP5xulhy+b0vwQiXRK4BYHfOHFRyyCMSR1+WH7QyIm3o0fTd3ZdxlmXa+FJ+SFmS+AWBO6GnFjau/e0WvTnPerR6Hhatl5Jjvp6hxYt0+OtpYsTJy7ok4QEnnAI/NORVwa9HUUt15uHDy3Xnykny+Kml2TlhJg8150uZIhoeSWSvOwhbnrtKYFbEPjHka213DAiN5DIFkqOqWVF9vnFADIP8oMqncx4gsATD4Ff4/z5ZlW27EP99k7ZBReTuAt6M0rg7yyuM3OaHgjcAwhcqaNHzqtFb+1Wkyeu03eOJXGlTVUCd5fAjb4HLifN3nh9pxozapUqGlDq5bG1qwTuLoEbfQxcTg7V7jqp3/opK6f8GZ9GDL1ZCdxdAjcmPXDZ3X57UeuJJXmsUk6cPTm9Wt+E0vo2zfDDbpPA3SVwY9IDl5Nkf5y/U1WsPaimTWk9cSYv1gvlNbk3IoG7S+DGpAfeptxplsQV8VZK4O4SuNGHwDNxax0ngbtL4EZftuBI4DcigRsJ3B8J3F0CNxK4PxK4uwRuJHB/JHB3CdxI4P5I4O4SuJHA/ZHA3SVwI4H7I4G7S+BGAvdHAneXwI0E7o8E7i6BG30IXAZs4G42Ar8RCdyY9MDlabGJ49eaMckz58mxOAncXQI3Jj1wGWhwSbRSl5ftV4MHlAYz/NLNSODuErgx6YHLYA5tz4PLgIMSfCYM7hAngbtL4EYfArdHdNlY3aBXSHnBX9yfD1kCd5fAjb4FLmyuORKtlOV6xZS3fcT9vRAlcHcJ3Ohj4MLeutNq4oQKPcJLpkRO4O4SuNHXwIWGw41q0oS1+vVDcX83NAncXQI3+hy4cPrURfXMnBpVNLA09u+HJIG7S+BG3wMXLl1q0a/WHXj/e7GfEYoE7i6BG0MIXJDI57+6Q//5UG+IIXB3CdwYSuBt/Dn6s4P6lwZ5rZzA3SVwY2iBC+8u3adXWl/e++0qgbtL4MYQAxdqNjbot5/IyhvKZTQCd5fAjaEGLry/5Wi0oqxWJcVhRE7g7hK4MeTAhcP1jerhX6zV7zGL+3yfJHB3CdwYeuDC4cON6rHJ69UQzyMncHcJ3JgJgQtNF5pbb4gZ4O9dbwTuLoEbMyVwQa6VPzt3cxR5qZcjxBC4uwRuzKTAhStXrqqFC2q9jJzA3SVwY6YF3sY7i/eaYaDip5tECdxdAjdmauDyJNqYUau8GgKKwN0lcGMmBl5Tc0SNe2i1GuHZqDAE7i6BGzMt8KoNh1VJcZleqX27+YXA3SVwYyYF/s6Svfr2VV/vUSdwdwncmCmBL3hjl37KzOdhlwncXQI3hh54U1OLmvfKdv05vr8dhcDdJXBjyIFL3HOe2qQG3R/GcE4E7i6BG0MN/OTJJjU7irsoimI0j4t+IgTuAQT+/zl08Fw0P2v0wyUhDalM4O4SuDG0wPfsPqXjLikOb7x0AneXwI0hBb6x6nBwo7jYEri7BG4MJfANlVHcxeGNw2ZL4O4SuDGEwN9aWJsRbx0lcHcJ3Oh74G8uqM2Y94YTuLsEbvQ18IsXW9SLL2zVW27fb2BxlcDdJXCjj4E3NTWrubM2qcH9w38fmS2Bu0vgRt8Crz90Tk2bUun9AIo3I4G7S+BGnwKXuMcHeAOLqwTuLoEbfQj8vaX7VO2uk2r8WLmBJcxr3C7KiLDL3ttn0kwPT06vJvCkE3Lgculr+uNVauzoVXpFzNS4RRmBZu7sTWrJ23Vpc9KEikReXiRwi5ADl6Dl5pVMuAz2WcqykMhlVz1dJnW5ErhFyIFjZkrgFgSOoUngFgSOoUngFgSOoUngFgSOoUngFgSOoUngFgSOoUngFgSOoUngFgSOoUngFgSOoUngFgSOoUngFgSOoUngFqkGfu+PZ6mJ4zeqMQ+uRkyEE8ZVqv4/e53AhVQD/897ZkY/MderUSOWIybCsaPXqJ/fN4/AhVQCl4X39a4/Vt/u/t/qW/n3IiZCWR+/kffT2HXWRQK3zO3US3X9yh2qa0fEhBitj7kd/yN2fXWRwBEDlsARA5bAEQOWwBEDlsARAzaowPOyCsYTOOI1pYfcrN7DTSJ+0z2rz0+659wVO6OImWjrBq/3EJOI33wtq1d+t+zCpsiPzShi5lmo8jv3U/k5BT8wifjNNzvc+4W8rD77ZabiZxgxc8zv3FflZfc507XrXf9gEvGfblmF43rk3BM7w4iZpN49zyp43aQRBv+cXfB30czt5FgcM9n8zndGv/Y93rVjYY5JIxy6drrj+/nZ/Y4TOWai3aO4I1vyOvW6zyQRHrnZhXndsgvLZHe9RxR6dznZEB2TIIZpPyUbtB5d5PC0sLZrpz7fNymETbSb8vP87MI/RD/ZNkUzfij6FTEw9Xq9M/L3+Vn9huV+6fbbzOqfWXwn5+4v5iAGaIcO9/6tWc0BAAAAAAAAAAAAAAAAAAAAAAAAAAAAAAAAAAAAAAAAAAAAAAAAAAAAAAAAAAAAAqJDh/8Dvn0ZNpADabsAAAAASUVORK5CYII=;" vertex="1" parent="xpjgmQdCxlFDzocmX1uN-34">
          <mxGeometry x="30" y="80" width="49" height="49" as="geometry" />
        </mxCell>
        <mxCell id="xpjgmQdCxlFDzocmX1uN-37" value="" style="shape=image;verticalLabelPosition=bottom;labelBackgroundColor=default;verticalAlign=top;aspect=fixed;imageAspect=0;image=data:image/png,iVBORw0KGgoAAAANSUhEUgAAAPgAAAD4CAYAAADB0SsLAAAAAXNSR0IArs4c6QAAAARnQU1BAACxjwv8YQUAAAAJcEhZcwAAFxEAABcRAcom8z8AABK3SURBVHhe7Z17cFfVncDZ2Zn+0Z3Zui0khN2SEOh0+pjdme20zLTbdVwIAR9tp7vu/udsp/JKIDxEEAqCiKAFlIevWm1rLYq1oEUQDSE8AyGBgGB5BAKCEML7FQiQwNn7PTkpZ/GqB34/yT3n9/nMfAZF+N3fvd5P7vvcDgAAAAAAAAAAAAAAAAAAAAAAAAAAAAAAAAAAAAAAAAAAAAAAAAAAAAAAAAAAAACZQo8v9/37bp37fjcvu6AnYlje2bNH576dzKqeOeTk3N4xinp2fnbfVXnZhQ35nfsqxPDsp7pl9znZLbuwOlrXX+6eXfgtk0C45Gb1+Uk08/t65Nyjune+Uy+IaAHIgkAMTlm/u0eh98i5W0UbtcZo/R9uUgiP3OzeP5MZlRmOWxiIISuxf63Lj1ReVsEEk0Q45Of07hrtppw2uy2IGWnrrnvfq9E/f8+kEQR/k5fV50W9mxIz04iZZPecu6JfC9aZNvznOzl3fzEK/Fjr8Xb8TCNmjoWqW1afpq9/tXcXk4jfyNnDbtl9m+NnFjHTLIy24neqvJzehSYRv8nr1Ou+1t2SuJlFzDzlcDU3q2CkScRv8rN6P8zxN+I1pYe8rN7DTCJ+0y27YCyBI16TwBEDlsARA5bAEQOWwBEDlsD/aqH66lfuUF1u+6H6R8QE+U9fvj1mfXWTwI25nXqpf/3Gfer2niPUD79bgpgI/73ncNXzXwZEkRbErrefJYEbu9z2A/U/P31aPfrINjV+bCViInzk4Ro1qP8Cldux101FTuDGLrf9m/qvHz2lJoyrUqMfWImYCH/x0Dp1//++RuACgWNoErgFgWNoErgFgWNoErgFgWNoErgFgWNoErgFgWNoErgFgWNoErgFgWNoErgFgWNoErgFgWNoErgFgWNoErgFgWNoErhFyIGPGbVSPTCsXJUUl6XFEUPL9WfGTcsHHxy5Mna+btYHR66InU57S+AWIQcuK+FvX9qmtv/leFpcuqRODR+6PHZaSXfUiBXRir9a1WxqiJ23G3XH9hNq2pRKNTL6ARo3vfaUwC1CDrxo4DK1+O06lS527jihhgwui51W0pUfdk/P2WTmJHVaWq6oiePXEnjSCTnw4kHL1Ftv7jarZOpsff+oGlrkZ+D6h92iPWZOUmfPnlN6b0Z2++Om154SuAWBu+Nz4MOHLFe7a0+ZOUmd1as+0ss3blrtLYFbELg7vgY+ctgK9cjDFaqpqdnMSerMf3UHgfsAgbvja+BDB5epF19438xFepg1s1oNi/YK4qbX3hK4BYG742vgxdHxd3nZfjMXqXPmzCU1fuxq9cDw5J1gEwncgsDd8TVw2dLurTtt5iJ15DJZkpcDgVsQuDs+Bi4350x9tFJdvnzFzEXqLI/2BooGlsZOLwkSuAWBu+Nj4LJ7/uaCWjMH6eH5Z7bo6+px00uCBG5B4O74Frhco5ZbdT/66KyZg9Q5XN+oz8on9TZVkcAtCNwd3wKXY++nZlSbb58eypZ9mOjdc5HALQjcHd8Cl7vX1qz+yHz71Glpuapm/LJK3zQTN72kSOAWBO6OT4E/MFweLlmjzp69ZL596tTtOR0deyf/YRsCtyBwd3wKXOZd7jZLJ7IsZa8gbnpJksAtCNwdnwJP97XvC03N6pGJFYl8eux6CdyCwN3xJXCJe+b0anX1qvniaWDb1mNqyODkb71FArcgcHd8CXzwgFK1ft0h863TwwvPb/Fm74XALQjcHR8Cl5NgT82sVs3N6btz7YNtx/SNLUl89jtOArcgcHd8CFy+365dJ8w3Tp0rV66qJ6ZuSOyTY3ESuAWBu5P0wGU4qafn1Jhvmx7Wr6vXyzFuekmVwC0I3J0kBy63jsoQSukcteXC+ebo/+0aNaIk+WfObQncgsDdSXLgMq/zXvmL+abp4b1393lx3ft6CdyCwN1JauAyJLJsZeVBkHRx7NgFNVoeVhme3IdKPkkCtyBwd5IYuLyIQS6LLUzzI6HzXtmul1/cNJMugVsQuDtJDFy+z8zpVerSpRbzLVNnY3WD/lxfLotdL4FbELg7SQtcxkSTW0cPpvF5b/ks2S2XZ77jpumDBG5B4O4kLXB5LnvtmoPm26XO+cbLavLECq+uecdJ4BYE7k5SApfj7qLouPuVl9N71vylX2/Vy8znFyyKBG5B4O4kJXAZcGHShAp19uxl881SZ+mSvXr8trjp+SaBWxC4O0kIXC6Jya/19efMt0qdzTVH1LDi5X/9bN8lcAsCdycJgcv17iembVAV0bH3yhUHUlZeiDB+rNyt5vdxty2BWxC4O0kIXI6PZUsr8ya71CkbfY6cNff9uNuWwC0I3J2kHIPjp0vgFgTuDoH7IYFbELg7BO6HBG5B4O4QuB8SuAWBu0PgfkjgFgTuDoH7IYFbELg7BO6HBG5B4O4QuB8SuAWBu0PgfkjgFgTuDoH7IYFbELg7BO6HBG5B4O4QuB8SuAWBu0PgfkjgFgTuDoH7IYFbELg7tzpwGdVU3ljSpjwLbjt0cJl+pa+MoWb/vgzE6OuIqOmQwC0I3J3PI3AJV57HljBLiluDle8tz2rLq4jk2e82H5u8Xj0+tVI9/lhk9OvLv/1AvfqH7Wru7E1q6qPmv0XKcE4SubyrbEj0WW2fEzf9ECVwCwJ3J5XAZYsqkcnWVqKT7yYxy9DH48asVtOmVKrnn92ig5WRVirWHlS7dp7UbysR6yNl7HN522ebNi0t136/sfGyOnjwnKracFjNf22Hmv54lZ6+TFeiDz12ArcgcHduJHCJSO9GR39evoeE/dCDq9TsJzfqiFeUH1DVUYAyDvmJE00fCzadXI0+uqGhUVVV1uuRWGX0FtlDCDV0ArcgcHc+LXDZQsqusExTlF3vqVPW66GIlyyuU9u3H1cnjjeZT2pfZI9g/qs79HeW0GV3Pm6efJXALQjcnesDl2Pnkui4WSKRrfWMX1apNxfWquqqw6r+0DnV3HzF/M1k0ha6DLooJ+xCOTFH4BYE7o4EPqh/aeuxbKSE8ezcGrW8bL/at/e03hX2kbNnLukTdvKDKoQBGAncgsDd2bL5iD4hJu/hlhNYEkZIyMk9OeknY6T7HDmBWxC4O01NzerChWbzb2Gyc8cJNWnCWr3s4papDxK4BYHD9Zw+dVFfsiuKdtnjlmvSJXALAoc45Lr6r3/1vr5WH7dskyyBWxA4fBIXL7boO+RKomPyuOWbVAncgsDh0ziw/6w+sy7GLeMkSuAWBA6fxdo1B/WyjFvGSZTALQgcXPjdb7bp+9jjlnPSJHALAgcX5H55WaY+3L9O4BYEDq688cddXlw6I3ALAgdXjh+7oJdr0rfiBG5B4HAj/CnaistyjVveSZHALQgcboQjDY36kpk8Dhu3zJMggVsQuL/IyC1yx9mtZs6sTXoAi7hlngQJ3ILAk8Wliy3q+PELateuk2pDZb1a+s5eVfruPvW7l7ap557ZrH713BbtrJkb9eOqT0zboP/9uac3693nTRsb9LHy58niRXWqaGBp7DJPggRuQeDth4zwIiO9LCv9UL02b4d6Zm6NmjJ5vR7aqaS4TA/CIGet5TltGWhCfq9Efo2ULajsKo8YWt76ezLwRDS/cq1aHvWU57sPHDhrppRe6upOqxElyxM7QASBWxD4rUHu6/5w3xlVub5ej8n25IxqNXZ0a8itYS7T/zyypDzls9Ty9+Uz5YfAyvID5hukDxk/Tu5Rl8jjpt/eErgFgX9+yJBI69cdUr95cauaPGmdHtZJQhYlvs/7cpNs4WUZyEAO6UaGekrqk2YEbkHg6UO20h9sO6YW/qlWHyO3fQfZvW6vlxFI5LILv3v3KfMt00N1VYOet7hptrcEbkHgqdEWtRxDT55YoWOSY+ZbsYV2dcigsuj4frP5xulhy+b0vwQiXRK4BYHfOHFRyyCMSR1+WH7QyIm3o0fTd3ZdxlmXa+FJ+SFmS+AWBO6GnFjau/e0WvTnPerR6Hhatl5Jjvp6hxYt0+OtpYsTJy7ok4QEnnAI/NORVwa9HUUt15uHDy3Xnykny+Kml2TlhJg8150uZIhoeSWSvOwhbnrtKYFbEPjHka213DAiN5DIFkqOqWVF9vnFADIP8oMqncx4gsATD4Ff4/z5ZlW27EP99k7ZBReTuAt6M0rg7yyuM3OaHgjcAwhcqaNHzqtFb+1Wkyeu03eOJXGlTVUCd5fAjb4HLifN3nh9pxozapUqGlDq5bG1qwTuLoEbfQxcTg7V7jqp3/opK6f8GZ9GDL1ZCdxdAjcmPXDZ3X57UeuJJXmsUk6cPTm9Wt+E0vo2zfDDbpPA3SVwY9IDl5Nkf5y/U1WsPaimTWk9cSYv1gvlNbk3IoG7S+DGpAfeptxplsQV8VZK4O4SuNGHwDNxax0ngbtL4EZftuBI4DcigRsJ3B8J3F0CNxK4PxK4uwRuJHB/JHB3CdxI4P5I4O4SuJHA/ZHA3SVwI4H7I4G7S+BGAvdHAneXwI0E7o8E7i6BG30IXAZs4G42Ar8RCdyY9MDlabGJ49eaMckz58mxOAncXQI3Jj1wGWhwSbRSl5ftV4MHlAYz/NLNSODuErgx6YHLYA5tz4PLgIMSfCYM7hAngbtL4EYfArdHdNlY3aBXSHnBX9yfD1kCd5fAjb4FLmyuORKtlOV6xZS3fcT9vRAlcHcJ3Ohj4MLeutNq4oQKPcJLpkRO4O4SuNHXwIWGw41q0oS1+vVDcX83NAncXQI3+hy4cPrURfXMnBpVNLA09u+HJIG7S+BG3wMXLl1q0a/WHXj/e7GfEYoE7i6BG0MIXJDI57+6Q//5UG+IIXB3CdwYSuBt/Dn6s4P6lwZ5rZzA3SVwY2iBC+8u3adXWl/e++0qgbtL4MYQAxdqNjbot5/IyhvKZTQCd5fAjaEGLry/5Wi0oqxWJcVhRE7g7hK4MeTAhcP1jerhX6zV7zGL+3yfJHB3CdwYeuDC4cON6rHJ69UQzyMncHcJ3JgJgQtNF5pbb4gZ4O9dbwTuLoEbMyVwQa6VPzt3cxR5qZcjxBC4uwRuzKTAhStXrqqFC2q9jJzA3SVwY6YF3sY7i/eaYaDip5tECdxdAjdmauDyJNqYUau8GgKKwN0lcGMmBl5Tc0SNe2i1GuHZqDAE7i6BGzMt8KoNh1VJcZleqX27+YXA3SVwYyYF/s6Svfr2VV/vUSdwdwncmCmBL3hjl37KzOdhlwncXQI3hh54U1OLmvfKdv05vr8dhcDdJXBjyIFL3HOe2qQG3R/GcE4E7i6BG0MN/OTJJjU7irsoimI0j4t+IgTuAQT+/zl08Fw0P2v0wyUhDalM4O4SuDG0wPfsPqXjLikOb7x0AneXwI0hBb6x6nBwo7jYEri7BG4MJfANlVHcxeGNw2ZL4O4SuDGEwN9aWJsRbx0lcHcJ3Oh74G8uqM2Y94YTuLsEbvQ18IsXW9SLL2zVW27fb2BxlcDdJXCjj4E3NTWrubM2qcH9w38fmS2Bu0vgRt8Crz90Tk2bUun9AIo3I4G7S+BGnwKXuMcHeAOLqwTuLoEbfQj8vaX7VO2uk2r8WLmBJcxr3C7KiLDL3ttn0kwPT06vJvCkE3Lgculr+uNVauzoVXpFzNS4RRmBZu7sTWrJ23Vpc9KEikReXiRwi5ADl6Dl5pVMuAz2WcqykMhlVz1dJnW5ErhFyIFjZkrgFgSOoUngFgSOoUngFgSOoUngFgSOoUngFgSOoUngFgSOoUngFgSOoUngFgSOoUngFgSOoUngFgSOoUngFgSOoUngFqkGfu+PZ6mJ4zeqMQ+uRkyEE8ZVqv4/e53AhVQD/897ZkY/MderUSOWIybCsaPXqJ/fN4/AhVQCl4X39a4/Vt/u/t/qW/n3IiZCWR+/kffT2HXWRQK3zO3US3X9yh2qa0fEhBitj7kd/yN2fXWRwBEDlsARA5bAEQOWwBEDlsARAzaowPOyCsYTOOI1pYfcrN7DTSJ+0z2rz0+659wVO6OImWjrBq/3EJOI33wtq1d+t+zCpsiPzShi5lmo8jv3U/k5BT8wifjNNzvc+4W8rD77ZabiZxgxc8zv3FflZfc507XrXf9gEvGfblmF43rk3BM7w4iZpN49zyp43aQRBv+cXfB30czt5FgcM9n8zndGv/Y93rVjYY5JIxy6drrj+/nZ/Y4TOWai3aO4I1vyOvW6zyQRHrnZhXndsgvLZHe9RxR6dznZEB2TIIZpPyUbtB5d5PC0sLZrpz7fNymETbSb8vP87MI/RD/ZNkUzfij6FTEw9Xq9M/L3+Vn9huV+6fbbzOqfWXwn5+4v5iAGaIcO9/6tWc0BAAAAAAAAAAAAAAAAAAAAAAAAAAAAAAAAAAAAAAAAAAAAAAAAAAAAAAAAAAAAAqJDh/8Dvn0ZNpADabsAAAAASUVORK5CYII=;" vertex="1" parent="xpjgmQdCxlFDzocmX1uN-34">
          <mxGeometry x="80" y="80" width="49" height="49" as="geometry" />
        </mxCell>
        <mxCell id="xpjgmQdCxlFDzocmX1uN-38" value="" style="endArrow=classic;html=1;rounded=0;fontSize=6;entryX=0.004;entryY=0.411;entryDx=0;entryDy=0;entryPerimeter=0;exitX=1;exitY=0.5;exitDx=0;exitDy=0;" edge="1" parent="xpjgmQdCxlFDzocmX1uN-12" source="xpjgmQdCxlFDzocmX1uN-16" target="xpjgmQdCxlFDzocmX1uN-34">
          <mxGeometry width="50" height="50" relative="1" as="geometry">
            <mxPoint x="10" y="220" as="sourcePoint" />
            <mxPoint x="60" y="170" as="targetPoint" />
          </mxGeometry>
        </mxCell>
        <mxCell id="xpjgmQdCxlFDzocmX1uN-39" value="" style="endArrow=classic;html=1;rounded=0;fontSize=6;entryX=0.439;entryY=0.996;entryDx=0;entryDy=0;exitX=0.5;exitY=1;exitDx=0;exitDy=0;entryPerimeter=0;" edge="1" parent="xpjgmQdCxlFDzocmX1uN-12" source="xpjgmQdCxlFDzocmX1uN-34" target="xpjgmQdCxlFDzocmX1uN-14">
          <mxGeometry width="50" height="50" relative="1" as="geometry">
            <mxPoint x="240" y="136.5" as="sourcePoint" />
            <mxPoint x="288.95000000000005" y="190.22000000000003" as="targetPoint" />
            <Array as="points">
              <mxPoint x="355" y="300" />
              <mxPoint x="140" y="300" />
            </Array>
          </mxGeometry>
        </mxCell>
        <mxCell id="xpjgmQdCxlFDzocmX1uN-45" value="" style="endArrow=classic;html=1;rounded=0;fontSize=9;exitX=0.5;exitY=0;exitDx=0;exitDy=0;" edge="1" parent="1" source="xpjgmQdCxlFDzocmX1uN-34">
          <mxGeometry width="50" height="50" relative="1" as="geometry">
            <mxPoint x="-330" y="260" as="sourcePoint" />
            <mxPoint x="-530" y="120" as="targetPoint" />
            <Array as="points">
              <mxPoint x="-15" y="120" />
            </Array>
          </mxGeometry>
        </mxCell>
        <mxCell id="xpjgmQdCxlFDzocmX1uN-80" value="REST API Callback to SF" style="edgeLabel;html=1;align=center;verticalAlign=middle;resizable=0;points=[];fontSize=9;" vertex="1" connectable="0" parent="xpjgmQdCxlFDzocmX1uN-45">
          <mxGeometry x="-0.0152" relative="1" as="geometry">
            <mxPoint as="offset" />
          </mxGeometry>
        </mxCell>
        <mxCell id="xpjgmQdCxlFDzocmX1uN-70" style="edgeStyle=orthogonalEdgeStyle;rounded=0;orthogonalLoop=1;jettySize=auto;html=1;exitX=0;exitY=0.5;exitDx=0;exitDy=0;fontSize=9;" edge="1" parent="1" source="xpjgmQdCxlFDzocmX1uN-53">
          <mxGeometry relative="1" as="geometry">
            <mxPoint x="-680" y="310.00000000000006" as="targetPoint" />
          </mxGeometry>
        </mxCell>
      </root>
    </mxGraphModel>
  </diagram>
</mxfile>
